{
.appVersion = "945";
classes = (
{
automatic = 1;
code = "Eth Lslash Scaron Yacute Thorn Zcaron A B C D E F G H I J K L M N O P Q R S T U V W X Y Z Adieresis Aring Ccedilla Eacute Ntilde Odieresis Udieresis AE Oslash Omega Agrave Atilde Otilde OE Ydieresis Acircumflex Ecircumflex Aacute Edieresis Egrave Iacute Icircumflex Idieresis Igrave Oacute Ocircumflex Ograve Uacute Ucircumflex Ugrave Amacron Abreve Aogonek Cacute Ccircumflex Cdotaccent Ccaron Dcaron Dcroat Emacron Ebreve Edotaccent Eogonek Ecaron Gcircumflex Gbreve Gdotaccent Gcommaaccent Hcircumflex Hbar Itilde Imacron Ibreve Iogonek Idotaccent IJ Jcircumflex Kcommaaccent Lacute Lcommaaccent Lcaron Ldot Nacute Ncommaaccent Ncaron Eng Omacron Obreve Ohungarumlaut Racute Rcommaaccent Rcaron Sacute Scircumflex Scedilla Tcaron Tbar Utilde Umacron Ubreve Uring Uhungarumlaut Uogonek Wcircumflex Ycircumflex Zacute Zdotaccent uni01CD uni01CF uni01D1 uni01D3 AEacute Oslashacute Wgrave Wacute Wdieresis Ygrave Jacute Scommaaccent Tcedilla Tcommaaccent";
name = Uppercase;
}
);
copyright = "Copyright (c) 2016 by Red Hat, Inc. All rights reserved.";
customParameters = (
{
name = description;
value = "Overpass is an open source webfont family inspired by Highway Gothic. Sponsored by Red Hat and created by Delve Fonts.\012\012Overpass is the typeface used by Red Hat. Free and open source, released as both OFL+LGPL. The origin-artwork that inspired Overpass (Highway Gothic) is public domain. Used globally in road signage, Highway Gothic embodies design for the public good. Traffic control systems demonstrate that open standards and open communication help complex communities work better together. This digital interpretation of Highway Gothic includes a wide array of variations so that web designers have the flexibility they expect for modern web typography.\012Today’s enterprise brands all have distinct typographic expressions. In the software arena, Overpass is strongly aligned to Red Hat brand.";
},
{
name = vendorID;

glyphs = (
{
glyphname = Eth;
lastChange = "2016-11-19 05:50:03 +0000";
layers = (
{
background = {
paths = (
{
closed = 1;
nodes = (
"84 0 LINE",
"337 0 LINE SMOOTH",
"602 0 OFFCURVE",
"708 204 OFFCURVE",
"708 381 CURVE SMOOTH",
"708 555 OFFCURVE",
"619 700 OFFCURVE",
"424 700 CURVE SMOOTH",
"207 700 LINE",
"157 413 LINE",
"98 413 LINE",
"76 287 LINE",
"135 287 LINE"
);
},
{
closed = 1;
nodes = (
"239 128 LINE",
"267 287 LINE",
"404 287 LINE",
"426 413 LINE",
"289 413 LINE",
"317 572 LINE",
"406 572 LINE SMOOTH",
"513 572 OFFCURVE",
"562 490 OFFCURVE",
"562 375 CURVE SMOOTH",
"562 257 OFFCURVE",
"491 128 OFFCURVE",
"336 128 CURVE SMOOTH"
);
}
);
};
hints = (
{
origin = "{0, 0}";
},
{
place = "{0, 674}";
},
{
horizontal = 1;
origin = "{0, 1}";
},
{
horizontal = 1;
place = "{0, 396}";
},
{
horizontal = 1;
origin = "{0, 11}";
target = "{0, 10}";
}
);
layerId = UUID0;
paths = (
{
closed = 1;
nodes = (
"299 0 LINE SMOOTH",
"584 0 OFFCURVE",
"674 227 OFFCURVE",
"674 394 CURVE SMOOTH",
"674 556 OFFCURVE",
"592 700 OFFCURVE",
"404 700 CURVE SMOOTH",
"207 700 LINE",
"154 396 LINE",
"92 396 LINE",
"75 302 LINE",
"138 302 LINE",
"84 0 LINE"
);
},
{
closed = 1;
nodes = (
"239 302 LINE",
"381 302 LINE",
"398 396 LINE",
"255 396 LINE",
"292 604 LINE",
"397 604 LINE SMOOTH",
"514 604 OFFCURVE",
"566 506 OFFCURVE",
"566 391 CURVE SMOOTH",
"566 262 OFFCURVE",
"498 95 OFFCURVE",
"306 95 CURVE SMOOTH",
"202 95 LINE"
);
}
);
width = 663;
},
{
background = {
paths = (
{
closed = 1;
nodes = (
"84 0 LINE",
"337 0 LINE SMOOTH",
"602 0 OFFCURVE",
"708 204 OFFCURVE",
"708 381 CURVE SMOOTH",
"708 555 OFFCURVE",
"619 700 OFFCURVE",
"424 700 CURVE SMOOTH",
"207 700 LINE",
"157 413 LINE",
"98 413 LINE",
"76 287 LINE",
"135 287 LINE"
);
},
{
closed = 1;
nodes = (
"239 128 LINE",
"267 287 LINE",
"404 287 LINE",
"426 413 LINE",
"289 413 LINE",
"317 572 LINE",
"406 572 LINE SMOOTH",
"513 572 OFFCURVE",
"562 490 OFFCURVE",
"562 375 CURVE SMOOTH",
"562 257 OFFCURVE",
"491 128 OFFCURVE",
"336 128 CURVE SMOOTH"
);
}
);
};
hints = (
{
place = "{276, -20}";
},
{
place = "{-20, 646}";
},
{
horizontal = 1;
origin = "{0, 0}";
},
{
horizontal = 1;
place = "{-20, 360}";
},
{
horizontal = 1;
place = "{308, -10}";
}
);
layerId = "03594D1A-E940-4CFB-8F8F-75A73B5E45C4";
paths = (
{
closed = 1;
nodes = (
"276 0 LINE SMOOTH",
"582 0 OFFCURVE",
"656 250 OFFCURVE",
"656 408 CURVE SMOOTH",
"656 557 OFFCURVE",
"581 700 OFFCURVE",
"400 700 CURVE SMOOTH",
"223 700 LINE",
"167 380 LINE",
"101 380 LINE",
"90 318 LINE",
"156 318 LINE",
"100 0 LINE"
);
},
{
closed = 1;
nodes = (
"226 318 LINE",
"374 318 LINE",
"385 380 LINE",
"237 380 LINE",
"282 637 LINE",
"403 637 LINE SMOOTH",
"531 637 OFFCURVE",
"586 522 OFFCURVE",
"586 408 CURVE SMOOTH",
"586 267 OFFCURVE",
"521 63 OFFCURVE",
"292 63 CURVE SMOOTH",
"181 63 LINE"
);
}
);
width = 652;
},
{
background = {
paths = (
{
closed = 1;
nodes = (
"79 0 LINE",
"225 0 LINE SMOOTH",
"482 0 OFFCURVE",
"609 204 OFFCURVE",
"609 422 CURVE SMOOTH",
"609 564 OFFCURVE",
"544 700 OFFCURVE",
"352 700 CURVE SMOOTH",
"202 700 LINE"
);
},
{
closed = 1;
nodes = (
"122 36 LINE",
"231 664 LINE",
"345 664 LINE SMOOTH",
"514 664 OFFCURVE",
"568 548 OFFCURVE",
"568 422 CURVE SMOOTH",
"568 208 OFFCURVE",
"443 36 OFFCURVE",
"232 36 CURVE SMOOTH"
);
},
{
closed = 1;
nodes = (
"160 331 LINE",
"350 331 LINE",
"355 367 LINE",
"74 367 LINE",
"69 331 LINE"
);
}
);
};
hints = (
{
place = "{0, 617}";
},
{
horizontal = 1;
origin = "{0, 11}";
target = "{0, 10}";
},
{
horizontal = 1;
origin = "{0, 0}";
},
{
horizontal = 1;
place = "{0, 367}";
}
);
layerId = "42555ED7-786B-4551-A9FC-B380F510FD49";
paths = (
{
closed = 1;
nodes = (
"233 0 LINE SMOOTH",
"490 0 OFFCURVE",
"617 204 OFFCURVE",
"617 422 CURVE SMOOTH",
"617 564 OFFCURVE",
"552 700 OFFCURVE",
"360 700 CURVE SMOOTH",
"210 700 LINE",
"151 367 LINE",
"82 367 LINE",
"77 331 LINE",
"145 331 LINE",
"87 0 LINE"
);
},
{
closed = 1;
nodes = (
"182 331 LINE",
"358 331 LINE",
"363 367 LINE",
"188 367 LINE",
"240 664 LINE",
"353 664 LINE SMOOTH",
"522 664 OFFCURVE",
"576 548 OFFCURVE",
"576 422 CURVE SMOOTH",
"576 208 OFFCURVE",
"451 36 OFFCURVE",
"240 36 CURVE SMOOTH",
"131 36 LINE"
);
}
);
width = 645;
},
{
background = {
paths = (
{
closed = 1;
nodes = (
"337 0 LINE SMOOTH",
"602 0 OFFCURVE",
"708 204 OFFCURVE",
"708 381 CURVE SMOOTH",
"708 555 OFFCURVE",
"619 700 OFFCURVE",
"424 700 CURVE SMOOTH",
"207 700 LINE",
"157 413 LINE",
"98 413 LINE",
"76 287 LINE",
"135 287 LINE",
"84 0 LINE"
);
},
{
closed = 1;
nodes = (
"267 287 LINE",
"404 287 LINE",
"426 413 LINE",
"289 413 LINE",
"317 572 LINE",
"406 572 LINE SMOOTH",
"513 572 OFFCURVE",
"562 490 OFFCURVE",
"562 375 CURVE SMOOTH",
"562 257 OFFCURVE",
"491 128 OFFCURVE",
"336 128 CURVE SMOOTH",
"239 128 LINE"
);
}
);
};
hints = (
{
place = "{501, 66}";
},
{
place = "{137, -70}";
},
{
horizontal = 1;
place = "{-70, 343}";
},
{
horizontal = 1;
place = "{343, -70}";
},
{
horizontal = 1;
place = "{-70, 217}";
}
);
layerId = "B410913A-4682-469F-9A16-EAAC4E2E8870";
paths = (
{
closed = 1;
nodes = (
"324 0 LINE SMOOTH",
"589 0 OFFCURVE",
"695 204 OFFCURVE",
"695 381 CURVE SMOOTH",
"695 555 OFFCURVE",
"606 700 OFFCURVE",
"411 700 CURVE SMOOTH",
"194 700 LINE",
"144 413 LINE",
"85 413 LINE",
"63 287 LINE",
"122 287 LINE",
"71 0 LINE"
);
},
{
closed = 1;
nodes = (
"254 287 LINE",
"391 287 LINE",
"413 413 LINE",
"276 413 LINE",
"304 572 LINE",
"393 572 LINE SMOOTH",
"500 572 OFFCURVE",
"549 490 OFFCURVE",
"549 375 CURVE SMOOTH",
"549 257 OFFCURVE",
"478 128 OFFCURVE",
"323 128 CURVE SMOOTH",
"226 128 LINE"
);
}
);
width = 678;
},
{
hints = (
{
origin = "{0, 0}";
},
{
place = "{205.5, -442}";
},
{
horizontal = 1;
origin = "{0, 1}";
},
{
horizontal = 1;
place = "{-105, 316.5}";
},
{
horizontal = 1;
origin = "{0, 11}";
target = "{0, 10}";
}
);
layerId = "DEEEE81F-2F80-4306-8755-EEA92C96C68A";
paths = (
{
closed = 1;
nodes = (
"337 0 LINE SMOOTH",
"592 0 OFFCURVE",
"706 193 OFFCURVE",
"706 375 CURVE SMOOTH",
"706 555 OFFCURVE",
"613 700 OFFCURVE",
"415 700 CURVE SMOOTH",
"188 700 LINE",
"139 422 LINE",
"82 422 LINE",
"57 280 LINE",
"114 280 LINE",
"65 0 LINE"
);
},
{
closed = 1;
nodes = (
"262 280 LINE",
"396 280 LINE",
"421 422 LINE",
"287 422 LINE",
"310 556 LINE",
"391 556 LINE SMOOTH",
"493 556 OFFCURVE",
"541 482 OFFCURVE",
"541 367 CURVE SMOOTH",
"541 255 OFFCURVE",
"468 145 OFFCURVE",
"332 145 CURVE SMOOTH",
"238 145 LINE"
);
}
);
width = 686;
}
);
leftKerningGroup = Eth;
rightKerningGroup = O;
unicode = 00D0;
},
{
glyphname = eth;
lastChange = "2016-11-19 05:50:03 +0000";
layers = (
{
background = {
paths = (
{
closed = 1;
nodes = (
"265 542 LINE",
"322 475 LINE",
"389 536 LINE",
"412 509 OFFCURVE",
"427 473 OFFCURVE",
"430 426 CURVE",
"409 445 OFFCURVE",
"371 456 OFFCURVE",
"330 456 CURVE SMOOTH",
"190 456 OFFCURVE",
"80 336 OFFCURVE",
"80 191 CURVE SMOOTH",
"80 71 OFFCURVE",
"157 -12 OFFCURVE",
"279 -12 CURVE SMOOTH",
"465 -12 OFFCURVE",
"557 143 OFFCURVE",
"557 343 CURVE SMOOTH",
"557 471 OFFCURVE",
"528 560 OFFCURVE",
"479 618 CURVE",
"534 668 LINE",
"478 736 LINE",
"411 675 LINE",
"364 701 OFFCURVE",
"309 712 OFFCURVE",
"250 712 CURVE",
"230 606 LINE",
"259 605 OFFCURVE",
"289 600 OFFCURVE",
"316 589 CURVE"
);
},
{
closed = 1;
nodes = (
"245 113 OFFCURVE",
"210 152 OFFCURVE",
"210 203 CURVE SMOOTH",
"210 278 OFFCURVE",
"265 331 OFFCURVE",
"331 331 CURVE SMOOTH",
"382 331 OFFCURVE",
"415 294 OFFCURVE",
"415 241 CURVE SMOOTH",
"415 167 OFFCURVE",
"357 113 OFFCURVE",
"294 113 CURVE SMOOTH"
);
}
);
};
hints = (
{
origin = "{0, 11}";
target = "{1, 2}";
},
{
origin = "{1, 8}";
target = "{0, 17}";
},
{
horizontal = 1;
place = "{447, -20}";
target = down;
type = TopGhost;
},
{
horizontal = 1;
origin = "{1, 5}";
target = "{0, 8}";
},
{
horizontal = 1;
origin = "{0, 12}";
target = "{1, 11}";
}
);
layerId = UUID0;
paths = (
{
closed = 1;
nodes = (
"443 -12 OFFCURVE",
"542 137 OFFCURVE",
"542 355 CURVE SMOOTH",
"542 477 OFFCURVE",
"510 570 OFFCURVE",
"456 628 CURVE",
"513 680 LINE",
"471 731 LINE",
"405 670 LINE",
"361 696 OFFCURVE",
"306 709 OFFCURVE",
"250 712 CURVE",
"235 632 LINE",
"272 630 OFFCURVE",
"306 621 OFFCURVE",
"335 606 CURVE",
"276 551 LINE",
"317 500 LINE",
"389 566 LINE",
"430 525 OFFCURVE",
"446 459 OFFCURVE",
"448 397 CURVE",
"430 429 OFFCURVE",
"394 456 OFFCURVE",
"333 456 CURVE SMOOTH",
"194 456 OFFCURVE",
"81 340 OFFCURVE",
"81 187 CURVE SMOOTH",
"81 70 OFFCURVE",
"151 -12 OFFCURVE",
"268 -12 CURVE SMOOTH"
);
},
{
closed = 1;
nodes = (
"219 82 OFFCURVE",
"182 126 OFFCURVE",
"182 195 CURVE SMOOTH",
"182 292 OFFCURVE",
"252 362 OFFCURVE",
"329 362 CURVE SMOOTH",
"391 362 OFFCURVE",
"428 315 OFFCURVE",
"428 247 CURVE SMOOTH",
"428 153 OFFCURVE",
"356 82 OFFCURVE",
"281 82 CURVE SMOOTH"
);
}
);
width = 532;
},
{
background = {
paths = (
{
closed = 1;
nodes = (
"265 542 LINE",
"322 475 LINE",
"389 536 LINE",
"412 509 OFFCURVE",
"427 473 OFFCURVE",
"430 426 CURVE",
"409 445 OFFCURVE",
"371 456 OFFCURVE",
"330 456 CURVE SMOOTH",
"190 456 OFFCURVE",
"80 336 OFFCURVE",
"80 191 CURVE SMOOTH",
"80 71 OFFCURVE",
"157 -12 OFFCURVE",
"279 -12 CURVE SMOOTH",
"465 -12 OFFCURVE",
"557 143 OFFCURVE",
"557 343 CURVE SMOOTH",
"557 471 OFFCURVE",
"528 560 OFFCURVE",
"479 618 CURVE",
"534 668 LINE",
"478 736 LINE",
"411 675 LINE",
"364 701 OFFCURVE",
"309 712 OFFCURVE",
"250 712 CURVE",
"230 606 LINE",
"259 605 OFFCURVE",
"289 600 OFFCURVE",
"316 589 CURVE"
);
},
{
closed = 1;
nodes = (
"245 113 OFFCURVE",
"210 152 OFFCURVE",
"210 203 CURVE SMOOTH",
"210 278 OFFCURVE",
"265 331 OFFCURVE",
"331 331 CURVE SMOOTH",
"382 331 OFFCURVE",
"415 294 OFFCURVE",
"415 241 CURVE SMOOTH",
"415 167 OFFCURVE",
"357 113 OFFCURVE",
"294 113 CURVE SMOOTH"
);
}
);
};
hints = (
{
origin = "{0, 12}";
target = "{1, 2}";
},
{
origin = "{1, 8}";
target = "{0, 17}";
},
{
horizontal = 1;
place = "{384, -20}";
target = down;
type = TopGhost;
},
{
horizontal = 1;
origin = "{1, 5}";
target = "{0, 8}";
},
{
horizontal = 1;
origin = "{0, 5}";
target = "{1, 11}";
}
);
layerId = "03594D1A-E940-4CFB-8F8F-75A73B5E45C4";
paths = (
{
closed = 1;
nodes = (
"427 -12 OFFCURVE",
"532 131 OFFCURVE",
"532 367 CURVE SMOOTH",
"532 483 OFFCURVE",
"497 580 OFFCURVE",
"438 638 CURVE",
"497 692 LINE",
"469 727 LINE",
"404 665 LINE",
"364 691 OFFCURVE",
"309 707 OFFCURVE",
"255 712 CURVE",
"245 659 LINE",
"290 655 OFFCURVE",
"329 642 OFFCURVE",
"359 623 CURVE",
"293 560 LINE",
"318 526 LINE",
"394 596 LINE",
"453 541 OFFCURVE",
"471 446 OFFCURVE",
"471 369 CURVE",
"456 414 OFFCURVE",
"423 456 OFFCURVE",
"341 456 CURVE SMOOTH",
"204 456 OFFCURVE",
"87 345 OFFCURVE",
"87 183 CURVE SMOOTH",
"87 70 OFFCURVE",
"151 -12 OFFCURVE",
"262 -12 CURVE SMOOTH"
);
},
{
closed = 1;
nodes = (
"198 51 OFFCURVE",
"159 100 OFFCURVE",
"159 187 CURVE SMOOTH",
"159 306 OFFCURVE",
"244 393 OFFCURVE",
"333 393 CURVE SMOOTH",
"405 393 OFFCURVE",
"446 337 OFFCURVE",
"446 253 CURVE SMOOTH",
"446 139 OFFCURVE",
"360 51 OFFCURVE",
"273 51 CURVE SMOOTH"
);
}
);
width = 527;
},
{
background = {
paths = (
{
closed = 1;
nodes = (
"464 705 LINE",
"444 727 LINE",
"370 657 LINE",
"330 683 OFFCURVE",
"282 702 OFFCURVE",
"223 712 CURVE",
"217 680 LINE",
"265 672 OFFCURVE",
"310 656 OFFCURVE",
"344 633 CURVE",
"265 559 LINE",
"284 537 LINE",
"368 615 LINE",
"432 558 OFFCURVE",
"460 474 OFFCURVE",
"460 345 CURVE",
"448 399 OFFCURVE",
"405 456 OFFCURVE",
"315 456 CURVE SMOOTH",
"187 456 OFFCURVE",
"78 344 OFFCURVE",
"78 187 CURVE SMOOTH",
"78 74 OFFCURVE",
"141 -12 OFFCURVE",
"249 -12 CURVE SMOOTH",
"401 -12 OFFCURVE",
"499 117 OFFCURVE",
"499 352 CURVE SMOOTH",
"499 473 OFFCURVE",
"466 574 OFFCURVE",
"393 639 CURVE"
);
},
{
closed = 1;
nodes = (
"396 420 OFFCURVE",
"447 347 OFFCURVE",
"447 251 CURVE SMOOTH",
"447 128 OFFCURVE",
"371 24 OFFCURVE",
"255 24 CURVE SMOOTH",
"167 24 OFFCURVE",
"117 94 OFFCURVE",
"117 189 CURVE SMOOTH",
"117 321 OFFCURVE",
"206 420 OFFCURVE",
"310 420 CURVE SMOOTH"
);
}
);
};
hints = (
{
origin = "{0, 21}";
target = "{1, 9}";
},
{
origin = "{0, 15}";
target = "{0, 27}";
},
{
horizontal = 1;
origin = "{0, 24}";
target = "{1, 6}";
},
{
horizontal = 1;
origin = "{1, 0}";
target = "{0, 18}";
},
{
horizontal = 1;
origin = "{0, 1}";
target = down;
type = TopGhost;
}
);
layerId = "42555ED7-786B-4551-A9FC-B380F510FD49";
paths = (
{
closed = 1;
nodes = (
"405 -12 OFFCURVE",
"500 117 OFFCURVE",
"500 352 CURVE SMOOTH",
"500 473 OFFCURVE",
"473 574 OFFCURVE",
"401 639 CURVE",
"471 705 LINE",
"452 727 LINE",
"378 657 LINE",
"338 683 OFFCURVE",
"290 702 OFFCURVE",
"231 712 CURVE",
"225 680 LINE",
"273 672 OFFCURVE",
"318 656 OFFCURVE",
"352 633 CURVE",
"273 559 LINE",
"292 537 LINE",
"376 615 LINE",
"440 558 OFFCURVE",
"468 474 OFFCURVE",
"468 345 CURVE",
"456 399 OFFCURVE",
"414 456 OFFCURVE",
"325 456 CURVE SMOOTH",
"199 456 OFFCURVE",
"92 344 OFFCURVE",
"92 187 CURVE SMOOTH",
"92 74 OFFCURVE",
"153 -12 OFFCURVE",
"258 -12 CURVE SMOOTH"
);
},
{
closed = 1;
nodes = (
"179 24 OFFCURVE",
"131 94 OFFCURVE",
"131 189 CURVE SMOOTH",
"131 321 OFFCURVE",
"216 420 OFFCURVE",
"316 420 CURVE SMOOTH",
"399 420 OFFCURVE",
"448 347 OFFCURVE",
"448 251 CURVE SMOOTH",
"448 128 OFFCURVE",
"375 24 OFFCURVE",
"264 24 CURVE SMOOTH"
);
}
);
width = 520;
},
{
background = {
paths = (
{
closed = 1;
nodes = (
"465 -12 OFFCURVE",
"557 143 OFFCURVE",
"557 343 CURVE SMOOTH",
"557 620 OFFCURVE",
"422 712 OFFCURVE",
"250 712 CURVE",
"230 606 LINE",
"326 604 OFFCURVE",
"422 553 OFFCURVE",
"430 426 CURVE",
"409 445 OFFCURVE",
"371 456 OFFCURVE",
"330 456 CURVE SMOOTH",
"190 456 OFFCURVE",
"80 336 OFFCURVE",
"80 191 CURVE SMOOTH",
"80 71 OFFCURVE",
"157 -12 OFFCURVE",
"279 -12 CURVE SMOOTH"
);
},
{
closed = 1;
nodes = (
"245 113 OFFCURVE",
"210 152 OFFCURVE",
"210 203 CURVE SMOOTH",
"210 278 OFFCURVE",
"265 331 OFFCURVE",
"331 331 CURVE SMOOTH",
"382 331 OFFCURVE",
"415 294 OFFCURVE",
"415 241 CURVE SMOOTH",
"415 167 OFFCURVE",
"357 113 OFFCURVE",
"294 113 CURVE SMOOTH"
);
},
{
closed = 1;
nodes = (
"265 542 LINE",
"322 475 LINE",
"534 668 LINE",
"478 736 LINE"
);
}
);
};
hints = (
{
origin = "{1, 8}";
target = "{0, 17}";
},
{
origin = "{0, 11}";
target = "{1, 2}";
},
{
horizontal = 1;
origin = "{1, 5}";
target = "{0, 8}";
},
{
horizontal = 1;
origin = "{0, 12}";
target = "{1, 11}";
},
{
horizontal = 1;
origin = "{0, 24}";
target = down;
type = TopGhost;
}
);
layerId = "B410913A-4682-469F-9A16-EAAC4E2E8870";
paths = (
{
closed = 1;
nodes = (
"460 -12 OFFCURVE",
"552 143 OFFCURVE",
"552 343 CURVE SMOOTH",
"552 471 OFFCURVE",
"523 560 OFFCURVE",
"474 618 CURVE",
"529 668 LINE",
"473 736 LINE",
"406 675 LINE",
"359 701 OFFCURVE",
"304 712 OFFCURVE",
"245 712 CURVE",
"225 606 LINE",
"254 605 OFFCURVE",
"284 600 OFFCURVE",
"311 589 CURVE",
"260 542 LINE",
"317 475 LINE",
"384 536 LINE",
"407 509 OFFCURVE",
"422 473 OFFCURVE",
"425 426 CURVE",
"404 445 OFFCURVE",
"366 456 OFFCURVE",
"325 456 CURVE SMOOTH",
"185 456 OFFCURVE",
"75 336 OFFCURVE",
"75 191 CURVE SMOOTH",
"75 71 OFFCURVE",
"152 -12 OFFCURVE",
"274 -12 CURVE SMOOTH"
);
},
{
closed = 1;
nodes = (
"240 113 OFFCURVE",
"205 152 OFFCURVE",
"205 203 CURVE SMOOTH",
"205 278 OFFCURVE",
"260 331 OFFCURVE",
"326 331 CURVE SMOOTH",
"377 331 OFFCURVE",
"410 294 OFFCURVE",
"410 241 CURVE SMOOTH",
"410 167 OFFCURVE",
"352 113 OFFCURVE",
"289 113 CURVE SMOOTH"
);
}
);
width = 537;
},
{
hints = (
{
origin = "{0, 11}";
target = "{1, 2}";
},
{
origin = "{1, 8}";
target = "{0, 17}";
},
{
horizontal = 1;
place = "{460.5, -20}";
target = down;
type = TopGhost;
},
{
horizontal = 1;
origin = "{1, 5}";
target = "{0, 8}";
},
{
horizontal = 1;
origin = "{0, 12}";
target = "{1, 11}";
}
);
layerId = "DEEEE81F-2F80-4306-8755-EEA92C96C68A";
paths = (
{
closed = 1;
nodes = (
"469 -12 OFFCURVE",
"557 146 OFFCURVE",
"557 337 CURVE SMOOTH",
"557 468 OFFCURVE",
"530 555 OFFCURVE",
"483 613 CURVE",
"537 662 LINE",
"474 739 LINE",
"407 678 LINE",
"358 704 OFFCURVE",
"303 714 OFFCURVE",
"243 712 CURVE",
"220 593 LINE",
"245 593 OFFCURVE",
"273 590 OFFCURVE",
"299 581 CURVE",
"252 538 LINE",
"317 463 LINE",
"382 521 LINE",
"396 501 OFFCURVE",
"410 480 OFFCURVE",
"414 441 CURVE",
"391 453 OFFCURVE",
"352 456 OFFCURVE",
"321 456 CURVE SMOOTH",
"181 456 OFFCURVE",
"72 334 OFFCURVE",
"72 193 CURVE SMOOTH",
"72 72 OFFCURVE",
"153 -12 OFFCURVE",
"277 -12 CURVE SMOOTH"
);
},
{
closed = 1;
nodes = (
"251 129 OFFCURVE",
"217 165 OFFCURVE",
"217 207 CURVE SMOOTH",
"217 271 OFFCURVE",
"264 316 OFFCURVE",
"325 316 CURVE SMOOTH",
"370 316 OFFCURVE",
"401 284 OFFCURVE",
"401 238 CURVE SMOOTH",
"401 174 OFFCURVE",
"350 129 OFFCURVE",
"293 129 CURVE SMOOTH"
);
}
);
width = 540;
}
);
leftKerningGroup = ograve;
rightKerningGroup = ograve;
unicode = 00F0;
},
{
glyphname = Lslash;
lastChange = "2016-11-19 05:50:03 +0000";
layers = (
{
background = {
paths = (
{
closed = 1;
nodes = (
"537 0 LINE",
"560 128 LINE",
"239 128 LINE",
"272 317 LINE",
"418 417 LINE",
"448 567 LINE",
"298 463 LINE",
"340 700 LINE",
"203 700 LINE",
"142 356 LINE",
"74 309 LINE",
"44 158 LINE",
"116 209 LINE",
"80 0 LINE"
);
}
);
};
hints = (
{
origin = "{0, 8}";
target = "{0, 7}";
},
{
horizontal = 1;
origin = "{0, 0}";
target = "{0, 1}";
},
{
horizontal = 1;
origin = "{0, 7}";
target = down;
type = TopGhost;
}
);
layerId = UUID0;
paths = (
{
closed = 1;
nodes = (
"512 0 LINE",
"529 97 LINE",
"202 97 LINE",
"242 323 LINE",
"374 415 LINE",
"396 529 LINE",
"262 436 LINE",
"308 700 LINE",
"206 700 LINE",
"145 352 LINE",
"70 301 LINE",
"48 187 LINE",
"125 240 LINE",
"83 0 LINE"
);
}
);
width = 531;
},
{
background = {
paths = (
{
closed = 1;
nodes = (
"537 0 LINE",
"560 128 LINE",
"239 128 LINE",
"272 317 LINE",
"418 417 LINE",
"448 567 LINE",
"298 463 LINE",
"340 700 LINE",
"203 700 LINE",
"142 356 LINE",
"74 309 LINE",
"44 158 LINE",
"116 209 LINE",
"80 0 LINE"
);
}
);
};
hints = (
{
origin = "{0, 8}";
target = "{0, 7}";
},
{
horizontal = 1;
origin = "{0, 0}";
target = "{0, 1}";
},
{
horizontal = 1;
origin = "{0, 7}";
target = down;
type = TopGhost;
}
);
layerId = "03594D1A-E940-4CFB-8F8F-75A73B5E45C4";
paths = (
{
closed = 1;
nodes = (
"502 0 LINE",
"514 67 LINE",
"181 67 LINE",
"227 330 LINE",
"345 414 LINE",
"359 491 LINE",
"241 409 LINE",
"292 700 LINE",
"224 700 LINE",
"163 349 LINE",
"81 293 LINE",
"67 217 LINE",
"149 272 LINE",
"101 0 LINE"
);
}
);
width = 541;
},
{
background = {
paths = (
{
closed = 1;
nodes = (
"475 0 LINE",
"480 33 LINE",
"133 33 LINE",
"174 326 LINE",
"316 426 LINE",
"322 466 LINE",
"180 367 LINE",
"227 700 LINE",
"191 700 LINE",
"140 339 LINE",
"57 281 LINE",
"51 241 LINE",
"134 299 LINE",
"92 0 LINE"
);
}
);
};
hints = (
{
horizontal = 1;
origin = "{0, 0}";
target = "{0, 1}";
},
{
horizontal = 1;
origin = "{0, 7}";
target = down;
type = TopGhost;
}
);
layerId = "42555ED7-786B-4551-A9FC-B380F510FD49";
paths = (
{
closed = 1;
nodes = (
"462 0 LINE",
"468 33 LINE",
"130 33 LINE",
"182 327 LINE",
"327 426 LINE",
"335 466 LINE",
"188 366 LINE",
"247 700 LINE",
"211 700 LINE",
"147 339 LINE",
"62 281 LINE",
"55 241 LINE",
"140 299 LINE",
"87 0 LINE"
);
}
);
width = 511;
},
{
background = {
paths = (
{
closed = 1;
nodes = (
"563 0 LINE",
"563 130 LINE",
"225 130 LINE",
"225 311 LINE",
"350 405 LINE",
"350 552 LINE",
"225 457 LINE",
"225 700 LINE",
"90 700 LINE",
"90 356 LINE",
"24 306 LINE",
"24 158 LINE",
"90 209 LINE",
"90 0 LINE"
);
},
{
closed = 1;
nodes = (
"540 0 LINE",
"563 130 LINE",
"239 130 LINE",
"271 311 LINE",
"429 420 LINE",
"455 567 LINE",
"297 457 LINE",
"339 700 LINE",
"209 700 LINE",
"149 356 LINE",
"77 306 LINE",
"51 158 LINE",
"123 209 LINE",
"86 0 LINE"
);
}
);
};
hints = (
{
origin = "{0, 8}";
target = "{0, 7}";
},
{
horizontal = 1;
origin = "{0, 0}";
target = "{0, 1}";
},
{
horizontal = 1;
origin = "{0, 7}";
target = down;
type = TopGhost;
}
);
layerId = "B410913A-4682-469F-9A16-EAAC4E2E8870";
paths = (
{
closed = 1;
nodes = (
"524 0 LINE",
"547 128 LINE",
"226 128 LINE",
"259 317 LINE",
"405 417 LINE",
"435 567 LINE",
"285 463 LINE",
"327 700 LINE",
"190 700 LINE",
"129 356 LINE",
"61 309 LINE",
"31 158 LINE",
"103 209 LINE",
"67 0 LINE"
);
}
);
width = 526;
},
{
hints = (
{
origin = "{0, 8}";
target = "{0, 7}";
},
{
horizontal = 1;
origin = "{0, 0}";
target = "{0, 1}";
},
{
horizontal = 1;
origin = "{0, 7}";
target = down;
type = TopGhost;
}
);
layerId = "DEEEE81F-2F80-4306-8755-EEA92C96C68A";
paths = (
{
closed = 1;
nodes = (
"530 0 LINE",
"556 144 LINE",
"238 144 LINE",
"268 314 LINE",
"421 418 LINE",
"455 586 LINE",
"297 477 LINE",
"337 700 LINE",
"182 700 LINE",
"121 358 LINE",
"57 313 LINE",
"23 144 LINE",
"92 194 LINE",
"59 0 LINE"
);
}
);
width = 524;
}
);
leftKerningGroup = Eth;
rightKerningGroup = L;
unicode = 0141;
},
{
glyphname = lslash;
lastChange = "2016-11-19 05:50:03 +0000";
layers = (
{
background = {
paths = (
{
closed = 1;
nodes = (
"48 167 LINE",
"108 207 LINE",
"72 0 LINE",
"200 0 LINE",
"255 309 LINE",
"317 351 LINE",
"340 480 LINE",
"278 437 LINE",
"328 722 LINE",
"191 679 LINE",
"131 337 LINE",
"71 296 LINE"
);
}
);
};
hints = (
{
horizontal = 1;
origin = "{0, 2}";
target = up;
type = BottomGhost;
},
{
horizontal = 1;
origin = "{0, 8}";
target = down;
type = TopGhost;
}
);
layerId = UUID0;
paths = (
{
closed = 1;
nodes = (
"53 195 LINE",
"120 241 LINE",
"78 0 LINE",
"177 0 LINE",
"233 318 LINE",
"300 365 LINE",
"317 459 LINE",
"250 413 LINE",
"305 722 LINE",
"199 685 LINE",
"137 336 LINE",
"70 289 LINE"
);
}
);
width = 259;
},
{
background = {
paths = (
{
closed = 1;
nodes = (
"48 167 LINE",
"108 207 LINE",
"72 0 LINE",
"200 0 LINE",
"255 309 LINE",
"317 351 LINE",
"340 480 LINE",
"278 437 LINE",
"328 722 LINE",
"191 679 LINE",
"131 337 LINE",
"71 296 LINE"
);
}
);
};
hints = (
{
horizontal = 1;
origin = "{0, 2}";
target = up;
type = BottomGhost;
},
{
horizontal = 1;
origin = "{0, 8}";
target = down;
type = TopGhost;
}
);
layerId = "03594D1A-E940-4CFB-8F8F-75A73B5E45C4";
paths = (
{
closed = 1;
nodes = (
"65 224 LINE",
"139 276 LINE",
"90 0 LINE",
"160 0 LINE",
"218 328 LINE",
"291 380 LINE",
"302 439 LINE",
"228 387 LINE",
"287 722 LINE",
"212 692 LINE",
"149 335 LINE",
"76 283 LINE"
);
}
);
width = 251;
},
{
hints = (
{
horizontal = 1;
origin = "{0, 3}";
target = up;
type = BottomGhost;
},
{
horizontal = 1;
origin = "{0, 8}";
target = down;
type = TopGhost;
}
);
layerId = "42555ED7-786B-4551-A9FC-B380F510FD49";
paths = (
{
closed = 1;
nodes = (
"48 234 LINE",
"136 293 LINE",
"84 0 LINE",
"121 0 LINE",
"177 320 LINE",
"264 378 LINE",
"271 417 LINE",
"183 358 LINE",
"247 722 LINE",
"208 704 LINE",
"142 331 LINE",
"55 273 LINE"
);
}
);
width = 222;
},
{
background = {
paths = (
{
closed = 1;
nodes = (
"206 0 LINE",
"326 721 LINE",
"188 657 LINE",
"72 0 LINE"
);
},
{
closed = 1;
nodes = (
"48 167 LINE",
"317 351 LINE",
"340 480 LINE",
"71 296 LINE"
);
}
);
};
hints = (
{
horizontal = 1;
origin = "{0, 2}";
target = up;
type = BottomGhost;
},
{
horizontal = 1;
origin = "{0, 8}";
target = down;
type = TopGhost;
}
);
layerId = "B410913A-4682-469F-9A16-EAAC4E2E8870";
paths = (
{
closed = 1;
nodes = (
"43 167 LINE",
"103 207 LINE",
"67 0 LINE",
"195 0 LINE",
"250 309 LINE",
"312 351 LINE",
"335 480 LINE",
"273 437 LINE",
"323 722 LINE",
"186 679 LINE",
"126 337 LINE",
"66 296 LINE"
);
}
);
width = 268;
},
{
hints = (
{
horizontal = 1;
origin = "{0, 2}";
target = up;
type = BottomGhost;
},
{
horizontal = 1;
origin = "{0, 8}";
target = down;
type = TopGhost;
}
);
layerId = "DEEEE81F-2F80-4306-8755-EEA92C96C68A";
paths = (
{
closed = 1;
nodes = (
"38 153 LINE",
"95 190 LINE",
"62 0 LINE",
"204 0 LINE",
"259 305 LINE",
"318 344 LINE",
"344 491 LINE",
"285 449 LINE",
"332 722 LINE",
"180 676 LINE",
"121 338 LINE",
"64 300 LINE"
);
}
);
width = 273;
}
);
leftKerningGroup = lslash;
rightKerningGroup = lslash;
unicode = 0142;
},
{
glyphname = Scaron;
lastChange = "2016-11-19 05:50:03 +0000";
layers = (
{
background = {
paths = (
{
closed = 1;
nodes = (
"617 550 LINE",
"604 627 OFFCURVE",
"543 712 OFFCURVE",
"401 712 CURVE SMOOTH",
"248 712 OFFCURVE",
"157 624 OFFCURVE",
"157 510 CURVE SMOOTH",
"157 285 OFFCURVE",
"448 324 OFFCURVE",
"448 198 CURVE SMOOTH",
"448 147 OFFCURVE",
"402 118 OFFCURVE",
"340 118 CURVE SMOOTH",
"266 118 OFFCURVE",
"231 161 OFFCURVE",
"210 226 CURVE",
"85 180 LINE",
"114 71 OFFCURVE",
"191 -12 OFFCURVE",
"321 -12 CURVE SMOOTH",
"483 -12 OFFCURVE",
"591 77 OFFCURVE",
"591 211 CURVE SMOOTH",
"591 441 OFFCURVE",
"294 416 OFFCURVE",
"294 517 CURVE SMOOTH",
"294 555 OFFCURVE",
"329 587 OFFCURVE",
"392 587 CURVE SMOOTH",
"451 587 OFFCURVE",
"485 552 OFFCURVE",
"494 510 CURVE"
);
},
{
closed = 1;
nodes = (
"658 922 LINE",
"543 922 LINE",
"451 853 LINE",
"382 922 LINE",
"267 922 LINE",
"375 766 LINE",
"495 766 LINE"
);
}
);
};
components = (
{
name = S;
},
{
name = caron;
transform = "{1, 0, 0, 1, 74, 164}";
}
);
layerId = UUID0;
width = 575;
},
{
background = {
paths = (
{
closed = 1;
nodes = (
"617 550 LINE",
"604 627 OFFCURVE",
"543 712 OFFCURVE",
"401 712 CURVE SMOOTH",
"248 712 OFFCURVE",
"157 624 OFFCURVE",
"157 510 CURVE SMOOTH",
"157 285 OFFCURVE",
"448 324 OFFCURVE",
"448 198 CURVE SMOOTH",
"448 147 OFFCURVE",
"402 118 OFFCURVE",
"340 118 CURVE SMOOTH",
"266 118 OFFCURVE",
"231 161 OFFCURVE",
"210 226 CURVE",
"85 180 LINE",
"114 71 OFFCURVE",
"191 -12 OFFCURVE",
"321 -12 CURVE SMOOTH",
"483 -12 OFFCURVE",
"591 77 OFFCURVE",
"591 211 CURVE SMOOTH",
"591 441 OFFCURVE",
"294 416 OFFCURVE",
"294 517 CURVE SMOOTH",
"294 555 OFFCURVE",
"329 587 OFFCURVE",
"392 587 CURVE SMOOTH",
"451 587 OFFCURVE",
"485 552 OFFCURVE",
"494 510 CURVE"
);
},
{
closed = 1;
nodes = (
"658 922 LINE",
"543 922 LINE",
"451 853 LINE",
"382 922 LINE",
"267 922 LINE",
"375 766 LINE",
"495 766 LINE"
);
}
);
};
components = (
{
name = S;
},
{
name = caron;
transform = "{1, 0, 0, 1, 98, 159}";
}
);
layerId = "03594D1A-E940-4CFB-8F8F-75A73B5E45C4";
width = 571;
},
{
components = (
{
name = S;
},
{
name = caron;
transform = "{1, 0, 0, 1, 148, 159}";
}
);
layerId = "42555ED7-786B-4551-A9FC-B380F510FD49";
width = 570;
},
{
components = (
{
name = S;
},
{
name = caron;
transform = "{1, 0, 0, 1, 33, 190}";
}
);
layerId = "B410913A-4682-469F-9A16-EAAC4E2E8870";
width = 584;
},
{
components = (
{
name = S;
},
{
name = caron;
transform = "{1, 0, 0, 1, 13, 203}";
}
);
layerId = "DEEEE81F-2F80-4306-8755-EEA92C96C68A";
width = 589;
}
);
leftKerningGroup = S;
rightKerningGroup = S;
unicode = 0160;
},
{
glyphname = scaron;
lastChange = "2016-11-19 05:50:03 +0000";
layers = (
{
background = {
paths = (
{
closed = 1;
nodes = (
"489 441 LINE",
"464 478 OFFCURVE",
"401 523 OFFCURVE",
"318 523 CURVE SMOOTH",
"201 523 OFFCURVE",
"114 462 OFFCURVE",
"114 361 CURVE SMOOTH",
"114 216 OFFCURVE",
"332 208 OFFCURVE",
"332 144 CURVE SMOOTH",
"332 112 OFFCURVE",
"296 98 OFFCURVE",
"259 98 CURVE SMOOTH",
"200 98 OFFCURVE",
"165 132 OFFCURVE",
"148 153 CURVE",
"55 82 LINE",
"84 26 OFFCURVE",
"163 -12 OFFCURVE",
"246 -12 CURVE SMOOTH",
"378 -12 OFFCURVE",
"460 52 OFFCURVE",
"460 157 CURVE SMOOTH",
"460 300 OFFCURVE",
"239 316 OFFCURVE",
"239 371 CURVE SMOOTH",
"239 398 OFFCURVE",
"266 415 OFFCURVE",
"304 415 CURVE SMOOTH",
"351 415 OFFCURVE",
"378 390 OFFCURVE",
"392 370 CURVE"
);
},
{
closed = 1;
nodes = (
"561 732 LINE",
"446 732 LINE",
"354 663 LINE",
"285 732 LINE",
"170 732 LINE",
"278 576 LINE",
"398 576 LINE"
);
}
);
};
components = (
{
name = s;
},
{
name = caron;
transform = "{1, 0, 0, 1, -6, -1}";
}
);
layerId = UUID0;
width = 455;
},
{
background = {
paths = (
{
closed = 1;
nodes = (
"489 441 LINE",
"464 478 OFFCURVE",
"401 523 OFFCURVE",
"318 523 CURVE SMOOTH",
"201 523 OFFCURVE",
"114 462 OFFCURVE",
"114 361 CURVE SMOOTH",
"114 216 OFFCURVE",
"332 208 OFFCURVE",
"332 144 CURVE SMOOTH",
"332 112 OFFCURVE",
"296 98 OFFCURVE",
"259 98 CURVE SMOOTH",
"200 98 OFFCURVE",
"165 132 OFFCURVE",
"148 153 CURVE",
"55 82 LINE",
"84 26 OFFCURVE",
"163 -12 OFFCURVE",
"246 -12 CURVE SMOOTH",
"378 -12 OFFCURVE",
"460 52 OFFCURVE",
"460 157 CURVE SMOOTH",
"460 300 OFFCURVE",
"239 316 OFFCURVE",
"239 371 CURVE SMOOTH",
"239 398 OFFCURVE",
"266 415 OFFCURVE",
"304 415 CURVE SMOOTH",
"351 415 OFFCURVE",
"378 390 OFFCURVE",
"392 370 CURVE"
);
},
{
closed = 1;
nodes = (
"561 732 LINE",
"446 732 LINE",
"354 663 LINE",
"285 732 LINE",
"170 732 LINE",
"278 576 LINE",
"398 576 LINE"
);
}
);
};
components = (
{
name = s;
},
{
name = caron;
transform = "{1, 0, 0, 1, 4, -1}";
}
);
layerId = "03594D1A-E940-4CFB-8F8F-75A73B5E45C4";
width = 446;
},
{
components = (
{
name = s;
},
{
name = caron;
transform = "{1, 0, 0, 1, 53, -1}";
}
);
layerId = "42555ED7-786B-4551-A9FC-B380F510FD49";
width = 431;
},
{
components = (
{
name = s;
},
{
name = caron;
transform = "{1, 0, 0, 1, -41, 10}";
}
);
layerId = "B410913A-4682-469F-9A16-EAAC4E2E8870";
width = 464;
},
{
components = (
{
name = s;
},
{
name = caron;
transform = "{1, 0, 0, 1, -58, 15}";
}
);
layerId = "DEEEE81F-2F80-4306-8755-EEA92C96C68A";
width = 469;
}
);
leftKerningGroup = scaron;
rightKerningGroup = scaron;
unicode = 0161;
},
{
glyphname = Yacute;
lastChange = "2016-11-19 05:50:03 +0000";
layers = (
{
background = {
paths = (
{
closed = 1;
nodes = (
"410 0 LINE",
"459 279 LINE",
"778 700 LINE",
"624 700 LINE",
"408 414 LINE",
"292 700 LINE",
"150 700 LINE",
"323 282 LINE",
"273 0 LINE"
);
},
{
closed = 1;
nodes = (
"714 922 LINE",
"553 922 LINE",
"390 766 LINE",
"511 766 LINE"
);
}
);
};
components = (
{
name = Y;
},
{
name = acute;
transform = "{1, 0, 0, 1, 150, 159}";
}
);
layerId = UUID0;
width = 623;
},
{
background = {
paths = (
{
closed = 1;
nodes = (
"410 0 LINE",
"459 279 LINE",
"778 700 LINE",
"624 700 LINE",
"408 414 LINE",
"292 700 LINE",
"150 700 LINE",
"323 282 LINE",
"273 0 LINE"
);
},
{
closed = 1;
nodes = (
"714 922 LINE",
"553 922 LINE",
"390 766 LINE",
"511 766 LINE"
);
}
);
};
components = (
{
name = Y;
},
{
name = acute;
transform = "{1, 0, 0, 1, 122, 159}";
}
);
layerId = "03594D1A-E940-4CFB-8F8F-75A73B5E45C4";
width = 593;
},
{
components = (
{
name = Y;
},
{
name = acute;
transform = "{1, 0, 0, 1, 208, 160}";
}
);
layerId = "42555ED7-786B-4551-A9FC-B380F510FD49";
width = 580;
},
{
components = (
{
name = Y;
},
{
name = acute;
transform = "{1, 0, 0, 1, 149, 190}";
}
);
layerId = "B410913A-4682-469F-9A16-EAAC4E2E8870";
width = 658;
},
{
components = (
{
name = Y;
},
{
name = acute;
transform = "{1, 0, 0, 1, 149, 205}";
}
);
layerId = "DEEEE81F-2F80-4306-8755-EEA92C96C68A";
width = 676;
}
);
leftKerningGroup = Y;
rightKerningGroup = Y;
unicode = 00DD;
},
{
glyphname = yacute;
lastChange = "2016-11-19 05:50:03 +0000";
layers = (
{
background = {
paths = (
{
closed = 1;
nodes = (
"625 511 LINE",
"486 511 LINE",
"326 216 LINE SMOOTH",
"318 201 OFFCURVE",
"310 186 OFFCURVE",
"304 169 CURVE",
"303 182 OFFCURVE",
"300 201 OFFCURVE",
"297 216 CURVE SMOOTH",
"242 511 LINE",
"114 511 LINE",
"210 10 LINE",
"99 -194 LINE",
"240 -194 LINE"
);
},
{
closed = 1;
nodes = (
"624 732 LINE",
"463 732 LINE",
"300 576 LINE",
"421 576 LINE"
);
}
);
};
components = (
{
name = y;
},
{
name = acute;
transform = "{1, 0, 0, 1, 69, -1}";
}
);
layerId = UUID0;
width = 514;
},
{
background = {
paths = (
{
closed = 1;
nodes = (
"625 511 LINE",
"486 511 LINE",
"326 216 LINE SMOOTH",
"318 201 OFFCURVE",
"310 186 OFFCURVE",
"304 169 CURVE",
"303 182 OFFCURVE",
"300 201 OFFCURVE",
"297 216 CURVE SMOOTH",
"242 511 LINE",
"114 511 LINE",
"210 10 LINE",
"99 -194 LINE",
"240 -194 LINE"
);
},
{
closed = 1;
nodes = (
"624 732 LINE",
"463 732 LINE",
"300 576 LINE",
"421 576 LINE"
);
}
);
};
components = (
{
name = y;
},
{
name = acute;
transform = "{1, 0, 0, 1, 38, -1}";
}
);
layerId = "03594D1A-E940-4CFB-8F8F-75A73B5E45C4";
width = 492;
},
{
components = (
{
name = y;
},
{
name = acute;
transform = "{1, 0, 0, 1, 131, 0}";
}
);
layerId = "42555ED7-786B-4551-A9FC-B380F510FD49";
width = 485;
},
{
components = (
{
name = y;
},
{
name = acute;
transform = "{1, 0, 0, 1, 62, 10}";
}
);
layerId = "B410913A-4682-469F-9A16-EAAC4E2E8870";
width = 537;
},
{
components = (
{
name = y;
},
{
name = acute;
transform = "{1, 0, 0, 1, 59, 15}";
}
);
layerId = "DEEEE81F-2F80-4306-8755-EEA92C96C68A";
width = 549;
}
);
leftKerningGroup = ygrave;
rightKerningGroup = ygrave;
unicode = 00FD;
},
{
glyphname = Thorn;
lastChange = "2016-11-19 05:50:03 +0000";
layers = (
{
background = {
paths = (
{
closed = 1;
nodes = (
"216 0 LINE",
"240 135 LINE",
"411 135 LINE SMOOTH",
"579 135 OFFCURVE",
"671 249 OFFCURVE",
"671 377 CURVE SMOOTH",
"671 466 OFFCURVE",
"624 577 OFFCURVE",
"474 577 CURVE SMOOTH",
"319 577 LINE",
"340 700 LINE",
"203 700 LINE",
"80 0 LINE"
);
},
{
closed = 1;
nodes = (
"263 263 LINE",
"296 449 LINE",
"458 449 LINE SMOOTH",
"514 449 OFFCURVE",
"532 410 OFFCURVE",
"532 364 CURVE SMOOTH",
"532 325 OFFCURVE",
"504 263 OFFCURVE",
"426 263 CURVE SMOOTH"
);
}
);
};
hints = (
{
origin = "{0, 11}";
target = "{0, 10}";
},
{
origin = "{1, 5}";
target = "{0, 5}";
},
{
horizontal = 1;
origin = "{0, 1}";
target = "{1, 0}";
},
{
horizontal = 1;
origin = "{1, 1}";
target = "{0, 9}";
},
{
horizontal = 1;
origin = "{0, 0}";
target = up;
type = BottomGhost;
}
);
layerId = UUID0;
paths = (
{
closed = 1;
nodes = (
"185 0 LINE",
"210 142 LINE",
"384 142 LINE SMOOTH",
"558 142 OFFCURVE",
"641 267 OFFCURVE",
"641 386 CURVE SMOOTH",
"641 472 OFFCURVE",
"595 569 OFFCURVE",
"452 569 CURVE SMOOTH",
"286 569 LINE",
"308 700 LINE",
"206 700 LINE",
"83 0 LINE"
);
},
{
closed = 1;
nodes = (
"227 238 LINE",
"269 473 LINE",
"442 473 LINE SMOOTH",
"516 473 OFFCURVE",
"538 421 OFFCURVE",
"538 372 CURVE SMOOTH",
"538 316 OFFCURVE",
"501 238 OFFCURVE",
"401 238 CURVE SMOOTH"
);
}
);
width = 604;
},
{
background = {
paths = (
{
closed = 1;
nodes = (
"216 0 LINE",
"240 135 LINE",
"411 135 LINE SMOOTH",
"579 135 OFFCURVE",
"671 249 OFFCURVE",
"671 377 CURVE SMOOTH",
"671 466 OFFCURVE",
"624 577 OFFCURVE",
"474 577 CURVE SMOOTH",
"319 577 LINE",
"340 700 LINE",
"203 700 LINE",
"80 0 LINE"
);
},
{
closed = 1;
nodes = (
"263 263 LINE",
"296 449 LINE",
"458 449 LINE SMOOTH",
"514 449 OFFCURVE",
"532 410 OFFCURVE",
"532 364 CURVE SMOOTH",
"532 325 OFFCURVE",
"504 263 OFFCURVE",
"426 263 CURVE SMOOTH"
);
}
);
};
hints = (
{
origin = "{0, 11}";
target = "{0, 10}";
},
{
origin = "{1, 5}";
target = "{0, 5}";
},
{
horizontal = 1;
origin = "{0, 1}";
target = "{1, 0}";
},
{
horizontal = 1;
origin = "{1, 1}";
target = "{0, 9}";
},
{
horizontal = 1;
origin = "{0, 0}";
target = up;
type = BottomGhost;
}
);
layerId = "03594D1A-E940-4CFB-8F8F-75A73B5E45C4";
paths = (
{
closed = 1;
nodes = (
"169 0 LINE",
"195 150 LINE",
"373 150 LINE SMOOTH",
"552 150 OFFCURVE",
"626 286 OFFCURVE",
"626 396 CURVE SMOOTH",
"626 479 OFFCURVE",
"581 561 OFFCURVE",
"446 561 CURVE SMOOTH",
"268 561 LINE",
"292 700 LINE",
"224 700 LINE",
"101 0 LINE"
);
},
{
closed = 1;
nodes = (
"207 213 LINE",
"257 498 LINE",
"441 498 LINE SMOOTH",
"534 498 OFFCURVE",
"560 432 OFFCURVE",
"560 381 CURVE SMOOTH",
"560 307 OFFCURVE",
"514 213 OFFCURVE",
"391 213 CURVE SMOOTH"
);
}
);
width = 598;
},
{
background = {
paths = (
{
closed = 1;
nodes = (
"129 0 LINE",
"150 150 LINE",
"332 150 LINE SMOOTH",
"512 150 OFFCURVE",
"585 281 OFFCURVE",
"585 386 CURVE SMOOTH",
"585 476 OFFCURVE",
"536 561 OFFCURVE",
"390 561 CURVE SMOOTH",
"208 561 LINE",
"227 700 LINE",
"191 700 LINE",
"93 0 LINE"
);
},
{
closed = 1;
nodes = (
"155 186 LINE",
"203 525 LINE",
"386 525 LINE SMOOTH",
"506 525 OFFCURVE",
"545 454 OFFCURVE",
"545 381 CURVE SMOOTH",
"545 294 OFFCURVE",
"486 186 OFFCURVE",
"338 186 CURVE SMOOTH"
);
}
);
};
hints = (
{
origin = "{1, 5}";
target = "{0, 5}";
},
{
horizontal = 1;
origin = "{0, 1}";
target = "{1, 0}";
},
{
horizontal = 1;
origin = "{1, 1}";
target = "{0, 9}";
},
{
horizontal = 1;
origin = "{0, 0}";
target = up;
type = BottomGhost;
}
);
layerId = "42555ED7-786B-4551-A9FC-B380F510FD49";
paths = (
{
closed = 1;
nodes = (
"124 0 LINE",
"150 150 LINE",
"333 150 LINE SMOOTH",
"518 150 OFFCURVE",
"593 280 OFFCURVE",
"593 387 CURVE SMOOTH",
"593 474 OFFCURVE",
"545 561 OFFCURVE",
"404 561 CURVE SMOOTH",
"223 561 LINE",
"246 700 LINE",
"209 700 LINE",
"87 0 LINE"
);
},
{
closed = 1;
nodes = (
"156 186 LINE",
"216 525 LINE",
"398 525 LINE SMOOTH",
"514 525 OFFCURVE",
"552 457 OFFCURVE",
"552 387 CURVE SMOOTH",
"552 298 OFFCURVE",
"491 186 OFFCURVE",
"336 186 CURVE SMOOTH"
);
}
);
width = 579;
},
{
background = {
paths = (
{
closed = 1;
nodes = (
"216 0 LINE",
"240 135 LINE",
"399 135 LINE SMOOTH",
"586 135 OFFCURVE",
"671 278 OFFCURVE",
"671 397 CURVE SMOOTH",
"671 486 OFFCURVE",
"621 577 OFFCURVE",
"477 577 CURVE SMOOTH",
"318 577 LINE",
"339 700 LINE",
"209 700 LINE",
"86 0 LINE"
);
},
{
closed = 1;
nodes = (
"262 263 LINE",
"295 449 LINE",
"459 449 LINE SMOOTH",
"517 449 OFFCURVE",
"534 408 OFFCURVE",
"534 374 CURVE SMOOTH",
"534 325 OFFCURVE",
"504 263 OFFCURVE",
"426 263 CURVE SMOOTH"
);
},
{
closed = 1;
nodes = (
"439 135 LINE SMOOTH",
"612 135 OFFCURVE",
"672 262 OFFCURVE",
"672 364 CURVE SMOOTH",
"672 449 OFFCURVE",
"626 577 OFFCURVE",
"469 577 CURVE SMOOTH",
"198 577 LINE",
"119 135 LINE"
);
}
);
};
hints = (
{
origin = "{0, 11}";
target = "{0, 10}";
},
{
origin = "{1, 5}";
target = "{0, 5}";
},
{
horizontal = 1;
origin = "{0, 1}";
target = "{1, 0}";
},
{
horizontal = 1;
origin = "{1, 1}";
target = "{0, 9}";
},
{
horizontal = 1;
origin = "{0, 0}";
target = up;
type = BottomGhost;
}
);
layerId = "B410913A-4682-469F-9A16-EAAC4E2E8870";
paths = (
{
closed = 1;
nodes = (
"203 0 LINE",
"227 135 LINE",
"398 135 LINE SMOOTH",
"566 135 OFFCURVE",
"658 249 OFFCURVE",
"658 377 CURVE SMOOTH",
"658 466 OFFCURVE",
"611 577 OFFCURVE",
"461 577 CURVE SMOOTH",
"306 577 LINE",
"327 700 LINE",
"190 700 LINE",
"67 0 LINE"
);
},
{
closed = 1;
nodes = (
"250 263 LINE",
"283 449 LINE",
"445 449 LINE SMOOTH",
"501 449 OFFCURVE",
"519 410 OFFCURVE",
"519 364 CURVE SMOOTH",
"519 325 OFFCURVE",
"491 263 OFFCURVE",
"413 263 CURVE SMOOTH"
);
}
);
width = 615;
},
{
hints = (
{
origin = "{0, 11}";
target = "{0, 10}";
},
{
origin = "{1, 5}";
target = "{0, 5}";
},
{
horizontal = 1;
origin = "{0, 1}";
target = "{1, 0}";
},
{
horizontal = 1;
origin = "{1, 1}";
target = "{0, 9}";
},
{
horizontal = 1;
origin = "{0, 0}";
target = up;
type = BottomGhost;
}
);
layerId = "DEEEE81F-2F80-4306-8755-EEA92C96C68A";
paths = (
{
closed = 1;
nodes = (
"212 0 LINE",
"236 132 LINE",
"405 132 LINE SMOOTH",
"570 132 OFFCURVE",
"667 240 OFFCURVE",
"667 373 CURVE SMOOTH",
"667 463 OFFCURVE",
"619 581 OFFCURVE",
"466 581 CURVE SMOOTH",
"316 581 LINE",
"337 700 LINE",
"182 700 LINE",
"59 0 LINE"
);
},
{
closed = 1;
nodes = (
"262 276 LINE",
"290 437 LINE",
"447 437 LINE SMOOTH",
"494 437 OFFCURVE",
"510 405 OFFCURVE",
"510 360 CURVE SMOOTH",
"510 330 OFFCURVE",
"486 276 OFFCURVE",
"419 276 CURVE SMOOTH"
);
}
);
width = 621;
}
);
leftKerningGroup = B;
rightKerningGroup = Thorn;
unicode = 00DE;
},
{
glyphname = thorn;
lastChange = "2016-11-19 05:50:03 +0000";
layers = (
{
background = {
paths = (
{
closed = 1;
nodes = (
"437 -12 OFFCURVE",
"561 99 OFFCURVE",
"561 309 CURVE SMOOTH",
"561 443 OFFCURVE",
"488 523 OFFCURVE",
"399 523 CURVE SMOOTH",
"348 523 OFFCURVE",
"310 502 OFFCURVE",
"282 470 CURVE",
"328 722 LINE",
"191 679 LINE",
"36 -200 LINE",
"173 -157 LINE",
"207 37 LINE",
"228 5 OFFCURVE",
"262 -12 OFFCURVE",
"311 -12 CURVE SMOOTH"
);
},
{
closed = 1;
nodes = (
"258 113 OFFCURVE",
"236 135 OFFCURVE",
"227 155 CURVE",
"261 351 LINE",
"278 378 OFFCURVE",
"318 398 OFFCURVE",
"351 398 CURVE SMOOTH",
"407 398 OFFCURVE",
"433 356 OFFCURVE",
"433 295 CURVE SMOOTH",
"433 186 OFFCURVE",
"383 113 OFFCURVE",
"305 113 CURVE SMOOTH"
);
}
);
};
hints = (
{
origin = "{1, 9}";
target = "{0, 2}";
},
{
origin = "{0, 11}";
target = "{0, 10}";
},
{
horizontal = 1;
origin = "{0, 16}";
target = "{1, 12}";
},
{
horizontal = 1;
origin = "{1, 6}";
target = "{0, 5}";
},
{
horizontal = 1;
origin = "{0, 12}";
target = up;
type = BottomGhost;
},
{
horizontal = 1;
origin = "{0, 10}";
target = down;
type = TopGhost;
}
);
layerId = UUID0;
paths = (
{
closed = 1;
nodes = (
"431 -12 OFFCURVE",
"549 107 OFFCURVE",
"549 314 CURVE SMOOTH",
"549 441 OFFCURVE",
"484 523 OFFCURVE",
"387 523 CURVE SMOOTH",
"328 523 OFFCURVE",
"289 498 OFFCURVE",
"256 467 CURVE",
"301 717 LINE",
"196 678 LINE",
"41 -202 LINE",
"146 -163 LINE",
"182 44 LINE",
"204 11 OFFCURVE",
"237 -12 OFFCURVE",
"296 -12 CURVE SMOOTH"
);
},
{
closed = 1;
nodes = (
"244 82 OFFCURVE",
"217 110 OFFCURVE",
"199 142 CURVE",
"238 366 LINE",
"265 404 OFFCURVE",
"311 429 OFFCURVE",
"354 429 CURVE SMOOTH",
"417 429 OFFCURVE",
"450 377 OFFCURVE",
"450 302 CURVE SMOOTH",
"450 172 OFFCURVE",
"391 82 OFFCURVE",
"295 82 CURVE SMOOTH"
);
}
);
width = 544;
},
{
background = {
paths = (
{
closed = 1;
nodes = (
"437 -12 OFFCURVE",
"561 99 OFFCURVE",
"561 309 CURVE SMOOTH",
"561 443 OFFCURVE",
"488 523 OFFCURVE",
"399 523 CURVE SMOOTH",
"348 523 OFFCURVE",
"310 502 OFFCURVE",
"282 470 CURVE",
"328 722 LINE",
"191 679 LINE",
"36 -200 LINE",
"173 -157 LINE",
"207 37 LINE",
"228 5 OFFCURVE",
"262 -12 OFFCURVE",
"311 -12 CURVE SMOOTH"
);
},
{
closed = 1;
nodes = (
"258 113 OFFCURVE",
"236 135 OFFCURVE",
"227 155 CURVE",
"261 351 LINE",
"278 378 OFFCURVE",
"318 398 OFFCURVE",
"351 398 CURVE SMOOTH",
"407 398 OFFCURVE",
"433 356 OFFCURVE",
"433 295 CURVE SMOOTH",
"433 186 OFFCURVE",
"383 113 OFFCURVE",
"305 113 CURVE SMOOTH"
);
}
);
};
hints = (
{
origin = "{1, 9}";
target = "{0, 2}";
},
{
origin = "{0, 11}";
target = "{0, 10}";
},
{
horizontal = 1;
origin = "{0, 16}";
target = "{0, 13}";
},
{
horizontal = 1;
origin = "{1, 6}";
target = "{0, 5}";
},
{
horizontal = 1;
origin = "{0, 12}";
target = up;
type = BottomGhost;
},
{
horizontal = 1;
origin = "{0, 10}";
target = down;
type = TopGhost;
}
);
layerId = "03594D1A-E940-4CFB-8F8F-75A73B5E45C4";
paths = (
{
closed = 1;
nodes = (
"430 -12 OFFCURVE",
"543 116 OFFCURVE",
"543 320 CURVE SMOOTH",
"543 440 OFFCURVE",
"485 523 OFFCURVE",
"381 523 CURVE SMOOTH",
"314 523 OFFCURVE",
"274 495 OFFCURVE",
"236 465 CURVE",
"280 712 LINE",
"207 678 LINE",
"51 -203 LINE",
"124 -168 LINE",
"163 52 LINE",
"185 18 OFFCURVE",
"217 -12 OFFCURVE",
"287 -12 CURVE SMOOTH"
);
},
{
closed = 1;
nodes = (
"236 51 OFFCURVE",
"203 85 OFFCURVE",
"177 130 CURVE",
"221 381 LINE",
"257 431 OFFCURVE",
"309 460 OFFCURVE",
"362 460 CURVE SMOOTH",
"433 460 OFFCURVE",
"472 398 OFFCURVE",
"472 309 CURVE SMOOTH",
"472 158 OFFCURVE",
"404 51 OFFCURVE",
"290 51 CURVE SMOOTH"
);
}
);
width = 545;
},
{
background = {
paths = (
{
closed = 1;
nodes = (
"405 -12 OFFCURVE",
"506 113 OFFCURVE",
"506 319 CURVE SMOOTH",
"506 441 OFFCURVE",
"447 523 OFFCURVE",
"350 523 CURVE SMOOTH",
"284 523 OFFCURVE",
"232 493 OFFCURVE",
"188 436 CURVE",
"202 511 LINE",
"166 511 LINE",
"40 -203 LINE",
"80 -185 LINE",
"127 85 LINE",
"147 26 OFFCURVE",
"201 -12 OFFCURVE",
"262 -12 CURVE SMOOTH"
);
},
{
closed = 1;
nodes = (
"201 24 OFFCURVE",
"155 64 OFFCURVE",
"135 132 CURVE",
"180 389 LINE",
"220 448 OFFCURVE",
"282 487 OFFCURVE",
"342 487 CURVE SMOOTH",
"424 487 OFFCURVE",
"468 419 OFFCURVE",
"468 315 CURVE SMOOTH",
"468 143 OFFCURVE",
"390 24 OFFCURVE",
"262 24 CURVE SMOOTH"
);
},
{
closed = 1;
nodes = (
"163 498 LINE",
"199 704 LINE",
"238 722 LINE",
"199 498 LINE"
);
}
);
};
hints = (
{
origin = "{1, 10}";
target = "{0, 3}";
},
{
horizontal = 1;
origin = "{0, 0}";
target = "{1, 0}";
},
{
horizontal = 1;
origin = "{1, 7}";
target = "{0, 6}";
},
{
horizontal = 1;
origin = "{0, 10}";
target = down;
type = TopGhost;
},
{
horizontal = 1;
origin = "{0, 12}";
target = up;
type = BottomGhost;
}
);
layerId = "42555ED7-786B-4551-A9FC-B380F510FD49";
paths = (
{
closed = 1;
nodes = (
"413 -12 OFFCURVE",
"514 113 OFFCURVE",
"514 319 CURVE SMOOTH",
"514 441 OFFCURVE",
"455 523 OFFCURVE",
"358 523 CURVE SMOOTH",
"292 523 OFFCURVE",
"241 493 OFFCURVE",
"197 436 CURVE",
"247 722 LINE",
"207 704 LINE",
"48 -203 LINE",
"89 -185 LINE",
"136 85 LINE",
"156 26 OFFCURVE",
"209 -12 OFFCURVE",
"270 -12 CURVE SMOOTH"
);
},
{
closed = 1;
nodes = (
"209 24 OFFCURVE",
"164 64 OFFCURVE",
"144 132 CURVE",
"189 389 LINE",
"229 448 OFFCURVE",
"290 487 OFFCURVE",
"350 487 CURVE SMOOTH",
"432 487 OFFCURVE",
"475 419 OFFCURVE",
"475 315 CURVE SMOOTH",
"475 143 OFFCURVE",
"398 24 OFFCURVE",
"270 24 CURVE SMOOTH"
);
}
);
width = 538;
},
{
background = {
paths = (
{
closed = 1;
nodes = (
"437 -12 OFFCURVE",
"561 99 OFFCURVE",
"561 309 CURVE SMOOTH",
"561 443 OFFCURVE",
"488 523 OFFCURVE",
"399 523 CURVE SMOOTH",
"348 523 OFFCURVE",
"310 502 OFFCURVE",
"282 470 CURVE",
"290 511 LINE",
"161 511 LINE",
"36 -200 LINE",
"173 -157 LINE",
"207 37 LINE",
"228 5 OFFCURVE",
"262 -12 OFFCURVE",
"311 -12 CURVE SMOOTH"
);
},
{
closed = 1;
nodes = (
"258 113 OFFCURVE",
"236 135 OFFCURVE",
"227 155 CURVE",
"261 351 LINE",
"278 378 OFFCURVE",
"318 398 OFFCURVE",
"351 398 CURVE SMOOTH",
"407 398 OFFCURVE",
"433 356 OFFCURVE",
"433 295 CURVE SMOOTH",
"433 186 OFFCURVE",
"383 113 OFFCURVE",
"305 113 CURVE SMOOTH"
);
},
{
closed = 1;
nodes = (
"288 499 LINE",
"328 722 LINE",
"191 679 LINE",
"159 499 LINE"
);
}
);
};
hints = (
{
origin = "{1, 9}";
target = "{0, 2}";
},
{
horizontal = 1;
origin = "{0, 16}";
target = "{1, 12}";
},
{
horizontal = 1;
origin = "{0, 10}";
target = down;
type = TopGhost;
},
{
horizontal = 1;
origin = "{1, 6}";
target = "{0, 5}";
},
{
horizontal = 1;
origin = "{0, 12}";
target = up;
type = BottomGhost;
}
);
layerId = "B410913A-4682-469F-9A16-EAAC4E2E8870";
paths = (
{
closed = 1;
nodes = (
"432 -12 OFFCURVE",
"556 99 OFFCURVE",
"556 309 CURVE SMOOTH",
"556 443 OFFCURVE",
"483 523 OFFCURVE",
"394 523 CURVE SMOOTH",
"343 523 OFFCURVE",
"305 502 OFFCURVE",
"277 470 CURVE",
"323 722 LINE",
"186 679 LINE",
"31 -200 LINE",
"168 -157 LINE",
"202 37 LINE",
"223 5 OFFCURVE",
"257 -12 OFFCURVE",
"306 -12 CURVE SMOOTH"
);
},
{
closed = 1;
nodes = (
"253 113 OFFCURVE",
"231 135 OFFCURVE",
"222 155 CURVE",
"256 351 LINE",
"273 378 OFFCURVE",
"313 398 OFFCURVE",
"346 398 CURVE SMOOTH",
"402 398 OFFCURVE",
"428 356 OFFCURVE",
"428 295 CURVE SMOOTH",
"428 186 OFFCURVE",
"378 113 OFFCURVE",
"300 113 CURVE SMOOTH"
);
}
);
width = 543;
},
{
hints = (
{
origin = "{1, 9}";
target = "{0, 2}";
},
{
origin = "{0, 11}";
target = "{0, 10}";
},
{
horizontal = 1;
origin = "{0, 16}";
target = "{1, 12}";
},
{
horizontal = 1;
origin = "{1, 6}";
target = "{0, 5}";
},
{
horizontal = 1;
origin = "{0, 12}";
target = up;
type = BottomGhost;
},
{
horizontal = 1;
origin = "{0, 10}";
target = down;
type = TopGhost;
}
);
layerId = "DEEEE81F-2F80-4306-8755-EEA92C96C68A";
paths = (
{
closed = 1;
nodes = (
"433 -12 OFFCURVE",
"560 95 OFFCURVE",
"560 307 CURVE SMOOTH",
"560 444 OFFCURVE",
"483 523 OFFCURVE",
"398 523 CURVE SMOOTH",
"351 523 OFFCURVE",
"313 504 OFFCURVE",
"288 472 CURVE",
"334 725 LINE",
"181 680 LINE",
"26 -199 LINE",
"179 -154 LINE",
"212 34 LINE",
"233 2 OFFCURVE",
"267 -12 OFFCURVE",
"311 -12 CURVE SMOOTH"
);
},
{
closed = 1;
nodes = (
"258 129 OFFCURVE",
"238 148 OFFCURVE",
"234 162 CURVE",
"265 344 LINE",
"277 365 OFFCURVE",
"314 383 OFFCURVE",
"342 383 CURVE SMOOTH",
"395 383 OFFCURVE",
"417 346 OFFCURVE",
"417 292 CURVE SMOOTH",
"417 193 OFFCURVE",
"372 129 OFFCURVE",
"303 129 CURVE SMOOTH"
);
}
);
width = 543;
}
);
leftKerningGroup = b;
rightKerningGroup = o;
unicode = 00FE;
},
{
glyphname = Zcaron;
lastChange = "2016-11-19 05:50:03 +0000";
layers = (
{
background = {
paths = (
{
closed = 1;
nodes = (
"576 0 LINE",
"599 128 LINE",
"255 128 LINE",
"681 597 LINE",
"699 700 LINE",
"197 700 LINE",
"175 572 LINE",
"494 572 LINE",
"71 103 LINE",
"53 0 LINE"
);
},
{
closed = 1;
nodes = (
"686 922 LINE",
"571 922 LINE",
"479 853 LINE",
"410 922 LINE",
"295 922 LINE",
"403 766 LINE",
"523 766 LINE"
);
}
);
};
components = (
{
name = Z;
},
{
name = caron;
transform = "{1, 0, 0, 1, 118, 164}";
}
);
layerId = UUID0;
width = 610;
},
{
background = {
paths = (
{
closed = 1;
nodes = (
"576 0 LINE",
"599 128 LINE",
"255 128 LINE",
"681 597 LINE",
"699 700 LINE",
"197 700 LINE",
"175 572 LINE",
"494 572 LINE",
"71 103 LINE",
"53 0 LINE"
);
},
{
closed = 1;
nodes = (
"686 922 LINE",
"571 922 LINE",
"479 853 LINE",
"410 922 LINE",
"295 922 LINE",
"403 766 LINE",
"523 766 LINE"
);
}
);
};
components = (
{
name = Z;
},
{
name = caron;
transform = "{1, 0, 0, 1, 143, 159}";
}
);
layerId = "03594D1A-E940-4CFB-8F8F-75A73B5E45C4";
width = 613;
},
{
components = (
{
name = Z;
},
{
name = caron;
transform = "{1, 0, 0, 1, 163, 159}";
}
);
layerId = "42555ED7-786B-4551-A9FC-B380F510FD49";
width = 575;
},
{
components = (
{
name = Z;
},
{
name = caron;
transform = "{1, 0, 0, 1, 68, 190}";
}
);
layerId = "B410913A-4682-469F-9A16-EAAC4E2E8870";
width = 612;
},
{
components = (
{
name = Z;
},
{
name = caron;
transform = "{1, 0, 0, 1, 43, 203}";
}
);
layerId = "DEEEE81F-2F80-4306-8755-EEA92C96C68A";
width = 613;
}
);
leftKerningGroup = Z;
rightKerningGroup = Z;
unicode = 017D;
},
{
glyphname = zcaron;
lastChange = "2016-11-19 05:50:03 +0000";
layers = (
{
background = {
paths = (
{
closed = 1;
nodes = (
"461 0 LINE",
"481 116 LINE",
"239 116 LINE",
"535 412 LINE",
"552 511 LINE",
"158 511 LINE",
"138 395 LINE",
"363 395 LINE",
"68 102 LINE",
"50 0 LINE"
);
},
{
closed = 1;
nodes = (
"596 732 LINE",
"481 732 LINE",
"389 663 LINE",
"320 732 LINE",
"205 732 LINE",
"313 576 LINE",
"433 576 LINE"
);
}
);
};
components = (
{
name = z;
},
{
name = caron;
transform = "{1, 0, 0, 1, 28, -1}";
}
);
layerId = UUID0;
width = 492;
},
{
background = {
paths = (
{
closed = 1;
nodes = (
"461 0 LINE",
"481 116 LINE",
"239 116 LINE",
"535 412 LINE",
"552 511 LINE",
"158 511 LINE",
"138 395 LINE",
"363 395 LINE",
"68 102 LINE",
"50 0 LINE"
);
},
{
closed = 1;
nodes = (
"596 732 LINE",
"481 732 LINE",
"389 663 LINE",
"320 732 LINE",
"205 732 LINE",
"313 576 LINE",
"433 576 LINE"
);
}
);
};
components = (
{
name = z;
},
{
name = caron;
transform = "{1, 0, 0, 1, 43, -1}";
}
);
layerId = "03594D1A-E940-4CFB-8F8F-75A73B5E45C4";
width = 480;
},
{
components = (
{
name = z;
},
{
name = caron;
transform = "{1, 0, 0, 1, 86, -1}";
}
);
layerId = "42555ED7-786B-4551-A9FC-B380F510FD49";
width = 475;
},
{
components = (
{
name = z;
},
{
name = caron;
transform = "{1, 0, 0, 1, -10, 10}";
}
);
layerId = "B410913A-4682-469F-9A16-EAAC4E2E8870";
width = 505;
},
{
components = (
{
name = z;
},
{
name = caron;
transform = "{1, 0, 0, 1, -29, 15}";
}
);
layerId = "DEEEE81F-2F80-4306-8755-EEA92C96C68A";
width = 512;
}
);
leftKerningGroup = zcaron;
rightKerningGroup = zcaron;
unicode = 017E;
},
{
glyphname = onehalf;
lastChange = "2016-11-19 05:50:03 +0000";
layers = (
{
background = {
paths = (
{
closed = 1;
nodes = (
"103 -12 LINE",
"690 712 LINE",
"595 712 LINE",
"8 -12 LINE"
);
},
{
closed = 1;
nodes = (
"193 283 LINE",
"267 705 LINE",
"206 705 LINE",
"191 679 OFFCURVE",
"171 663 OFFCURVE",
"132 663 CURVE",
"121 600 LINE",
"168 600 LINE",
"112 283 LINE"
);
},
{
closed = 1;
nodes = (
"519 294 LINE",
"536 333 OFFCURVE",
"560 353 OFFCURVE",
"597 353 CURVE SMOOTH",
"632 353 OFFCURVE",
"645 331 OFFCURVE",
"645 310 CURVE SMOOTH",
"645 270 OFFCURVE",
"616 249 OFFCURVE",
"575 225 CURVE SMOOTH",
"485 175 OFFCURVE",
"415 118 OFFCURVE",
"394 0 CURVE",
"674 0 LINE",
"688 77 LINE",
"504 77 LINE",
"521 106 OFFCURVE",
"548 128 OFFCURVE",
"593 153 CURVE SMOOTH",
"681 201 OFFCURVE",
"731 234 OFFCURVE",
"731 320 CURVE SMOOTH",
"731 384 OFFCURVE",
"686 429 OFFCURVE",
"611 429 CURVE SMOOTH",
"534 429 OFFCURVE",
"480 382 OFFCURVE",
"451 316 CURVE"
);
}
);
};
hints = (
{
horizontal = 1;
origin = "{0, 1}";
target = down;
type = TopGhost;
},
{
horizontal = 1;
origin = "{0, 0}";
target = up;
type = BottomGhost;
},
{
origin = "{1, 7}";
target = "{1, 1}";
},
{
horizontal = 1;
origin = "{1, 0}";
target = up;
type = BottomGhost;
},
{
horizontal = 1;
origin = "{1, 1}";
target = down;
type = TopGhost;
},
{
origin = "{2, 6}";
target = "{2, 21}";
},
{
horizontal = 1;
origin = "{2, 3}";
target = "{2, 24}";
},
{
horizontal = 1;
origin = "{2, 12}";
target = "{2, 15}";
}
);
layerId = UUID0;
paths = (
{
closed = 1;
nodes = (
"103 -12 LINE",
"690 712 LINE",
"595 712 LINE",
"8 -12 LINE"
);
},
{
closed = 1;
nodes = (
"193 283 LINE",
"267 705 LINE",
"206 705 LINE",
"191 679 OFFCURVE",
"171 663 OFFCURVE",
"132 663 CURVE",
"121 600 LINE",
"168 600 LINE",
"112 283 LINE"
);
},
{
closed = 1;
nodes = (
"519 294 LINE",
"536 333 OFFCURVE",
"560 353 OFFCURVE",
"597 353 CURVE SMOOTH",
"632 353 OFFCURVE",
"645 331 OFFCURVE",
"645 310 CURVE SMOOTH",
"645 270 OFFCURVE",
"616 249 OFFCURVE",
"575 225 CURVE SMOOTH",
"485 175 OFFCURVE",
"415 118 OFFCURVE",
"394 0 CURVE",
"674 0 LINE",
"688 77 LINE",
"504 77 LINE",
"521 106 OFFCURVE",
"548 128 OFFCURVE",
"593 153 CURVE SMOOTH",
"681 201 OFFCURVE",
"731 234 OFFCURVE",
"731 320 CURVE SMOOTH",
"731 384 OFFCURVE",
"686 429 OFFCURVE",
"611 429 CURVE SMOOTH",
"534 429 OFFCURVE",
"480 382 OFFCURVE",
"451 316 CURVE"
);
}
);
width = 726;
},
{
background = {
paths = (
{
closed = 1;
nodes = (
"93 -12 LINE",
"680 712 LINE",
"614 712 LINE",
"27 -12 LINE"
);
},
{
closed = 1;
nodes = (
"198 283 LINE",
"272 705 LINE",
"232 705 LINE",
"216 672 OFFCURVE",
"195 650 OFFCURVE",
"160 650 CURVE",
"152 607 LINE",
"197 607 LINE",
"140 283 LINE"
);
},
{
closed = 1;
nodes = (
"507 308 LINE",
"525 355 OFFCURVE",
"554 378 OFFCURVE",
"600 378 CURVE SMOOTH",
"648 378 OFFCURVE",
"664 345 OFFCURVE",
"664 319 CURVE SMOOTH",
"664 266 OFFCURVE",
"634 238 OFFCURVE",
"579 204 CURVE SMOOTH",
"486 146 OFFCURVE",
"421 107 OFFCURVE",
"402 0 CURVE",
"667 0 LINE",
"677 53 LINE",
"478 53 LINE",
"498 89 OFFCURVE",
"526 114 OFFCURVE",
"582 146 CURVE SMOOTH",
"683 204 OFFCURVE",
"724 242 OFFCURVE",
"724 320 CURVE SMOOTH",
"724 384 OFFCURVE",
"680 429 OFFCURVE",
"604 429 CURVE SMOOTH",
"529 429 OFFCURVE",
"484 386 OFFCURVE",
"461 329 CURVE"
);
}
);
};
hints = (
{
horizontal = 1;
origin = "{0, 1}";
target = down;
type = TopGhost;
},
{
horizontal = 1;
origin = "{0, 0}";
target = up;
type = BottomGhost;
},
{
origin = "{1, 7}";
target = "{1, 1}";
},
{
horizontal = 1;
origin = "{1, 0}";
target = up;
type = BottomGhost;
},
{
horizontal = 1;
origin = "{1, 1}";
target = down;
type = TopGhost;
},
{
origin = "{2, 6}";
target = "{2, 21}";
},
{
horizontal = 1;
origin = "{2, 3}";
target = "{2, 24}";
},
{
horizontal = 1;
origin = "{2, 12}";
target = "{2, 15}";
}
);
layerId = "03594D1A-E940-4CFB-8F8F-75A73B5E45C4";
paths = (
{
closed = 1;
nodes = (
"93 -12 LINE",
"680 712 LINE",
"614 712 LINE",
"27 -12 LINE"
);
},
{
closed = 1;
nodes = (
"198 283 LINE",
"272 705 LINE",
"232 705 LINE",
"216 672 OFFCURVE",
"195 650 OFFCURVE",
"160 650 CURVE",
"152 607 LINE",
"197 607 LINE",
"140 283 LINE"
);
},
{
closed = 1;
nodes = (
"507 308 LINE",
"525 355 OFFCURVE",
"554 378 OFFCURVE",
"600 378 CURVE SMOOTH",
"648 378 OFFCURVE",
"664 345 OFFCURVE",
"664 319 CURVE SMOOTH",
"664 266 OFFCURVE",
"634 238 OFFCURVE",
"579 204 CURVE SMOOTH",
"486 146 OFFCURVE",
"421 107 OFFCURVE",
"402 0 CURVE",
"667 0 LINE",
"677 53 LINE",
"478 53 LINE",
"498 89 OFFCURVE",
"526 114 OFFCURVE",
"582 146 CURVE SMOOTH",
"683 204 OFFCURVE",
"724 242 OFFCURVE",
"724 320 CURVE SMOOTH",
"724 384 OFFCURVE",
"680 429 OFFCURVE",
"604 429 CURVE SMOOTH",
"529 429 OFFCURVE",
"484 386 OFFCURVE",
"461 329 CURVE"
);
}
);
width = 743;
},
{
background = {
paths = (
{
closed = 1;
nodes = (
"45 -12 LINE",
"649 712 LINE",
"605 712 LINE",
"1 -12 LINE"
);
},
{
closed = 1;
nodes = (
"151 283 LINE",
"225 705 LINE",
"200 705 LINE",
"186 663 OFFCURVE",
"169 642 OFFCURVE",
"119 639 CURVE",
"115 617 LINE",
"171 617 LINE",
"112 283 LINE"
);
},
{
closed = 1;
nodes = (
"475 317 LINE",
"496 361 OFFCURVE",
"526 393 OFFCURVE",
"583 393 CURVE SMOOTH",
"637 393 OFFCURVE",
"657 356 OFFCURVE",
"657 321 CURVE SMOOTH",
"657 260 OFFCURVE",
"624 232 OFFCURVE",
"551 191 CURVE SMOOTH",
"474 148 OFFCURVE",
"402 100 OFFCURVE",
"384 0 CURVE",
"638 0 LINE",
"645 40 LINE",
"437 40 LINE",
"456 84 OFFCURVE",
"488 117 OFFCURVE",
"561 156 CURVE SMOOTH",
"654 206 OFFCURVE",
"696 242 OFFCURVE",
"696 325 CURVE SMOOTH",
"696 389 OFFCURVE",
"649 429 OFFCURVE",
"584 429 CURVE SMOOTH",
"514 429 OFFCURVE",
"465 384 OFFCURVE",
"443 331 CURVE"
);
}
);
};
hints = (
{
horizontal = 1;
origin = "{0, 1}";
target = down;
type = TopGhost;
},
{
horizontal = 1;
origin = "{0, 0}";
target = up;
type = BottomGhost;
},
{
horizontal = 1;
origin = "{1, 0}";
target = up;
type = BottomGhost;
},
{
horizontal = 1;
origin = "{1, 1}";
target = down;
type = TopGhost;
},
{
origin = "{2, 6}";
target = "{2, 21}";
},
{
horizontal = 1;
origin = "{2, 3}";
target = "{2, 24}";
},
{
horizontal = 1;
origin = "{2, 12}";
target = "{2, 15}";
}
);
layerId = "42555ED7-786B-4551-A9FC-B380F510FD49";
paths = (
{
closed = 1;
nodes = (
"45 -12 LINE",
"649 712 LINE",
"605 712 LINE",
"1 -12 LINE"
);
},
{
closed = 1;
nodes = (
"151 283 LINE",
"225 705 LINE",
"200 705 LINE",
"186 663 OFFCURVE",
"169 642 OFFCURVE",
"119 639 CURVE",
"115 617 LINE",
"171 617 LINE",
"112 283 LINE"
);
},
{
closed = 1;
nodes = (
"475 317 LINE",
"496 361 OFFCURVE",
"526 393 OFFCURVE",
"583 393 CURVE SMOOTH",
"637 393 OFFCURVE",
"657 356 OFFCURVE",
"657 321 CURVE SMOOTH",
"657 260 OFFCURVE",
"624 232 OFFCURVE",
"551 191 CURVE SMOOTH",
"474 148 OFFCURVE",
"402 100 OFFCURVE",
"384 0 CURVE",
"638 0 LINE",
"645 40 LINE",
"437 40 LINE",
"456 84 OFFCURVE",
"488 117 OFFCURVE",
"561 156 CURVE SMOOTH",
"654 206 OFFCURVE",
"696 242 OFFCURVE",
"696 325 CURVE SMOOTH",
"696 389 OFFCURVE",
"649 429 OFFCURVE",
"584 429 CURVE SMOOTH",
"514 429 OFFCURVE",
"465 384 OFFCURVE",
"443 331 CURVE"
);
}
);
width = 700;
},
{
background = {
paths = (
{
closed = 1;
nodes = (
"139 -12 LINE",
"726 712 LINE",
"602 712 LINE",
"15 -12 LINE"
);
},
{
closed = 1;
nodes = (
"214 283 LINE",
"288 705 LINE",
"205 705 LINE",
"191 687 OFFCURVE",
"172 676 OFFCURVE",
"129 676 CURVE",
"115 593 LINE",
"164 593 LINE",
"109 283 LINE"
);
},
{
closed = 1;
nodes = (
"557 280 LINE",
"572 311 OFFCURVE",
"591 329 OFFCURVE",
"620 329 CURVE SMOOTH",
"641 329 OFFCURVE",
"651 317 OFFCURVE",
"651 301 CURVE SMOOTH",
"651 275 OFFCURVE",
"624 261 OFFCURVE",
"597 247 CURVE SMOOTH",
"509 204 OFFCURVE",
"435 130 OFFCURVE",
"412 0 CURVE",
"707 0 LINE",
"725 102 LINE",
"555 102 LINE",
"569 124 OFFCURVE",
"595 143 OFFCURVE",
"630 161 CURVE SMOOTH",
"704 198 OFFCURVE",
"763 227 OFFCURVE",
"763 321 CURVE SMOOTH",
"763 384 OFFCURVE",
"718 429 OFFCURVE",
"643 429 CURVE SMOOTH",
"565 429 OFFCURVE",
"501 378 OFFCURVE",
"467 304 CURVE"
);
}
);
};
hints = (
{
horizontal = 1;
origin = "{0, 1}";
target = down;
type = TopGhost;
},
{
horizontal = 1;
origin = "{0, 0}";
target = up;
type = BottomGhost;
},
{
origin = "{1, 7}";
target = "{1, 1}";
},
{
horizontal = 1;
origin = "{1, 0}";
target = up;
type = BottomGhost;
},
{
horizontal = 1;
origin = "{1, 1}";
target = down;
type = TopGhost;
},
{
origin = "{2, 6}";
target = "{2, 21}";
},
{
horizontal = 1;
origin = "{2, 12}";
target = "{2, 15}";
},
{
horizontal = 1;
origin = "{2, 3}";
target = "{2, 24}";
}
);
layerId = "B410913A-4682-469F-9A16-EAAC4E2E8870";
paths = (
{
closed = 1;
nodes = (
"139 -12 LINE",
"726 712 LINE",
"602 712 LINE",
"15 -12 LINE"
);
},
{
closed = 1;
nodes = (
"214 283 LINE",
"288 705 LINE",
"205 705 LINE",
"191 687 OFFCURVE",
"172 676 OFFCURVE",
"129 676 CURVE",
"115 593 LINE",
"164 593 LINE",
"109 283 LINE"
);
},
{
closed = 1;
nodes = (
"557 280 LINE",
"572 311 OFFCURVE",
"591 329 OFFCURVE",
"620 329 CURVE SMOOTH",
"641 329 OFFCURVE",
"651 317 OFFCURVE",
"651 301 CURVE SMOOTH",
"651 275 OFFCURVE",
"624 261 OFFCURVE",
"597 247 CURVE SMOOTH",
"509 204 OFFCURVE",
"435 130 OFFCURVE",
"412 0 CURVE",
"707 0 LINE",
"725 102 LINE",
"555 102 LINE",
"569 124 OFFCURVE",
"595 143 OFFCURVE",
"630 161 CURVE SMOOTH",
"704 198 OFFCURVE",
"763 227 OFFCURVE",
"763 321 CURVE SMOOTH",
"763 384 OFFCURVE",
"718 429 OFFCURVE",
"643 429 CURVE SMOOTH",
"565 429 OFFCURVE",
"501 378 OFFCURVE",
"467 304 CURVE"
);
}
);
width = 759;
},
{
hints = (
{
horizontal = 1;
origin = "{0, 1}";
target = down;
type = TopGhost;
},
{
horizontal = 1;
origin = "{0, 0}";
target = up;
type = BottomGhost;
},
{
origin = "{1, 7}";
target = "{1, 1}";
},
{
horizontal = 1;
origin = "{1, 0}";
target = up;
type = BottomGhost;
},
{
horizontal = 1;
origin = "{1, 1}";
target = down;
type = TopGhost;
},
{
origin = "{2, 6}";
target = "{2, 21}";
},
{
horizontal = 1;
origin = "{2, 3}";
target = "{2, 24}";
},
{
horizontal = 1;
origin = "{2, 12}";
target = "{2, 15}";
}
);
layerId = "DEEEE81F-2F80-4306-8755-EEA92C96C68A";
paths = (
{
closed = 1;
nodes = (
"157 -12 LINE",
"744 712 LINE",
"606 712 LINE",
"19 -12 LINE"
);
},
{
closed = 1;
nodes = (
"225 283 LINE",
"299 705 LINE",
"205 705 LINE",
"191 691 OFFCURVE",
"173 683 OFFCURVE",
"128 683 CURVE",
"112 590 LINE",
"162 590 LINE",
"108 283 LINE"
);
},
{
closed = 1;
nodes = (
"576 273 LINE",
"590 300 OFFCURVE",
"607 317 OFFCURVE",
"632 317 CURVE SMOOTH",
"646 317 OFFCURVE",
"654 310 OFFCURVE",
"654 297 CURVE SMOOTH",
"654 278 OFFCURVE",
"628 267 OFFCURVE",
"608 258 CURVE SMOOTH",
"521 219 OFFCURVE",
"445 136 OFFCURVE",
"421 0 CURVE",
"724 0 LINE",
"744 115 LINE",
"581 115 LINE",
"593 133 OFFCURVE",
"619 151 OFFCURVE",
"649 165 CURVE SMOOTH",
"716 197 OFFCURVE",
"779 224 OFFCURVE",
"779 322 CURVE SMOOTH",
"779 384 OFFCURVE",
"734 429 OFFCURVE",
"659 429 CURVE SMOOTH",
"581 429 OFFCURVE",
"512 376 OFFCURVE",
"475 298 CURVE"
);
}
);
width = 776;
}
);
unicode = 00BD;
},
{
glyphname = onequarter;
lastChange = "2016-11-19 05:50:03 +0000";
layers = (
{
background = {
paths = (
{
closed = 1;
nodes = (
"103 -12 LINE",
"690 712 LINE",
"595 712 LINE",
"8 -12 LINE"
);
},
{
closed = 1;
nodes = (
"193 283 LINE",
"267 705 LINE",
"206 705 LINE",
"191 679 OFFCURVE",
"171 663 OFFCURVE",
"132 663 CURVE",
"121 600 LINE",
"168 600 LINE",
"112 283 LINE"
);
},
{
closed = 1;
nodes = (
"592 0 LINE",
"608 94 LINE",
"660 94 LINE",
"673 167 LINE",
"621 167 LINE",
"666 422 LINE",
"596 422 LINE",
"340 145 LINE",
"331 94 LINE",
"530 94 LINE",
"514 0 LINE"
);
},
{
closed = 1;
nodes = (
"439 167 LINE",
"569 311 LINE",
"543 167 LINE"
);
}
);
};
hints = (
{
horizontal = 1;
origin = "{0, 1}";
target = down;
type = TopGhost;
},
{
horizontal = 1;
origin = "{0, 0}";
target = up;
type = BottomGhost;
},
{
origin = "{1, 7}";
target = "{1, 1}";
},
{
horizontal = 1;
origin = "{1, 0}";
target = up;
type = BottomGhost;
},
{
horizontal = 1;
origin = "{1, 1}";
target = down;
type = TopGhost;
},
{
origin = "{2, 9}";
target = "{2, 1}";
},
{
horizontal = 1;
origin = "{2, 1}";
target = "{2, 4}";
},
{
horizontal = 1;
origin = "{2, 5}";
target = down;
type = TopGhost;
},
{
horizontal = 1;
origin = "{2, 0}";
target = up;
type = BottomGhost;
}
);
layerId = UUID0;
paths = (
{
closed = 1;
nodes = (
"103 -12 LINE",
"690 712 LINE",
"595 712 LINE",
"8 -12 LINE"
);
},
{
closed = 1;
nodes = (
"193 283 LINE",
"267 705 LINE",
"206 705 LINE",
"191 679 OFFCURVE",
"171 663 OFFCURVE",
"132 663 CURVE",
"121 600 LINE",
"168 600 LINE",
"112 283 LINE"
);
},
{
closed = 1;
nodes = (
"591 0 LINE",
"607 94 LINE",
"659 94 LINE",
"672 167 LINE",
"620 167 LINE",
"665 422 LINE",
"595 422 LINE",
"339 145 LINE",
"330 94 LINE",
"529 94 LINE",
"513 0 LINE"
);
},
{
closed = 1;
nodes = (
"438 167 LINE",
"568 311 LINE",
"542 167 LINE"
);
}
);
width = 681;
},
{
background = {
paths = (
{
closed = 1;
nodes = (
"93 -12 LINE",
"680 712 LINE",
"614 712 LINE",
"27 -12 LINE"
);
},
{
closed = 1;
nodes = (
"198 283 LINE",
"272 705 LINE",
"232 705 LINE",
"216 672 OFFCURVE",
"195 650 OFFCURVE",
"160 650 CURVE",
"152 607 LINE",
"197 607 LINE",
"140 283 LINE"
);
},
{
closed = 1;
nodes = (
"582 0 LINE",
"601 108 LINE",
"651 108 LINE",
"661 163 LINE",
"611 163 LINE",
"657 423 LINE",
"612 423 LINE",
"346 138 LINE",
"341 108 LINE",
"542 108 LINE",
"523 0 LINE"
);
},
{
closed = 1;
nodes = (
"429 163 LINE",
"582 335 LINE",
"552 163 LINE"
);
}
);
};
hints = (
{
horizontal = 1;
origin = "{0, 1}";
target = down;
type = TopGhost;
},
{
horizontal = 1;
origin = "{0, 0}";
target = up;
type = BottomGhost;
},
{
origin = "{1, 7}";
target = "{1, 1}";
},
{
horizontal = 1;
origin = "{1, 0}";
target = up;
type = BottomGhost;
},
{
horizontal = 1;
origin = "{1, 1}";
target = down;
type = TopGhost;
},
{
origin = "{2, 9}";
target = "{2, 1}";
},
{
horizontal = 1;
origin = "{2, 1}";
target = "{2, 4}";
},
{
horizontal = 1;
origin = "{2, 5}";
target = down;
type = TopGhost;
},
{
horizontal = 1;
origin = "{2, 0}";
target = up;
type = BottomGhost;
}
);
layerId = "03594D1A-E940-4CFB-8F8F-75A73B5E45C4";
paths = (
{
closed = 1;
nodes = (
"93 -12 LINE",
"680 712 LINE",
"614 712 LINE",
"27 -12 LINE"
);
},
{
closed = 1;
nodes = (
"198 283 LINE",
"272 705 LINE",
"232 705 LINE",
"216 672 OFFCURVE",
"195 650 OFFCURVE",
"160 650 CURVE",
"152 607 LINE",
"197 607 LINE",
"140 283 LINE"
);
},
{
closed = 1;
nodes = (
"582 0 LINE",
"601 108 LINE",
"651 108 LINE",
"661 163 LINE",
"611 163 LINE",
"657 423 LINE",
"612 423 LINE",
"346 138 LINE",
"341 108 LINE",
"542 108 LINE",
"523 0 LINE"
);
},
{
closed = 1;
nodes = (
"429 163 LINE",
"582 335 LINE",
"552 163 LINE"
);
}
);
width = 694;
},
{
background = {
paths = (
{
closed = 1;
nodes = (
"45 -12 LINE",
"649 712 LINE",
"605 712 LINE",
"1 -12 LINE"
);
},
{
closed = 1;
nodes = (
"151 283 LINE",
"225 705 LINE",
"200 705 LINE",
"186 663 OFFCURVE",
"169 642 OFFCURVE",
"119 639 CURVE",
"115 617 LINE",
"171 617 LINE",
"112 283 LINE"
);
},
{
closed = 1;
nodes = (
"546 0 LINE",
"566 117 LINE",
"622 117 LINE",
"628 153 LINE",
"572 153 LINE",
"620 423 LINE",
"588 423 LINE",
"319 137 LINE",
"315 117 LINE",
"528 117 LINE",
"508 0 LINE"
);
},
{
closed = 1;
nodes = (
"377 153 LINE",
"571 358 LINE",
"534 153 LINE"
);
}
);
};
hints = (
{
horizontal = 1;
origin = "{0, 1}";
target = down;
type = TopGhost;
},
{
horizontal = 1;
origin = "{0, 0}";
target = up;
type = BottomGhost;
},
{
horizontal = 1;
origin = "{1, 0}";
target = up;
type = BottomGhost;
},
{
horizontal = 1;
origin = "{1, 1}";
target = down;
type = TopGhost;
},
{
horizontal = 1;
origin = "{2, 9}";
target = "{3, 2}";
},
{
horizontal = 1;
origin = "{2, 10}";
target = up;
type = BottomGhost;
},
{
horizontal = 1;
origin = "{2, 6}";
target = down;
type = TopGhost;
}
);
layerId = "42555ED7-786B-4551-A9FC-B380F510FD49";
paths = (
{
closed = 1;
nodes = (
"45 -12 LINE",
"649 712 LINE",
"605 712 LINE",
"1 -12 LINE"
);
},
{
closed = 1;
nodes = (
"151 283 LINE",
"225 705 LINE",
"200 705 LINE",
"186 663 OFFCURVE",
"169 642 OFFCURVE",
"119 639 CURVE",
"115 617 LINE",
"171 617 LINE",
"112 283 LINE"
);
},
{
closed = 1;
nodes = (
"545 0 LINE",
"565 117 LINE",
"621 117 LINE",
"627 153 LINE",
"571 153 LINE",
"619 423 LINE",
"587 423 LINE",
"318 137 LINE",
"314 117 LINE",
"527 117 LINE",
"507 0 LINE"
);
},
{
closed = 1;
nodes = (
"376 153 LINE",
"570 358 LINE",
"533 153 LINE"
);
}
);
width = 650;
},
{
background = {
paths = (
{
closed = 1;
nodes = (
"139 -12 LINE",
"726 712 LINE",
"602 712 LINE",
"15 -12 LINE"
);
},
{
closed = 1;
nodes = (
"214 283 LINE",
"288 705 LINE",
"205 705 LINE",
"191 687 OFFCURVE",
"172 676 OFFCURVE",
"129 676 CURVE",
"115 593 LINE",
"164 593 LINE",
"109 283 LINE"
);
},
{
closed = 1;
nodes = (
"627 0 LINE",
"641 80 LINE",
"695 80 LINE",
"711 172 LINE",
"657 172 LINE",
"701 422 LINE",
"605 422 LINE",
"360 152 LINE",
"347 80 LINE",
"544 80 LINE",
"530 0 LINE"
);
},
{
closed = 1;
nodes = (
"475 172 LINE",
"581 288 LINE",
"560 172 LINE"
);
}
);
};
hints = (
{
horizontal = 1;
origin = "{0, 1}";
target = down;
type = TopGhost;
},
{
horizontal = 1;
origin = "{0, 0}";
target = up;
type = BottomGhost;
},
{
origin = "{1, 7}";
target = "{1, 1}";
},
{
horizontal = 1;
origin = "{1, 0}";
target = up;
type = BottomGhost;
},
{
horizontal = 1;
origin = "{1, 1}";
target = down;
type = TopGhost;
},
{
origin = "{2, 9}";
target = "{2, 1}";
},
{
horizontal = 1;
origin = "{2, 1}";
target = "{2, 4}";
},
{
horizontal = 1;
origin = "{2, 5}";
target = down;
type = TopGhost;
},
{
horizontal = 1;
origin = "{2, 0}";
target = up;
type = BottomGhost;
}
);
layerId = "B410913A-4682-469F-9A16-EAAC4E2E8870";
paths = (
{
closed = 1;
nodes = (
"139 -12 LINE",
"726 712 LINE",
"602 712 LINE",
"15 -12 LINE"
);
},
{
closed = 1;
nodes = (
"214 283 LINE",
"288 705 LINE",
"205 705 LINE",
"191 687 OFFCURVE",
"172 676 OFFCURVE",
"129 676 CURVE",
"115 593 LINE",
"164 593 LINE",
"109 283 LINE"
);
},
{
closed = 1;
nodes = (
"627 0 LINE",
"641 80 LINE",
"695 80 LINE",
"711 172 LINE",
"657 172 LINE",
"701 422 LINE",
"605 422 LINE",
"360 152 LINE",
"347 80 LINE",
"544 80 LINE",
"530 0 LINE"
);
},
{
closed = 1;
nodes = (
"475 172 LINE",
"581 288 LINE",
"560 172 LINE"
);
}
);
width = 719;
},
{
hints = (
{
horizontal = 1;
origin = "{0, 1}";
target = down;
type = TopGhost;
},
{
horizontal = 1;
origin = "{0, 0}";
target = up;
type = BottomGhost;
},
{
origin = "{1, 7}";
target = "{1, 1}";
},
{
horizontal = 1;
origin = "{1, 0}";
target = up;
type = BottomGhost;
},
{
horizontal = 1;
origin = "{1, 1}";
target = down;
type = TopGhost;
},
{
origin = "{2, 9}";
target = "{2, 1}";
},
{
horizontal = 1;
origin = "{2, 1}";
target = "{2, 4}";
},
{
horizontal = 1;
origin = "{2, 5}";
target = down;
type = TopGhost;
},
{
horizontal = 1;
origin = "{2, 0}";
target = up;
type = BottomGhost;
}
);
layerId = "DEEEE81F-2F80-4306-8755-EEA92C96C68A";
paths = (
{
closed = 1;
nodes = (
"157 -12 LINE",
"744 712 LINE",
"606 712 LINE",
"19 -12 LINE"
);
},
{
closed = 1;
nodes = (
"225 283 LINE",
"299 705 LINE",
"205 705 LINE",
"191 691 OFFCURVE",
"173 683 OFFCURVE",
"128 683 CURVE",
"112 590 LINE",
"162 590 LINE",
"108 283 LINE"
);
},
{
closed = 1;
nodes = (
"645 0 LINE",
"658 73 LINE",
"713 73 LINE",
"731 175 LINE",
"676 175 LINE",
"719 422 LINE",
"610 422 LINE",
"371 156 LINE",
"356 73 LINE",
"552 73 LINE",
"539 0 LINE"
);
},
{
closed = 1;
nodes = (
"494 175 LINE",
"588 277 LINE",
"569 175 LINE"
);
}
);
width = 738;
}
);
unicode = 00BC;
},
{
glyphname = onesuperior;
lastChange = "2016-11-19 05:50:03 +0000";
layers = (
{
background = {
paths = (
{
closed = 1;
nodes = (
"242 444 LINE",
"317 866 LINE",
"234 866 LINE",
"220 848 OFFCURVE",
"201 837 OFFCURVE",
"158 837 CURVE",
"143 754 LINE",
"192 754 LINE",
"137 444 LINE"
);
}
);
};
hints = (
{
origin = "{0, 7}";
target = "{0, 1}";
},
{
horizontal = 1;
origin = "{0, 0}";
target = up;
type = BottomGhost;
},
{
horizontal = 1;
origin = "{0, 1}";
target = down;
type = TopGhost;
}
);
layerId = UUID0;
paths = (
{
closed = 1;
nodes = (
"216 444 LINE",
"291 866 LINE",
"230 866 LINE",
"215 840 OFFCURVE",
"194 824 OFFCURVE",
"155 824 CURVE",
"144 761 LINE",
"191 761 LINE",
"135 444 LINE"
);
}
);
width = 189;
},
{
background = {
paths = (
{
closed = 1;
nodes = (
"242 444 LINE",
"317 866 LINE",
"234 866 LINE",
"220 848 OFFCURVE",
"201 837 OFFCURVE",
"158 837 CURVE",
"143 754 LINE",
"192 754 LINE",
"137 444 LINE"
);
}
);
};
hints = (
{
origin = "{0, 7}";
target = "{0, 1}";
},
{
horizontal = 1;
origin = "{0, 0}";
target = up;
type = BottomGhost;
},
{
horizontal = 1;
origin = "{0, 1}";
target = down;
type = TopGhost;
}
);
layerId = "03594D1A-E940-4CFB-8F8F-75A73B5E45C4";
paths = (
{
closed = 1;
nodes = (
"215 444 LINE",
"290 866 LINE",
"251 866 LINE",
"235 833 OFFCURVE",
"213 811 OFFCURVE",
"178 811 CURVE",
"170 768 LINE",
"215 768 LINE",
"158 444 LINE"
);
}
);
width = 213;
},
{
background = {
paths = (
{
closed = 1;
nodes = (
"164 444 LINE",
"223 866 LINE",
"199 866 LINE",
"187 823 OFFCURVE",
"170 802 OFFCURVE",
"120 800 CURVE",
"117 778 LINE",
"173 778 LINE",
"126 444 LINE"
);
}
);
};
hints = (
{
horizontal = 1;
origin = "{0, 0}";
target = up;
type = BottomGhost;
},
{
horizontal = 1;
origin = "{0, 1}";
target = down;
type = TopGhost;
}
);
layerId = "42555ED7-786B-4551-A9FC-B380F510FD49";
paths = (
{
closed = 1;
nodes = (
"165 444 LINE",
"239 866 LINE",
"214 866 LINE",
"200 823 OFFCURVE",
"183 802 OFFCURVE",
"133 800 CURVE",
"129 778 LINE",
"185 778 LINE",
"126 444 LINE"
);
}
);
width = 176;
},
{
hints = (
{
origin = "{0, 7}";
target = "{0, 1}";
},
{
horizontal = 1;
origin = "{0, 0}";
target = up;
type = BottomGhost;
},
{
horizontal = 1;
origin = "{0, 1}";
target = down;
type = TopGhost;
}
);
layerId = "B410913A-4682-469F-9A16-EAAC4E2E8870";
paths = (
{
closed = 1;
nodes = (
"242 444 LINE",
"317 866 LINE",
"234 866 LINE",
"220 848 OFFCURVE",
"201 837 OFFCURVE",
"158 837 CURVE",
"143 754 LINE",
"192 754 LINE",
"137 444 LINE"
);
}
);
width = 215;
},
{
hints = (
{
origin = "{0, 7}";
target = "{0, 1}";
},
{
horizontal = 1;
origin = "{0, 0}";
target = up;
type = BottomGhost;
},
{
horizontal = 1;
origin = "{0, 1}";
target = down;
type = TopGhost;
}
);
layerId = "DEEEE81F-2F80-4306-8755-EEA92C96C68A";
paths = (
{
closed = 1;
nodes = (
"255 444 LINE",
"330 866 LINE",
"236 866 LINE",
"223 852 OFFCURVE",
"205 844 OFFCURVE",
"160 844 CURVE",
"143 751 LINE",
"193 751 LINE",
"138 444 LINE"
);
}
);
width = 228;
}
);
unicode = 00B9;
},
{
glyphname = threequarters;
lastChange = "2016-11-19 05:50:03 +0000";
layers = (
{
background = {
paths = (
{
closed = 1;
nodes = (
"233 -12 LINE",
"820 712 LINE",
"725 712 LINE",
"138 -12 LINE"
);
},
{
closed = 1;
nodes = (
"310 273 OFFCURVE",
"378 335 OFFCURVE",
"378 423 CURVE SMOOTH",
"378 462 OFFCURVE",
"358 492 OFFCURVE",
"326 504 CURVE",
"365 522 OFFCURVE",
"397 565 OFFCURVE",
"397 615 CURVE SMOOTH",
"397 670 OFFCURVE",
"357 712 OFFCURVE",
"290 712 CURVE SMOOTH",
"226 712 OFFCURVE",
"166 672 OFFCURVE",
"133 614 CURVE",
"198 588 LINE",
"215 617 OFFCURVE",
"239 638 OFFCURVE",
"270 638 CURVE SMOOTH",
"298 638 OFFCURVE",
"312 618 OFFCURVE",
"312 596 CURVE SMOOTH",
"312 566 OFFCURVE",
"293 534 OFFCURVE",
"250 534 CURVE SMOOTH",
"222 534 LINE",
"209 463 LINE",
"244 463 LINE SMOOTH",
"279 463 OFFCURVE",
"294 440 OFFCURVE",
"294 415 CURVE SMOOTH",
"294 377 OFFCURVE",
"268 347 OFFCURVE",
"225 347 CURVE SMOOTH",
"190 347 OFFCURVE",
"168 369 OFFCURVE",
"161 411 CURVE",
"82 386 LINE",
"94 317 OFFCURVE",
"137 273 OFFCURVE",
"211 273 CURVE SMOOTH"
);
},
{
closed = 1;
nodes = (
"722 0 LINE",
"738 94 LINE",
"790 94 LINE",
"803 167 LINE",
"751 167 LINE",
"796 422 LINE",
"726 422 LINE",
"470 145 LINE",
"461 94 LINE",
"660 94 LINE",
"644 0 LINE"
);
},
{
closed = 1;
nodes = (
"569 167 LINE",
"699 311 LINE",
"673 167 LINE"
);
}
);
};
hints = (
{
horizontal = 1;
origin = "{0, 1}";
target = down;
type = TopGhost;
},
{
horizontal = 1;
origin = "{0, 0}";
target = up;
type = BottomGhost;
},
{
origin = "{1, 6}";
target = "{1, 34}";
},
{
origin = "{1, 15}";
target = "{1, 28}";
},
{
horizontal = 1;
origin = "{1, 25}";
target = "{1, 18}";
},
{
horizontal = 1;
origin = "{1, 11}";
target = "{1, 10}";
},
{
horizontal = 1;
origin = "{1, 3}";
target = "{1, 37}";
},
{
origin = "{2, 9}";
target = "{2, 1}";
},
{
horizontal = 1;
origin = "{2, 1}";
target = "{2, 4}";
},
{
horizontal = 1;
origin = "{2, 5}";
target = down;
type = TopGhost;
},
{
horizontal = 1;
origin = "{2, 0}";
target = up;
type = BottomGhost;
}
);
layerId = UUID0;
paths = (
{
closed = 1;
nodes = (
"233 -12 LINE",
"820 712 LINE",
"725 712 LINE",
"138 -12 LINE"
);
},
{
closed = 1;
nodes = (
"310 273 OFFCURVE",
"378 335 OFFCURVE",
"378 423 CURVE SMOOTH",
"378 462 OFFCURVE",
"358 492 OFFCURVE",
"326 504 CURVE",
"365 522 OFFCURVE",
"397 565 OFFCURVE",
"397 615 CURVE SMOOTH",
"397 670 OFFCURVE",
"357 712 OFFCURVE",
"290 712 CURVE SMOOTH",
"226 712 OFFCURVE",
"166 672 OFFCURVE",
"133 614 CURVE",
"198 588 LINE",
"215 617 OFFCURVE",
"239 638 OFFCURVE",
"270 638 CURVE SMOOTH",
"298 638 OFFCURVE",
"312 618 OFFCURVE",
"312 596 CURVE SMOOTH",
"312 566 OFFCURVE",
"293 534 OFFCURVE",
"250 534 CURVE SMOOTH",
"222 534 LINE",
"209 463 LINE",
"244 463 LINE SMOOTH",
"279 463 OFFCURVE",
"294 440 OFFCURVE",
"294 415 CURVE SMOOTH",
"294 377 OFFCURVE",
"268 347 OFFCURVE",
"225 347 CURVE SMOOTH",
"190 347 OFFCURVE",
"168 369 OFFCURVE",
"161 411 CURVE",
"82 386 LINE",
"94 317 OFFCURVE",
"137 273 OFFCURVE",
"211 273 CURVE SMOOTH"
);
},
{
closed = 1;
nodes = (
"722 0 LINE",
"738 94 LINE",
"790 94 LINE",
"803 167 LINE",
"751 167 LINE",
"796 422 LINE",
"726 422 LINE",
"470 145 LINE",
"461 94 LINE",
"660 94 LINE",
"644 0 LINE"
);
},
{
closed = 1;
nodes = (
"569 167 LINE",
"699 311 LINE",
"673 167 LINE"
);
}
);
width = 812;
},
{
background = {
paths = (
{
closed = 1;
nodes = (
"236 -12 LINE",
"823 712 LINE",
"757 712 LINE",
"170 -12 LINE"
);
},
{
closed = 1;
nodes = (
"329 271 OFFCURVE",
"399 330 OFFCURVE",
"399 423 CURVE SMOOTH",
"399 464 OFFCURVE",
"378 495 OFFCURVE",
"344 507 CURVE",
"388 525 OFFCURVE",
"418 572 OFFCURVE",
"418 619 CURVE SMOOTH",
"418 676 OFFCURVE",
"376 712 OFFCURVE",
"313 712 CURVE SMOOTH",
"250 712 OFFCURVE",
"190 670 OFFCURVE",
"160 616 CURVE",
"207 598 LINE",
"229 634 OFFCURVE",
"264 662 OFFCURVE",
"300 662 CURVE SMOOTH",
"338 662 OFFCURVE",
"355 634 OFFCURVE",
"355 606 CURVE SMOOTH",
"355 567 OFFCURVE",
"331 523 OFFCURVE",
"278 523 CURVE SMOOTH",
"257 523 LINE",
"248 473 LINE",
"281 473 LINE SMOOTH",
"318 473 OFFCURVE",
"336 440 OFFCURVE",
"336 408 CURVE SMOOTH",
"336 359 OFFCURVE",
"302 321 OFFCURVE",
"246 321 CURVE SMOOTH",
"203 321 OFFCURVE",
"177 349 OFFCURVE",
"166 397 CURVE",
"109 374 LINE",
"122 313 OFFCURVE",
"164 271 OFFCURVE",
"237 271 CURVE SMOOTH"
);
},
{
closed = 1;
nodes = (
"725 0 LINE",
"744 108 LINE",
"794 108 LINE",
"804 163 LINE",
"754 163 LINE",
"800 423 LINE",
"755 423 LINE",
"489 138 LINE",
"484 108 LINE",
"685 108 LINE",
"666 0 LINE"
);
},
{
closed = 1;
nodes = (
"572 163 LINE",
"725 335 LINE",
"695 163 LINE"
);
}
);
};
hints = (
{
horizontal = 1;
origin = "{0, 1}";
target = down;
type = TopGhost;
},
{
horizontal = 1;
origin = "{0, 0}";
target = up;
type = BottomGhost;
},
{
origin = "{1, 6}";
target = "{1, 34}";
},
{
origin = "{1, 15}";
target = "{1, 28}";
},
{
horizontal = 1;
origin = "{1, 25}";
target = "{1, 18}";
},
{
horizontal = 1;
origin = "{1, 11}";
target = "{1, 10}";
},
{
horizontal = 1;
origin = "{1, 3}";
target = "{1, 37}";
},
{
origin = "{2, 9}";
target = "{2, 1}";
},
{
horizontal = 1;
origin = "{2, 1}";
target = "{2, 4}";
},
{
horizontal = 1;
origin = "{2, 5}";
target = down;
type = TopGhost;
},
{
horizontal = 1;
origin = "{2, 0}";
target = up;
type = BottomGhost;
}
);
layerId = "03594D1A-E940-4CFB-8F8F-75A73B5E45C4";
paths = (
{
closed = 1;
nodes = (
"236 -12 LINE",
"823 712 LINE",
"757 712 LINE",
"170 -12 LINE"
);
},
{
closed = 1;
nodes = (
"329 271 OFFCURVE",
"399 330 OFFCURVE",
"399 423 CURVE SMOOTH",
"399 464 OFFCURVE",
"378 495 OFFCURVE",
"344 507 CURVE",
"388 525 OFFCURVE",
"418 572 OFFCURVE",
"418 619 CURVE SMOOTH",
"418 676 OFFCURVE",
"376 712 OFFCURVE",
"313 712 CURVE SMOOTH",
"250 712 OFFCURVE",
"190 670 OFFCURVE",
"160 616 CURVE",
"207 598 LINE",
"229 634 OFFCURVE",
"264 662 OFFCURVE",
"300 662 CURVE SMOOTH",
"338 662 OFFCURVE",
"355 634 OFFCURVE",
"355 606 CURVE SMOOTH",
"355 567 OFFCURVE",
"331 523 OFFCURVE",
"278 523 CURVE SMOOTH",
"257 523 LINE",
"248 473 LINE",
"281 473 LINE SMOOTH",
"318 473 OFFCURVE",
"336 440 OFFCURVE",
"336 408 CURVE SMOOTH",
"336 359 OFFCURVE",
"302 321 OFFCURVE",
"246 321 CURVE SMOOTH",
"203 321 OFFCURVE",
"177 349 OFFCURVE",
"166 397 CURVE",
"109 374 LINE",
"122 313 OFFCURVE",
"164 271 OFFCURVE",
"237 271 CURVE SMOOTH"
);
},
{
closed = 1;
nodes = (
"725 0 LINE",
"744 108 LINE",
"794 108 LINE",
"804 163 LINE",
"754 163 LINE",
"800 423 LINE",
"755 423 LINE",
"489 138 LINE",
"484 108 LINE",
"685 108 LINE",
"666 0 LINE"
);
},
{
closed = 1;
nodes = (
"572 163 LINE",
"725 335 LINE",
"695 163 LINE"
);
}
);
width = 838;
},
{
background = {
paths = (
{
closed = 1;
nodes = (
"188 -12 LINE",
"792 712 LINE",
"748 712 LINE",
"144 -12 LINE"
);
},
{
closed = 1;
nodes = (
"287 271 OFFCURVE",
"359 324 OFFCURVE",
"359 408 CURVE SMOOTH",
"359 457 OFFCURVE",
"336 490 OFFCURVE",
"297 501 CURVE",
"351 521 OFFCURVE",
"380 566 OFFCURVE",
"380 615 CURVE SMOOTH",
"380 678 OFFCURVE",
"339 712 OFFCURVE",
"275 712 CURVE SMOOTH",
"220 712 OFFCURVE",
"167 680 OFFCURVE",
"135 627 CURVE",
"167 612 LINE",
"193 650 OFFCURVE",
"227 676 OFFCURVE",
"274 676 CURVE SMOOTH",
"319 676 OFFCURVE",
"341 649 OFFCURVE",
"341 614 CURVE SMOOTH",
"341 564 OFFCURVE",
"299 517 OFFCURVE",
"244 517 CURVE SMOOTH",
"223 517 LINE",
"216 481 LINE",
"247 481 LINE SMOOTH",
"296 481 OFFCURVE",
"321 450 OFFCURVE",
"321 408 CURVE SMOOTH",
"321 344 OFFCURVE",
"271 307 OFFCURVE",
"207 307 CURVE SMOOTH",
"152 307 OFFCURVE",
"128 332 OFFCURVE",
"110 376 CURVE",
"76 364 LINE",
"92 309 OFFCURVE",
"137 271 OFFCURVE",
"207 271 CURVE SMOOTH"
);
},
{
closed = 1;
nodes = (
"689 0 LINE",
"709 117 LINE",
"765 117 LINE",
"771 153 LINE",
"715 153 LINE",
"763 423 LINE",
"731 423 LINE",
"462 137 LINE",
"458 117 LINE",
"671 117 LINE",
"651 0 LINE"
);
},
{
closed = 1;
nodes = (
"520 153 LINE",
"714 358 LINE",
"677 153 LINE"
);
}
);
};
hints = (
{
horizontal = 1;
origin = "{0, 1}";
target = down;
type = TopGhost;
},
{
horizontal = 1;
origin = "{0, 0}";
target = up;
type = BottomGhost;
},
{
origin = "{1, 34}";
target = "{1, 6}";
},
{
origin = "{1, 25}";
target = "{1, 12}";
},
{
horizontal = 1;
origin = "{1, 3}";
target = "{1, 37}";
},
{
horizontal = 1;
origin = "{1, 30}";
target = "{1, 29}";
},
{
horizontal = 1;
origin = "{1, 22}";
target = "{1, 15}";
},
{
horizontal = 1;
origin = "{2, 9}";
target = "{3, 2}";
},
{
horizontal = 1;
origin = "{2, 10}";
target = up;
type = BottomGhost;
},
{
horizontal = 1;
origin = "{2, 6}";
target = down;
type = TopGhost;
}
);
layerId = "42555ED7-786B-4551-A9FC-B380F510FD49";
paths = (
{
closed = 1;
nodes = (
"188 -12 LINE",
"792 712 LINE",
"748 712 LINE",
"144 -12 LINE"
);
},
{
closed = 1;
nodes = (
"287 271 OFFCURVE",
"359 324 OFFCURVE",
"359 408 CURVE SMOOTH",
"359 457 OFFCURVE",
"336 490 OFFCURVE",
"297 501 CURVE",
"351 521 OFFCURVE",
"380 566 OFFCURVE",
"380 615 CURVE SMOOTH",
"380 678 OFFCURVE",
"339 712 OFFCURVE",
"275 712 CURVE SMOOTH",
"220 712 OFFCURVE",
"167 680 OFFCURVE",
"135 627 CURVE",
"167 612 LINE",
"193 650 OFFCURVE",
"227 676 OFFCURVE",
"274 676 CURVE SMOOTH",
"319 676 OFFCURVE",
"341 649 OFFCURVE",
"341 614 CURVE SMOOTH",
"341 564 OFFCURVE",
"299 517 OFFCURVE",
"244 517 CURVE SMOOTH",
"223 517 LINE",
"216 481 LINE",
"247 481 LINE SMOOTH",
"296 481 OFFCURVE",
"321 450 OFFCURVE",
"321 408 CURVE SMOOTH",
"321 344 OFFCURVE",
"271 307 OFFCURVE",
"207 307 CURVE SMOOTH",
"152 307 OFFCURVE",
"128 332 OFFCURVE",
"110 376 CURVE",
"76 364 LINE",
"92 309 OFFCURVE",
"137 271 OFFCURVE",
"207 271 CURVE SMOOTH"
);
},
{
closed = 1;
nodes = (
"689 0 LINE",
"709 117 LINE",
"765 117 LINE",
"771 153 LINE",
"715 153 LINE",
"763 423 LINE",
"731 423 LINE",
"462 137 LINE",
"458 117 LINE",
"671 117 LINE",
"651 0 LINE"
);
},
{
closed = 1;
nodes = (
"520 153 LINE",
"714 358 LINE",
"677 153 LINE"
);
}
);
width = 794;
},
{
background = {
paths = (
{
closed = 1;
nodes = (
"256 -12 LINE",
"843 712 LINE",
"719 712 LINE",
"132 -12 LINE"
);
},
{
closed = 1;
nodes = (
"317 276 OFFCURVE",
"383 341 OFFCURVE",
"383 424 CURVE SMOOTH",
"383 461 OFFCURVE",
"364 489 OFFCURVE",
"334 502 CURVE",
"368 519 OFFCURVE",
"402 558 OFFCURVE",
"402 611 CURVE SMOOTH",
"402 665 OFFCURVE",
"365 712 OFFCURVE",
"293 712 CURVE SMOOTH",
"228 712 OFFCURVE",
"169 675 OFFCURVE",
"133 612 CURVE",
"215 578 LINE",
"228 600 OFFCURVE",
"241 614 OFFCURVE",
"266 614 CURVE SMOOTH",
"285 614 OFFCURVE",
"295 602 OFFCURVE",
"295 586 CURVE SMOOTH",
"295 566 OFFCURVE",
"282 546 OFFCURVE",
"249 546 CURVE SMOOTH",
"213 546 LINE",
"197 454 LINE",
"234 454 LINE SMOOTH",
"266 454 OFFCURVE",
"279 441 OFFCURVE",
"279 422 CURVE SMOOTH",
"279 395 OFFCURVE",
"260 374 OFFCURVE",
"230 374 CURVE SMOOTH",
"204 374 OFFCURVE",
"186 390 OFFCURVE",
"183 425 CURVE",
"82 399 LINE",
"92 322 OFFCURVE",
"137 276 OFFCURVE",
"212 276 CURVE SMOOTH"
);
},
{
closed = 1;
nodes = (
"744 0 LINE",
"758 80 LINE",
"812 80 LINE",
"828 172 LINE",
"774 172 LINE",
"818 422 LINE",
"722 422 LINE",
"477 152 LINE",
"464 80 LINE",
"661 80 LINE",
"647 0 LINE"
);
},
{
closed = 1;
nodes = (
"592 172 LINE",
"698 288 LINE",
"677 172 LINE"
);
}
);
};
hints = (
{
horizontal = 1;
origin = "{0, 1}";
target = down;
type = TopGhost;
},
{
horizontal = 1;
origin = "{0, 0}";
target = up;
type = BottomGhost;
},
{
origin = "{1, 6}";
target = "{1, 34}";
},
{
origin = "{1, 15}";
target = "{1, 28}";
},
{
horizontal = 1;
origin = "{1, 25}";
target = "{1, 18}";
},
{
horizontal = 1;
origin = "{1, 11}";
target = "{1, 10}";
},
{
horizontal = 1;
origin = "{1, 3}";
target = "{1, 37}";
},
{
origin = "{2, 9}";
target = "{2, 1}";
},
{
horizontal = 1;
origin = "{2, 1}";
target = "{2, 4}";
},
{
horizontal = 1;
origin = "{2, 5}";
target = down;
type = TopGhost;
},
{
horizontal = 1;
origin = "{2, 0}";
target = up;
type = BottomGhost;
}
);
layerId = "B410913A-4682-469F-9A16-EAAC4E2E8870";
paths = (
{
closed = 1;
nodes = (
"256 -12 LINE",
"843 712 LINE",
"719 712 LINE",
"132 -12 LINE"
);
},
{
closed = 1;
nodes = (
"317 276 OFFCURVE",
"383 341 OFFCURVE",
"383 424 CURVE SMOOTH",
"383 461 OFFCURVE",
"364 489 OFFCURVE",
"334 502 CURVE",
"368 519 OFFCURVE",
"402 558 OFFCURVE",
"402 611 CURVE SMOOTH",
"402 665 OFFCURVE",
"365 712 OFFCURVE",
"293 712 CURVE SMOOTH",
"228 712 OFFCURVE",
"169 675 OFFCURVE",
"133 612 CURVE",
"215 578 LINE",
"228 600 OFFCURVE",
"241 614 OFFCURVE",
"266 614 CURVE SMOOTH",
"285 614 OFFCURVE",
"295 602 OFFCURVE",
"295 586 CURVE SMOOTH",
"295 566 OFFCURVE",
"282 546 OFFCURVE",
"249 546 CURVE SMOOTH",
"213 546 LINE",
"197 454 LINE",
"234 454 LINE SMOOTH",
"266 454 OFFCURVE",
"279 441 OFFCURVE",
"279 422 CURVE SMOOTH",
"279 395 OFFCURVE",
"260 374 OFFCURVE",
"230 374 CURVE SMOOTH",
"204 374 OFFCURVE",
"186 390 OFFCURVE",
"183 425 CURVE",
"82 399 LINE",
"92 322 OFFCURVE",
"137 276 OFFCURVE",
"212 276 CURVE SMOOTH"
);
},
{
closed = 1;
nodes = (
"744 0 LINE",
"758 80 LINE",
"812 80 LINE",
"828 172 LINE",
"774 172 LINE",
"818 422 LINE",
"722 422 LINE",
"477 152 LINE",
"464 80 LINE",
"661 80 LINE",
"647 0 LINE"
);
},
{
closed = 1;
nodes = (
"592 172 LINE",
"698 288 LINE",
"677 172 LINE"
);
}
);
width = 836;
},
{
hints = (
{
horizontal = 1;
origin = "{0, 1}";
target = down;
type = TopGhost;
},
{
horizontal = 1;
origin = "{0, 0}";
target = up;
type = BottomGhost;
},
{
origin = "{1, 6}";
target = "{1, 34}";
},
{
origin = "{1, 15}";
target = "{1, 28}";
},
{
horizontal = 1;
origin = "{1, 25}";
target = "{1, 18}";
},
{
horizontal = 1;
origin = "{1, 11}";
target = "{1, 10}";
},
{
horizontal = 1;
origin = "{1, 3}";
target = "{1, 37}";
},
{
origin = "{2, 9}";
target = "{2, 1}";
},
{
horizontal = 1;
origin = "{2, 1}";
target = "{2, 4}";
},
{
horizontal = 1;
origin = "{2, 5}";
target = down;
type = TopGhost;
},
{
horizontal = 1;
origin = "{2, 0}";
target = up;
type = BottomGhost;
}
);
layerId = "DEEEE81F-2F80-4306-8755-EEA92C96C68A";
paths = (
{
closed = 1;
nodes = (
"268 -12 LINE",
"855 712 LINE",
"716 712 LINE",
"129 -12 LINE"
);
},
{
closed = 1;
nodes = (
"321 278 OFFCURVE",
"386 344 OFFCURVE",
"386 425 CURVE SMOOTH",
"386 461 OFFCURVE",
"367 488 OFFCURVE",
"338 501 CURVE",
"370 518 OFFCURVE",
"405 555 OFFCURVE",
"405 609 CURVE SMOOTH",
"405 663 OFFCURVE",
"369 712 OFFCURVE",
"295 712 CURVE SMOOTH",
"229 712 OFFCURVE",
"171 677 OFFCURVE",
"133 611 CURVE",
"224 573 LINE",
"235 592 OFFCURVE",
"242 602 OFFCURVE",
"264 602 CURVE SMOOTH",
"279 602 OFFCURVE",
"287 594 OFFCURVE",
"287 581 CURVE SMOOTH",
"287 566 OFFCURVE",
"277 552 OFFCURVE",
"249 552 CURVE SMOOTH",
"209 552 LINE",
"191 450 LINE",
"229 450 LINE SMOOTH",
"260 450 OFFCURVE",
"272 442 OFFCURVE",
"272 426 CURVE SMOOTH",
"272 404 OFFCURVE",
"256 388 OFFCURVE",
"233 388 CURVE SMOOTH",
"211 388 OFFCURVE",
"195 401 OFFCURVE",
"194 432 CURVE",
"82 406 LINE",
"91 325 OFFCURVE",
"137 278 OFFCURVE",
"213 278 CURVE SMOOTH"
);
},
{
closed = 1;
nodes = (
"755 0 LINE",
"768 73 LINE",
"823 73 LINE",
"841 175 LINE",
"786 175 LINE",
"829 422 LINE",
"720 422 LINE",
"481 156 LINE",
"466 73 LINE",
"662 73 LINE",
"649 0 LINE"
);
},
{
closed = 1;
nodes = (
"604 175 LINE",
"698 277 LINE",
"679 175 LINE"
);
}
);
width = 848;
}
);
unicode = 00BE;
},
{
glyphname = threesuperior;
lastChange = "2016-11-19 05:50:03 +0000";
layers = (
{
background = {
paths = (
{
closed = 1;
nodes = (
"111 560 LINE",
"123 485 OFFCURVE",
"167 437 OFFCURVE",
"255 437 CURVE SMOOTH",
"350 437 OFFCURVE",
"412 498 OFFCURVE",
"412 574 CURVE SMOOTH",
"412 619 OFFCURVE",
"387 652 OFFCURVE",
"362 663 CURVE",
"396 680 OFFCURVE",
"431 719 OFFCURVE",
"431 772 CURVE SMOOTH",
"431 826 OFFCURVE",
"388 873 OFFCURVE",
"321 873 CURVE SMOOTH",
"251 873 OFFCURVE",
"197 836 OFFCURVE",
"161 773 CURVE",
"243 739 LINE",
"256 761 OFFCURVE",
"273 775 OFFCURVE",
"293 775 CURVE SMOOTH",
"311 775 OFFCURVE",
"323 763 OFFCURVE",
"323 747 CURVE SMOOTH",
"323 728 OFFCURVE",
"308 707 OFFCURVE",
"276 707 CURVE SMOOTH",
"242 707 LINE",
"225 615 LINE",
"263 615 LINE SMOOTH",
"292 615 OFFCURVE",
"307 601 OFFCURVE",
"307 576 CURVE SMOOTH",
"307 553 OFFCURVE",
"290 535 OFFCURVE",
"261 535 CURVE SMOOTH",
"235 535 OFFCURVE",
"214 551 OFFCURVE",
"211 586 CURVE"
);
}
);
};
hints = (
{
origin = "{0, 25}";
target = "{0, 12}";
},
{
origin = "{0, 34}";
target = "{0, 6}";
},
{
horizontal = 1;
origin = "{0, 3}";
target = "{0, 37}";
},
{
horizontal = 1;
origin = "{0, 30}";
target = "{0, 29}";
},
{
horizontal = 1;
origin = "{0, 22}";
target = "{0, 15}";
}
);
layerId = UUID0;
paths = (
{
closed = 1;
nodes = (
"112 548 LINE",
"124 480 OFFCURVE",
"167 435 OFFCURVE",
"248 435 CURVE SMOOTH",
"341 435 OFFCURVE",
"407 495 OFFCURVE",
"407 579 CURVE SMOOTH",
"407 622 OFFCURVE",
"384 654 OFFCURVE",
"355 665 CURVE",
"393 683 OFFCURVE",
"426 726 OFFCURVE",
"426 776 CURVE SMOOTH",
"426 831 OFFCURVE",
"383 873 OFFCURVE",
"318 873 CURVE SMOOTH",
"252 873 OFFCURVE",
"195 833 OFFCURVE",
"162 775 CURVE",
"227 749 LINE",
"244 778 OFFCURVE",
"270 799 OFFCURVE",
"298 799 CURVE SMOOTH",
"326 799 OFFCURVE",
"340 779 OFFCURVE",
"340 757 CURVE SMOOTH",
"340 728 OFFCURVE",
"321 695 OFFCURVE",
"279 695 CURVE SMOOTH",
"251 695 LINE",
"238 624 LINE",
"274 624 LINE SMOOTH",
"306 624 OFFCURVE",
"323 601 OFFCURVE",
"323 573 CURVE SMOOTH",
"323 537 OFFCURVE",
"298 509 OFFCURVE",
"255 509 CURVE SMOOTH",
"220 509 OFFCURVE",
"197 531 OFFCURVE",
"190 573 CURVE"
);
}
);
width = 332;
},
{
background = {
paths = (
{
closed = 1;
nodes = (
"111 560 LINE",
"123 485 OFFCURVE",
"167 437 OFFCURVE",
"255 437 CURVE SMOOTH",
"350 437 OFFCURVE",
"412 498 OFFCURVE",
"412 574 CURVE SMOOTH",
"412 619 OFFCURVE",
"387 652 OFFCURVE",
"362 663 CURVE",
"396 680 OFFCURVE",
"431 719 OFFCURVE",
"431 772 CURVE SMOOTH",
"431 826 OFFCURVE",
"388 873 OFFCURVE",
"321 873 CURVE SMOOTH",
"251 873 OFFCURVE",
"197 836 OFFCURVE",
"161 773 CURVE",
"243 739 LINE",
"256 761 OFFCURVE",
"273 775 OFFCURVE",
"293 775 CURVE SMOOTH",
"311 775 OFFCURVE",
"323 763 OFFCURVE",
"323 747 CURVE SMOOTH",
"323 728 OFFCURVE",
"308 707 OFFCURVE",
"276 707 CURVE SMOOTH",
"242 707 LINE",
"225 615 LINE",
"263 615 LINE SMOOTH",
"292 615 OFFCURVE",
"307 601 OFFCURVE",
"307 576 CURVE SMOOTH",
"307 553 OFFCURVE",
"290 535 OFFCURVE",
"261 535 CURVE SMOOTH",
"235 535 OFFCURVE",
"214 551 OFFCURVE",
"211 586 CURVE"
);
}
);
};
hints = (
{
origin = "{0, 25}";
target = "{0, 12}";
},
{
origin = "{0, 34}";
target = "{0, 6}";
},
{
horizontal = 1;
origin = "{0, 3}";
target = "{0, 37}";
},
{
horizontal = 1;
origin = "{0, 30}";
target = "{0, 29}";
},
{
horizontal = 1;
origin = "{0, 22}";
target = "{0, 15}";
}
);
layerId = "03594D1A-E940-4CFB-8F8F-75A73B5E45C4";
paths = (
{
closed = 1;
nodes = (
"138 537 LINE",
"151 476 OFFCURVE",
"193 434 OFFCURVE",
"266 434 CURVE SMOOTH",
"358 434 OFFCURVE",
"428 492 OFFCURVE",
"428 584 CURVE SMOOTH",
"428 625 OFFCURVE",
"406 656 OFFCURVE",
"373 668 CURVE",
"416 686 OFFCURVE",
"446 733 OFFCURVE",
"446 780 CURVE SMOOTH",
"446 837 OFFCURVE",
"404 873 OFFCURVE",
"341 873 CURVE SMOOTH",
"278 873 OFFCURVE",
"219 831 OFFCURVE",
"188 777 CURVE",
"236 759 LINE",
"257 795 OFFCURVE",
"292 823 OFFCURVE",
"328 823 CURVE SMOOTH",
"367 823 OFFCURVE",
"383 795 OFFCURVE",
"383 767 CURVE SMOOTH",
"383 728 OFFCURVE",
"360 684 OFFCURVE",
"307 684 CURVE SMOOTH",
"286 684 LINE",
"277 634 LINE",
"310 634 LINE SMOOTH",
"346 634 OFFCURVE",
"365 602 OFFCURVE",
"365 570 CURVE SMOOTH",
"365 521 OFFCURVE",
"331 484 OFFCURVE",
"274 484 CURVE SMOOTH",
"231 484 OFFCURVE",
"205 512 OFFCURVE",
"195 560 CURVE"
);
}
);
width = 374;
},
{
background = {
paths = (
{
closed = 1;
nodes = (
"93 526 LINE",
"110 470 OFFCURVE",
"149 433 OFFCURVE",
"221 433 CURVE SMOOTH",
"301 433 OFFCURVE",
"375 485 OFFCURVE",
"375 571 CURVE SMOOTH",
"375 620 OFFCURVE",
"350 654 OFFCURVE",
"309 664 CURVE",
"358 682 OFFCURVE",
"388 730 OFFCURVE",
"388 778 CURVE SMOOTH",
"388 839 OFFCURVE",
"346 874 OFFCURVE",
"285 874 CURVE SMOOTH",
"225 874 OFFCURVE",
"175 841 OFFCURVE",
"145 788 CURVE",
"177 774 LINE",
"201 812 OFFCURVE",
"233 838 OFFCURVE",
"280 838 CURVE SMOOTH",
"327 838 OFFCURVE",
"349 810 OFFCURVE",
"349 773 CURVE SMOOTH",
"349 725 OFFCURVE",
"310 679 OFFCURVE",
"256 679 CURVE SMOOTH",
"235 679 LINE",
"229 643 LINE",
"260 643 LINE SMOOTH",
"311 643 OFFCURVE",
"337 611 OFFCURVE",
"337 567 CURVE SMOOTH",
"337 505 OFFCURVE",
"289 469 OFFCURVE",
"226 469 CURVE SMOOTH",
"171 469 OFFCURVE",
"145 495 OFFCURVE",
"130 539 CURVE"
);
}
);
};
hints = (
{
origin = "{0, 25}";
target = "{0, 12}";
},
{
origin = "{0, 34}";
target = "{0, 6}";
},
{
horizontal = 1;
origin = "{0, 3}";
target = "{0, 37}";
},
{
horizontal = 1;
origin = "{0, 30}";
target = "{0, 29}";
},
{
horizontal = 1;
origin = "{0, 22}";
target = "{0, 15}";
}
);
layerId = "42555ED7-786B-4551-A9FC-B380F510FD49";
paths = (
{
closed = 1;
nodes = (
"100 526 LINE",
"115 473 OFFCURVE",
"155 433 OFFCURVE",
"229 433 CURVE SMOOTH",
"312 433 OFFCURVE",
"381 487 OFFCURVE",
"381 570 CURVE SMOOTH",
"381 622 OFFCURVE",
"357 654 OFFCURVE",
"318 664 CURVE",
"369 683 OFFCURVE",
"401 728 OFFCURVE",
"401 778 CURVE SMOOTH",
"401 836 OFFCURVE",
"357 874 OFFCURVE",
"298 874 CURVE SMOOTH",
"238 874 OFFCURVE",
"190 841 OFFCURVE",
"159 788 CURVE",
"190 774 LINE",
"215 812 OFFCURVE",
"248 838 OFFCURVE",
"295 838 CURVE SMOOTH",
"341 838 OFFCURVE",
"362 811 OFFCURVE",
"362 776 CURVE SMOOTH",
"362 726 OFFCURVE",
"321 679 OFFCURVE",
"266 679 CURVE SMOOTH",
"245 679 LINE",
"237 643 LINE",
"268 643 LINE SMOOTH",
"318 643 OFFCURVE",
"343 612 OFFCURVE",
"343 570 CURVE SMOOTH",
"343 506 OFFCURVE",
"293 469 OFFCURVE",
"229 469 CURVE SMOOTH",
"177 469 OFFCURVE",
"150 494 OFFCURVE",
"135 538 CURVE"
);
}
);
width = 343;
},
{
background = {
paths = (
{
closed = 1;
nodes = (
"243 739 LINE",
"256 761 OFFCURVE",
"270 775 OFFCURVE",
"295 775 CURVE SMOOTH",
"314 775 OFFCURVE",
"323 763 OFFCURVE",
"323 747 CURVE SMOOTH",
"323 727 OFFCURVE",
"310 707 OFFCURVE",
"278 707 CURVE SMOOTH",
"242 707 LINE",
"225 615 LINE",
"262 615 LINE SMOOTH",
"295 615 OFFCURVE",
"307 602 OFFCURVE",
"307 583 CURVE SMOOTH",
"307 556 OFFCURVE",
"288 535 OFFCURVE",
"258 535 CURVE SMOOTH",
"232 535 OFFCURVE",
"214 551 OFFCURVE",
"211 586 CURVE",
"111 560 LINE",
"120 483 OFFCURVE",
"165 437 OFFCURVE",
"240 437 CURVE SMOOTH",
"345 437 OFFCURVE",
"411 502 OFFCURVE",
"411 585 CURVE SMOOTH",
"411 622 OFFCURVE",
"393 650 OFFCURVE",
"362 663 CURVE",
"396 680 OFFCURVE",
"431 719 OFFCURVE",
"431 772 CURVE SMOOTH",
"431 826 OFFCURVE",
"393 873 OFFCURVE",
"321 873 CURVE SMOOTH",
"256 873 OFFCURVE",
"197 836 OFFCURVE",
"161 773 CURVE"
);
}
);
};
hints = (
{
origin = "{0, 25}";
target = "{0, 12}";
},
{
origin = "{0, 34}";
target = "{0, 6}";
},
{
horizontal = 1;
origin = "{0, 3}";
target = "{0, 37}";
},
{
horizontal = 1;
origin = "{0, 30}";
target = "{0, 29}";
},
{
horizontal = 1;
origin = "{0, 22}";
target = "{0, 15}";
}
);
layerId = "B410913A-4682-469F-9A16-EAAC4E2E8870";
paths = (
{
closed = 1;
nodes = (
"111 560 LINE",
"123 485 OFFCURVE",
"167 437 OFFCURVE",
"255 437 CURVE SMOOTH",
"350 437 OFFCURVE",
"412 498 OFFCURVE",
"412 574 CURVE SMOOTH",
"412 619 OFFCURVE",
"387 652 OFFCURVE",
"362 663 CURVE",
"396 680 OFFCURVE",
"431 719 OFFCURVE",
"431 772 CURVE SMOOTH",
"431 826 OFFCURVE",
"388 873 OFFCURVE",
"321 873 CURVE SMOOTH",
"251 873 OFFCURVE",
"197 836 OFFCURVE",
"161 773 CURVE",
"243 739 LINE",
"256 761 OFFCURVE",
"273 775 OFFCURVE",
"293 775 CURVE SMOOTH",
"311 775 OFFCURVE",
"323 763 OFFCURVE",
"323 747 CURVE SMOOTH",
"323 728 OFFCURVE",
"308 707 OFFCURVE",
"276 707 CURVE SMOOTH",
"242 707 LINE",
"225 615 LINE",
"263 615 LINE SMOOTH",
"292 615 OFFCURVE",
"307 601 OFFCURVE",
"307 576 CURVE SMOOTH",
"307 553 OFFCURVE",
"290 535 OFFCURVE",
"261 535 CURVE SMOOTH",
"235 535 OFFCURVE",
"214 551 OFFCURVE",
"211 586 CURVE"
);
}
);
width = 341;
},
{
hints = (
{
origin = "{0, 25}";
target = "{0, 12}";
},
{
origin = "{0, 34}";
target = "{0, 6}";
},
{
horizontal = 1;
origin = "{0, 3}";
target = "{0, 37}";
},
{
horizontal = 1;
origin = "{0, 30}";
target = "{0, 29}";
},
{
horizontal = 1;
origin = "{0, 22}";
target = "{0, 15}";
}
);
layerId = "DEEEE81F-2F80-4306-8755-EEA92C96C68A";
paths = (
{
closed = 1;
nodes = (
"111 566 LINE",
"123 488 OFFCURVE",
"167 438 OFFCURVE",
"259 438 CURVE SMOOTH",
"355 438 OFFCURVE",
"415 500 OFFCURVE",
"415 572 CURVE SMOOTH",
"415 618 OFFCURVE",
"389 651 OFFCURVE",
"366 662 CURVE",
"398 679 OFFCURVE",
"434 716 OFFCURVE",
"434 770 CURVE SMOOTH",
"434 824 OFFCURVE",
"391 873 OFFCURVE",
"323 873 CURVE SMOOTH",
"251 873 OFFCURVE",
"198 838 OFFCURVE",
"161 772 CURVE",
"251 734 LINE",
"262 753 OFFCURVE",
"275 763 OFFCURVE",
"291 763 CURVE SMOOTH",
"304 763 OFFCURVE",
"315 755 OFFCURVE",
"315 742 CURVE SMOOTH",
"315 728 OFFCURVE",
"302 713 OFFCURVE",
"275 713 CURVE SMOOTH",
"238 713 LINE",
"219 611 LINE",
"258 611 LINE SMOOTH",
"285 611 OFFCURVE",
"299 601 OFFCURVE",
"299 578 CURVE SMOOTH",
"299 561 OFFCURVE",
"286 548 OFFCURVE",
"264 548 CURVE SMOOTH",
"243 548 OFFCURVE",
"223 561 OFFCURVE",
"222 593 CURVE"
);
}
);
width = 346;
}
);
unicode = 00B3;
},
{
glyphname = twosuperior;
lastChange = "2016-11-19 05:50:03 +0000";
layers = (
{
background = {
paths = (
{
closed = 1;
nodes = (
"396 444 LINE",
"414 546 LINE",
"256 546 LINE",
"270 567 OFFCURVE",
"304 590 OFFCURVE",
"337 610 CURVE SMOOTH",
"427 664 OFFCURVE",
"454 696 OFFCURVE",
"454 757 CURVE SMOOTH",
"454 816 OFFCURVE",
"410 873 OFFCURVE",
"332 873 CURVE SMOOTH",
"254 873 OFFCURVE",
"190 822 OFFCURVE",
"156 748 CURVE",
"247 724 LINE",
"261 755 OFFCURVE",
"284 773 OFFCURVE",
"308 773 CURVE SMOOTH",
"329 773 OFFCURVE",
"340 761 OFFCURVE",
"340 743 CURVE SMOOTH",
"340 723 OFFCURVE",
"312 706 OFFCURVE",
"286 691 CURVE SMOOTH",
"163 620 OFFCURVE",
"122 559 OFFCURVE",
"101 444 CURVE"
);
}
);
};
hints = (
{
origin = "{0, 21}";
target = "{0, 8}";
},
{
horizontal = 1;
origin = "{0, 0}";
target = "{0, 1}";
},
{
horizontal = 1;
origin = "{0, 18}";
target = "{0, 11}";
}
);
layerId = UUID0;
paths = (
{
closed = 1;
nodes = (
"381 444 LINE",
"395 521 LINE",
"217 521 LINE",
"234 550 OFFCURVE",
"265 574 OFFCURVE",
"309 600 CURVE SMOOTH",
"405 656 OFFCURVE",
"439 691 OFFCURVE",
"439 760 CURVE SMOOTH",
"439 822 OFFCURVE",
"395 873 OFFCURVE",
"318 873 CURVE SMOOTH",
"241 873 OFFCURVE",
"187 826 OFFCURVE",
"158 760 CURVE",
"227 738 LINE",
"243 777 OFFCURVE",
"269 797 OFFCURVE",
"304 797 CURVE SMOOTH",
"338 797 OFFCURVE",
"352 775 OFFCURVE",
"352 753 CURVE SMOOTH",
"352 716 OFFCURVE",
"323 694 OFFCURVE",
"282 669 CURVE SMOOTH",
"174 605 OFFCURVE",
"121 555 OFFCURVE",
"101 444 CURVE"
);
}
);
width = 340;
},
{
background = {
paths = (
{
closed = 1;
nodes = (
"396 444 LINE",
"414 546 LINE",
"256 546 LINE",
"270 567 OFFCURVE",
"304 590 OFFCURVE",
"337 610 CURVE SMOOTH",
"427 664 OFFCURVE",
"454 696 OFFCURVE",
"454 757 CURVE SMOOTH",
"454 816 OFFCURVE",
"410 873 OFFCURVE",
"332 873 CURVE SMOOTH",
"254 873 OFFCURVE",
"190 822 OFFCURVE",
"156 748 CURVE",
"247 724 LINE",
"261 755 OFFCURVE",
"284 773 OFFCURVE",
"308 773 CURVE SMOOTH",
"329 773 OFFCURVE",
"340 761 OFFCURVE",
"340 743 CURVE SMOOTH",
"340 723 OFFCURVE",
"312 706 OFFCURVE",
"286 691 CURVE SMOOTH",
"163 620 OFFCURVE",
"122 559 OFFCURVE",
"101 444 CURVE"
);
}
);
};
hints = (
{
origin = "{0, 21}";
target = "{0, 8}";
},
{
horizontal = 1;
origin = "{0, 0}";
target = "{0, 1}";
},
{
horizontal = 1;
origin = "{0, 18}";
target = "{0, 11}";
}
);
layerId = "03594D1A-E940-4CFB-8F8F-75A73B5E45C4";
paths = (
{
closed = 1;
nodes = (
"392 444 LINE",
"402 497 LINE",
"203 497 LINE",
"223 533 OFFCURVE",
"251 558 OFFCURVE",
"307 590 CURVE SMOOTH",
"408 648 OFFCURVE",
"449 686 OFFCURVE",
"449 764 CURVE SMOOTH",
"449 828 OFFCURVE",
"405 873 OFFCURVE",
"329 873 CURVE SMOOTH",
"254 873 OFFCURVE",
"209 830 OFFCURVE",
"186 773 CURVE",
"232 752 LINE",
"250 799 OFFCURVE",
"279 822 OFFCURVE",
"325 822 CURVE SMOOTH",
"373 822 OFFCURVE",
"389 789 OFFCURVE",
"389 763 CURVE SMOOTH",
"389 710 OFFCURVE",
"359 682 OFFCURVE",
"304 648 CURVE SMOOTH",
"211 590 OFFCURVE",
"146 551 OFFCURVE",
"127 444 CURVE"
);
}
);
width = 376;
},
{
background = {
paths = (
{
closed = 1;
nodes = (
"169 762 LINE",
"188 806 OFFCURVE",
"219 837 OFFCURVE",
"276 837 CURVE SMOOTH",
"332 837 OFFCURVE",
"353 798 OFFCURVE",
"353 762 CURVE SMOOTH",
"353 703 OFFCURVE",
"321 674 OFFCURVE",
"251 634 CURVE SMOOTH",
"176 591 OFFCURVE",
"106 544 OFFCURVE",
"91 444 CURVE",
"345 444 LINE",
"351 485 LINE",
"140 485 LINE",
"157 529 OFFCURVE",
"191 562 OFFCURVE",
"263 601 CURVE SMOOTH",
"351 649 OFFCURVE",
"392 688 OFFCURVE",
"392 769 CURVE SMOOTH",
"392 833 OFFCURVE",
"348 873 OFFCURVE",
"281 873 CURVE SMOOTH",
"211 873 OFFCURVE",
"159 828 OFFCURVE",
"138 775 CURVE"
);
}
);
};
hints = (
{
origin = "{0, 6}";
target = "{0, 21}";
},
{
horizontal = 1;
origin = "{0, 12}";
target = "{0, 15}";
},
{
horizontal = 1;
origin = "{0, 3}";
target = "{0, 24}";
}
);
layerId = "42555ED7-786B-4551-A9FC-B380F510FD49";
paths = (
{
closed = 1;
nodes = (
"348 444 LINE",
"354 485 LINE",
"145 485 LINE",
"163 529 OFFCURVE",
"197 561 OFFCURVE",
"270 600 CURVE SMOOTH",
"363 650 OFFCURVE",
"405 686 OFFCURVE",
"405 765 CURVE SMOOTH",
"405 829 OFFCURVE",
"357 873 OFFCURVE",
"291 873 CURVE SMOOTH",
"221 873 OFFCURVE",
"173 829 OFFCURVE",
"150 776 CURVE",
"183 762 LINE",
"203 806 OFFCURVE",
"234 837 OFFCURVE",
"291 837 CURVE SMOOTH",
"343 837 OFFCURVE",
"366 800 OFFCURVE",
"366 765 CURVE SMOOTH",
"366 703 OFFCURVE",
"333 675 OFFCURVE",
"259 634 CURVE SMOOTH",
"183 591 OFFCURVE",
"111 544 OFFCURVE",
"93 444 CURVE"
);
}
);
width = 346;
},
{
background = {
paths = (
{
closed = 1;
nodes = (
"396 444 LINE",
"414 546 LINE",
"244 546 LINE",
"258 568 OFFCURVE",
"285 587 OFFCURVE",
"320 605 CURVE SMOOTH",
"394 641 OFFCURVE",
"452 671 OFFCURVE",
"452 765 CURVE SMOOTH",
"452 828 OFFCURVE",
"407 873 OFFCURVE",
"332 873 CURVE SMOOTH",
"254 873 OFFCURVE",
"190 822 OFFCURVE",
"156 748 CURVE",
"247 724 LINE",
"261 755 OFFCURVE",
"280 773 OFFCURVE",
"309 773 CURVE SMOOTH",
"330 773 OFFCURVE",
"340 761 OFFCURVE",
"340 745 CURVE SMOOTH",
"340 719 OFFCURVE",
"313 705 OFFCURVE",
"286 691 CURVE SMOOTH",
"198 648 OFFCURVE",
"124 574 OFFCURVE",
"101 444 CURVE"
);
}
);
};
hints = (
{
origin = "{0, 21}";
target = "{0, 8}";
},
{
horizontal = 1;
origin = "{0, 0}";
target = "{0, 1}";
},
{
horizontal = 1;
origin = "{0, 18}";
target = "{0, 11}";
}
);
layerId = "B410913A-4682-469F-9A16-EAAC4E2E8870";
paths = (
{
closed = 1;
nodes = (
"396 444 LINE",
"414 546 LINE",
"256 546 LINE",
"270 567 OFFCURVE",
"304 590 OFFCURVE",
"337 610 CURVE SMOOTH",
"427 664 OFFCURVE",
"454 696 OFFCURVE",
"454 757 CURVE SMOOTH",
"454 816 OFFCURVE",
"410 873 OFFCURVE",
"332 873 CURVE SMOOTH",
"254 873 OFFCURVE",
"190 822 OFFCURVE",
"156 748 CURVE",
"247 724 LINE",
"261 755 OFFCURVE",
"284 773 OFFCURVE",
"308 773 CURVE SMOOTH",
"329 773 OFFCURVE",
"340 761 OFFCURVE",
"340 743 CURVE SMOOTH",
"340 723 OFFCURVE",
"312 706 OFFCURVE",
"286 691 CURVE SMOOTH",
"163 620 OFFCURVE",
"122 559 OFFCURVE",
"101 444 CURVE"
);
}
);
width = 355;
},
{
hints = (
{
origin = "{0, 21}";
target = "{0, 8}";
},
{
horizontal = 1;
origin = "{0, 0}";
target = "{0, 1}";
},
{
horizontal = 1;
origin = "{0, 18}";
target = "{0, 11}";
}
);
layerId = "DEEEE81F-2F80-4306-8755-EEA92C96C68A";
paths = (
{
closed = 1;
nodes = (
"404 444 LINE",
"424 559 LINE",
"276 559 LINE",
"288 576 OFFCURVE",
"324 598 OFFCURVE",
"351 615 CURVE SMOOTH",
"438 668 OFFCURVE",
"462 699 OFFCURVE",
"462 756 CURVE SMOOTH",
"462 813 OFFCURVE",
"418 873 OFFCURVE",
"339 873 CURVE SMOOTH",
"261 873 OFFCURVE",
"192 820 OFFCURVE",
"155 742 CURVE",
"257 717 LINE",
"270 744 OFFCURVE",
"292 761 OFFCURVE",
"310 761 CURVE SMOOTH",
"325 761 OFFCURVE",
"334 754 OFFCURVE",
"334 738 CURVE SMOOTH",
"334 727 OFFCURVE",
"307 712 OFFCURVE",
"288 702 CURVE SMOOTH",
"158 628 OFFCURVE",
"123 561 OFFCURVE",
"101 444 CURVE"
);
}
);
width = 363;
}
);
unicode = 00B2;
},
{
glyphname = brokenbar;
lastChange = "2016-12-02 21:53:30 +0000";
layers = (
{
background = {
paths = (
{
closed = 1;
nodes = (
"244 381 LINE",
"304 720 LINE",
"209 720 LINE",
"149 381 LINE"
);
},
{
closed = 1;
nodes = (
"156 -120 LINE",
"216 218 LINE",
"120 218 LINE",
"61 -120 LINE"
);
}
);
};
hints = (
{
place = "{209, 95}";
},
{
horizontal = 1;
place = "{-120, 21}";
target = up;
type = BottomGhost;
},
{
horizontal = 1;
place = "{720, -20}";
target = down;
type = TopGhost;
}
);
layerId = UUID0;
paths = (
{
closed = 1;
nodes = (
"249 366 LINE",
"249 825 LINE",
"145 825 LINE",
"145 366 LINE"
);
},
{
closed = 1;
nodes = (
"249 -225 LINE",
"249 234 LINE",
"145 234 LINE",
"145 -225 LINE"
);
}
);
width = 259;
},
{
background = {
paths = (
{
closed = 1;
nodes = (
"243 393 LINE",
"301 720 LINE",
"234 720 LINE",
"176 393 LINE"
);
},
{
closed = 1;
nodes = (
"153 -120 LINE",
"210 205 LINE",
"143 205 LINE",
"86 -120 LINE"
);
}
);
};
hints = (
{
place = "{234, 67}";
},
{
horizontal = 1;
place = "{-120, 21}";
target = up;
type = BottomGhost;
},
{
horizontal = 1;
place = "{720, -20}";
target = down;
type = TopGhost;
}
);
layerId = "03594D1A-E940-4CFB-8F8F-75A73B5E45C4";
paths = (
{
closed = 1;
nodes = (
"240 366 LINE",
"240 825 LINE",
"170 825 LINE",
"170 366 LINE"
);
},
{
closed = 1;
nodes = (
"240 -225 LINE",
"240 234 LINE",
"170 234 LINE",
"170 -225 LINE"
);
}
);
width = 280;
},
{
background = {
paths = (
{
closed = 1;
nodes = (
"190 393 LINE",
"247 720 LINE",
"210 720 LINE",
"153 393 LINE"
);
},
{
closed = 1;
nodes = (
"100 -120 LINE",
"157 205 LINE",
"120 205 LINE",
"63 -120 LINE"
);
}
);
};
hints = (
{
horizontal = 1;
place = "{-120, 21}";
target = up;
type = BottomGhost;
},
{
horizontal = 1;
place = "{720, -20}";
target = down;
type = TopGhost;
}
);
layerId = "42555ED7-786B-4551-A9FC-B380F510FD49";
paths = (
{
closed = 1;
nodes = (
"186 366 LINE",
"186 825 LINE",
"150 825 LINE",
"150 366 LINE"
);
},
{
closed = 1;
nodes = (
"186 -225 LINE",
"186 234 LINE",
"150 234 LINE",
"150 -225 LINE"
);
}
);
width = 246;
},
{
background = {
paths = (
{
closed = 1;
nodes = (
"271 369 LINE",
"333 720 LINE",
"209 720 LINE",
"147 369 LINE"
);
},
{
closed = 1;
nodes = (
"185 -120 LINE",
"247 231 LINE",
"123 231 LINE",
"61 -120 LINE"
);
}
);
};
hints = (
{
place = "{209, 124}";
},
{
horizontal = 1;
place = "{-120, 21}";
target = up;
type = BottomGhost;
},
{
horizontal = 1;
place = "{720, -20}";
target = down;
type = TopGhost;
}
);
layerId = "B410913A-4682-469F-9A16-EAAC4E2E8870";
paths = (
{
closed = 1;
nodes = (
"272 366 LINE",
"272 825 LINE",
"142 825 LINE",
"142 366 LINE"
);
},
{
closed = 1;
nodes = (
"272 -225 LINE",
"272 234 LINE",
"142 234 LINE",
"142 -225 LINE"
);
}
);
width = 288;
},
{
background = {
paths = (
{
closed = 1;
nodes = (
"285 363 LINE",
"348 720 LINE",
"209 720 LINE",
"146 363 LINE"
);
},
{
closed = 1;
nodes = (
"200 -120 LINE",
"263 238 LINE",
"125 238 LINE",
"61 -120 LINE"
);
}
);
};
hints = (
{
place = "{209, 139}";
},
{
horizontal = 1;
place = "{-120, 21}";
target = up;
type = BottomGhost;
},
{
horizontal = 1;
place = "{720, -20}";
target = down;
type = TopGhost;
}
);
layerId = "DEEEE81F-2F80-4306-8755-EEA92C96C68A";
paths = (
{
closed = 1;
nodes = (
"289 366 LINE",
"289 825 LINE",
"139 825 LINE",
"139 366 LINE"
);
},
{
closed = 1;
nodes = (
"289 -225 LINE",
"289 234 LINE",
"139 234 LINE",
"139 -225 LINE"
);
}
);
width = 303;
},
{
associatedMasterId = "DEEEE81F-2F80-4306-8755-EEA92C96C68A";
background = {
paths = (
{
closed = 1;
nodes = (
"285 363 LINE",
"348 720 LINE",
"209 720 LINE",
"146 363 LINE"
);
},
{
closed = 1;
nodes = (
"200 -120 LINE",
"263 238 LINE",
"125 238 LINE",
"61 -120 LINE"
);
}
);
};
hints = (
{
origin = "{0, 2}";
target = "{0, 1}";
},
{
horizontal = 1;
origin = "{1, 0}";
target = up;
type = BottomGhost;
},
{
horizontal = 1;
origin = "{0, 1}";
target = down;
type = TopGhost;
}
);
layerId = "DB701B4C-16B9-4E8F-B9F0-691018B2B9D7";
name = "Heavy Italic Nov 21 16, 09:49";
paths = (
{
closed = 1;
nodes = (
"285 363 LINE",
"348 720 LINE",
"209 720 LINE",
"146 363 LINE"
);
},
{
closed = 1;
nodes = (
"200 -120 LINE",
"263 238 LINE",
"125 238 LINE",
"61 -120 LINE"
);
}
);
width = 303;
},
{
associatedMasterId = "B410913A-4682-469F-9A16-EAAC4E2E8870";
background = {
paths = (
{
closed = 1;
nodes = (
"206 380 LINE",
"206 720 LINE",
"102 720 LINE",
"102 380 LINE"
);
},
{
closed = 1;
nodes = (
"206 -120 LINE",
"206 220 LINE",
"102 220 LINE",
"102 -120 LINE"
);
}
);
};
hints = (
{
origin = "{0, 2}";
target = "{0, 1}";
},
{
horizontal = 1;
origin = "{1, 0}";
target = up;
type = BottomGhost;
},
{
horizontal = 1;
origin = "{0, 1}";
target = down;
type = TopGhost;
}
);
layerId = "ADAF84BB-430F-4C64-AE67-BFAC2F3EA689";
name = "Bold Italic Nov 21 16, 09:49";
paths = (
{
closed = 1;
nodes = (
"271 369 LINE",
"333 720 LINE",
"209 720 LINE",
"147 369 LINE"
);
},
{
closed = 1;
nodes = (
"185 -120 LINE",
"247 231 LINE",
"123 231 LINE",
"61 -120 LINE"
);
}
);
width = 288;
},
{
associatedMasterId = UUID0;
background = {
paths = (
{
closed = 1;
nodes = (
"271 369 LINE",
"333 720 LINE",
"209 720 LINE",
"147 369 LINE"
);
},
{
closed = 1;
nodes = (
"185 -120 LINE",
"247 231 LINE",
"123 231 LINE",
"61 -120 LINE"
);
}
);
};
hints = (
{
origin = "{0, 2}";
target = "{0, 1}";
},
{
horizontal = 1;
origin = "{1, 0}";
target = up;
type = BottomGhost;
},
{
horizontal = 1;
origin = "{0, 1}";
target = down;
type = TopGhost;
}
);
layerId = "F6340209-EACD-4088-BBDB-41CC845BE180";
name = "Regular Italic Nov 21 16, 09:49";
paths = (
{
closed = 1;
nodes = (
"244 381 LINE",
"304 720 LINE",
"209 720 LINE",
"149 381 LINE"
);
},
{
closed = 1;
nodes = (
"156 -120 LINE",
"216 218 LINE",
"120 218 LINE",
"61 -120 LINE"
);
}
);
width = 259;
},
{
associatedMasterId = "03594D1A-E940-4CFB-8F8F-75A73B5E45C4";
background = {
paths = (
{
closed = 1;
nodes = (
"271 369 LINE",
"333 720 LINE",
"209 720 LINE",
"147 369 LINE"
);
},
{
closed = 1;
nodes = (
"185 -120 LINE",
"247 231 LINE",
"123 231 LINE",
"61 -120 LINE"
);
}
);
};
hints = (
{
origin = "{0, 2}";
target = "{0, 1}";
},
{
horizontal = 1;
origin = "{1, 0}";
target = up;
type = BottomGhost;
},
{
horizontal = 1;
origin = "{0, 1}";
target = down;
type = TopGhost;
}
);
layerId = "A97BACC6-E253-4149-968A-92F3C1AEFF62";
name = "Light Italic Nov 21 16, 09:49";
paths = (
{
closed = 1;
nodes = (
"243 393 LINE",
"301 720 LINE",
"234 720 LINE",
"176 393 LINE"
);
},
{
closed = 1;
nodes = (
"153 -120 LINE",
"210 205 LINE",
"143 205 LINE",
"86 -120 LINE"
);
}
);
width = 280;
},
{
associatedMasterId = "42555ED7-786B-4551-A9FC-B380F510FD49";
background = {
paths = (
{
closed = 1;
nodes = (
"188 393 LINE",
"234 720 LINE",
"198 720 LINE",
"152 393 LINE"
);
},
{
closed = 1;
nodes = (
"116 -120 LINE",
"162 205 LINE",
"126 205 LINE",
"80 -120 LINE"
);
}
);
};
hints = (
{
horizontal = 1;
origin = "{1, 0}";
target = up;
type = BottomGhost;
},
{
horizontal = 1;
origin = "{0, 1}";
target = down;
type = TopGhost;
}
);
layerId = "F0956D6E-4D97-4701-84A4-31EC0D9E5EEA";
name = "Thin Italic Nov 21 16, 09:49";
paths = (
{
closed = 1;
nodes = (
"190 393 LINE",
"247 720 LINE",
"210 720 LINE",
"153 393 LINE"
);
},
{
closed = 1;
nodes = (
"100 -120 LINE",
"157 205 LINE",
"120 205 LINE",
"63 -120 LINE"
);
}
);
width = 246;
}
);
unicode = 00A6;
},
{
glyphname = minus;
lastChange = "2016-11-19 05:50:03 +0000";
layers = (
{
background = {
paths = (
{
closed = 1;
nodes = (
"145 280 LINE",
"574 280 LINE",
"574 406 LINE",
"145 406 LINE"
);
}
);
};
hints = (
{
horizontal = 1;
origin = "{0, 0}";
target = "{0, 3}";
}
);
layerId = UUID0;
paths = (
{
closed = 1;
nodes = (
"135 294 LINE",
"585 294 LINE",
"585 391 LINE",
"135 391 LINE"
);
}
);
width = 605;
},
{
background = {
paths = (
{
closed = 1;
nodes = (
"145 280 LINE",
"574 280 LINE",
"574 406 LINE",
"145 406 LINE"
);
}
);
};
hints = (
{
horizontal = 1;
origin = "{0, 0}";
target = "{0, 3}";
}
);
layerId = "03594D1A-E940-4CFB-8F8F-75A73B5E45C4";
paths = (
{
closed = 1;
nodes = (
"151 308 LINE",
"621 308 LINE",
"621 376 LINE",
"151 376 LINE"
);
}
);
width = 655;
},
{
background = {
paths = (
{
closed = 1;
nodes = (
"590 324 LINE",
"595 360 LINE",
"125 360 LINE",
"120 324 LINE"
);
}
);
};
hints = (
{
horizontal = 1;
origin = "{0, 0}";
target = "{0, 1}";
}
);
layerId = "42555ED7-786B-4551-A9FC-B380F510FD49";
paths = (
{
closed = 1;
nodes = (
"603 324 LINE",
"603 360 LINE",
"133 360 LINE",
"133 324 LINE"
);
}
);
width = 636;
},
{
background = {
paths = (
{
closed = 1;
nodes = (
"134 280 LINE",
"585 280 LINE",
"585 406 LINE",
"134 406 LINE"
);
}
);
};
hints = (
{
horizontal = 1;
origin = "{0, 0}";
target = "{0, 3}";
}
);
layerId = "B410913A-4682-469F-9A16-EAAC4E2E8870";
paths = (
{
closed = 1;
nodes = (
"145 280 LINE",
"574 280 LINE",
"574 406 LINE",
"145 406 LINE"
);
}
);
width = 605;
},
{
hints = (
{
horizontal = 1;
origin = "{0, 0}";
target = "{0, 3}";
}
);
layerId = "DEEEE81F-2F80-4306-8755-EEA92C96C68A";
paths = (
{
closed = 1;
nodes = (
"150 273 LINE",
"569 273 LINE",
"569 414 LINE",
"150 414 LINE"
);
}
);
width = 605;
}
);
unicode = 2212;
},
{
glyphname = multiply;
lastChange = "2016-11-19 05:50:03 +0000";
layers = (
{
background = {
paths = (
{
closed = 1;
nodes = (
"504 107 LINE",
"596 199 LINE",
"452 342 LINE",
"597 486 LINE",
"502 580 LINE",
"359 436 LINE",
"215 579 LINE",
"124 488 LINE",
"267 344 LINE",
"123 201 LINE",
"217 106 LINE",
"361 251 LINE"
);
}
);
};
hints = (
{
horizontal = 1;
origin = "{0, 4}";
target = down;
type = TopGhost;
},
{
horizontal = 1;
origin = "{0, 10}";
target = up;
type = BottomGhost;
}
);
layerId = UUID0;
paths = (
{
closed = 1;
nodes = (
"519 114 LINE",
"589 184 LINE",
"431 342 LINE",
"590 499 LINE",
"517 571 LINE",
"360 413 LINE",
"203 570 LINE",
"133 501 LINE",
"291 344 LINE",
"132 186 LINE",
"205 113 LINE",
"362 272 LINE"
);
}
);
width = 605;
},
{
background = {
paths = (
{
closed = 1;
nodes = (
"504 107 LINE",
"596 199 LINE",
"452 342 LINE",
"597 486 LINE",
"502 580 LINE",
"359 436 LINE",
"215 579 LINE",
"124 488 LINE",
"267 344 LINE",
"123 201 LINE",
"217 106 LINE",
"361 251 LINE"
);
}
);
};
hints = (
{
horizontal = 1;
origin = "{0, 4}";
target = down;
type = TopGhost;
},
{
horizontal = 1;
origin = "{0, 10}";
target = up;
type = BottomGhost;
}
);
layerId = "03594D1A-E940-4CFB-8F8F-75A73B5E45C4";
paths = (
{
closed = 1;
nodes = (
"560 122 LINE",
"607 169 LINE",
"436 342 LINE",
"608 512 LINE",
"558 563 LINE",
"387 391 LINE",
"216 562 LINE",
"167 514 LINE",
"340 344 LINE",
"166 171 LINE",
"218 121 LINE",
"389 293 LINE"
);
}
);
width = 655;
},
{
background = {
paths = (
{
closed = 1;
nodes = (
"517 127 LINE",
"545 151 LINE",
"382 341 LINE",
"598 531 LINE",
"577 555 LINE",
"361 366 LINE",
"199 555 LINE",
"170 531 LINE",
"334 341 LINE",
"117 151 LINE",
"139 127 LINE",
"354 316 LINE"
);
}
);
};
hints = (
{
horizontal = 1;
origin = "{0, 4}";
target = down;
type = TopGhost;
},
{
horizontal = 1;
origin = "{0, 0}";
target = up;
type = BottomGhost;
}
);
layerId = "42555ED7-786B-4551-A9FC-B380F510FD49";
paths = (
{
closed = 1;
nodes = (
"557 127 LINE",
"582 151 LINE",
"392 341 LINE",
"582 531 LINE",
"557 555 LINE",
"368 366 LINE",
"179 555 LINE",
"154 531 LINE",
"344 341 LINE",
"154 151 LINE",
"179 127 LINE",
"368 316 LINE"
);
}
);
width = 636;
},
{
background = {
paths = (
{
closed = 1;
nodes = (
"508 103 LINE",
"600 195 LINE",
"452 342 LINE",
"601 490 LINE",
"506 584 LINE",
"359 436 LINE",
"211 583 LINE",
"120 492 LINE",
"267 344 LINE",
"119 197 LINE",
"213 102 LINE",
"361 251 LINE"
);
}
);
};
hints = (
{
horizontal = 1;
origin = "{0, 0}";
target = up;
type = BottomGhost;
},
{
horizontal = 1;
origin = "{0, 6}";
target = down;
type = TopGhost;
}
);
layerId = "B410913A-4682-469F-9A16-EAAC4E2E8870";
paths = (
{
closed = 1;
nodes = (
"504 107 LINE",
"596 199 LINE",
"452 342 LINE",
"597 486 LINE",
"502 580 LINE",
"359 436 LINE",
"215 579 LINE",
"124 488 LINE",
"267 344 LINE",
"123 201 LINE",
"217 106 LINE",
"361 251 LINE"
);
}
);
width = 605;
},
{
hints = (
{
horizontal = 1;
origin = "{0, 4}";
target = down;
type = TopGhost;
},
{
horizontal = 1;
origin = "{0, 10}";
target = up;
type = BottomGhost;
}
);
layerId = "DEEEE81F-2F80-4306-8755-EEA92C96C68A";
paths = (
{
closed = 1;
nodes = (
"497 104 LINE",
"600 207 LINE",
"463 342 LINE",
"601 480 LINE",
"495 585 LINE",
"359 448 LINE",
"221 584 LINE",
"120 482 LINE",
"255 344 LINE",
"119 209 LINE",
"223 103 LINE",
"361 241 LINE"
);
}
);
width = 605;
}
);
unicode = 00D7;
},
{
glyphname = exclam;
lastChange = "2016-11-19 05:50:03 +0000";
layers = (
{
background = {
paths = (
{
closed = 1;
nodes = (
"213 193 LINE",
"291 486 LINE",
"331 712 LINE",
"207 712 LINE",
"167 486 LINE",
"142 193 LINE"
);
},
{
closed = 1;
nodes = (
"199 -12 OFFCURVE",
"238 28 OFFCURVE",
"238 84 CURVE SMOOTH",
"238 122 OFFCURVE",
"211 153 OFFCURVE",
"165 153 CURVE SMOOTH",
"117 153 OFFCURVE",
"76 113 OFFCURVE",
"76 57 CURVE SMOOTH",
"76 19 OFFCURVE",
"104 -12 OFFCURVE",
"146 -12 CURVE SMOOTH"
);
}
);
};
hints = (
{
origin = "{0, 3}";
target = "{0, 2}";
},
{
horizontal = 1;
origin = "{0, 2}";
target = down;
type = TopGhost;
},
{
horizontal = 1;
origin = "{1, 0}";
target = "{1, 6}";
}
);
layerId = UUID0;
paths = (
{
closed = 1;
nodes = (
"184 193 LINE",
"265 490 LINE",
"304 712 LINE",
"208 712 LINE",
"168 490 LINE",
"143 193 LINE"
);
},
{
closed = 1;
nodes = (
"175 -13 OFFCURVE",
"212 25 OFFCURVE",
"212 71 CURVE SMOOTH",
"212 104 OFFCURVE",
"188 132 OFFCURVE",
"150 132 CURVE SMOOTH",
"107 132 OFFCURVE",
"69 94 OFFCURVE",
"69 48 CURVE SMOOTH",
"69 15 OFFCURVE",
"93 -13 OFFCURVE",
"129 -13 CURVE SMOOTH"
);
}
);
width = 259;
},
{
background = {
paths = (
{
closed = 1;
nodes = (
"213 193 LINE",
"291 486 LINE",
"331 712 LINE",
"207 712 LINE",
"167 486 LINE",
"142 193 LINE"
);
},
{
closed = 1;
nodes = (
"199 -12 OFFCURVE",
"238 28 OFFCURVE",
"238 84 CURVE SMOOTH",
"238 122 OFFCURVE",
"211 153 OFFCURVE",
"165 153 CURVE SMOOTH",
"117 153 OFFCURVE",
"76 113 OFFCURVE",
"76 57 CURVE SMOOTH",
"76 19 OFFCURVE",
"104 -12 OFFCURVE",
"146 -12 CURVE SMOOTH"
);
}
);
};
hints = (
{
origin = "{0, 3}";
target = "{0, 2}";
},
{
horizontal = 1;
origin = "{0, 2}";
target = down;
type = TopGhost;
},
{
horizontal = 1;
origin = "{1, 0}";
target = "{1, 6}";
}
);
layerId = "03594D1A-E940-4CFB-8F8F-75A73B5E45C4";
paths = (
{
closed = 1;
nodes = (
"181 193 LINE",
"264 495 LINE",
"303 712 LINE",
"234 712 LINE",
"195 495 LINE",
"170 193 LINE"
);
},
{
closed = 1;
nodes = (
"176 -14 OFFCURVE",
"211 22 OFFCURVE",
"211 58 CURVE SMOOTH",
"211 86 OFFCURVE",
"191 112 OFFCURVE",
"160 112 CURVE SMOOTH",
"122 112 OFFCURVE",
"88 76 OFFCURVE",
"88 40 CURVE SMOOTH",
"88 12 OFFCURVE",
"107 -14 OFFCURVE",
"138 -14 CURVE SMOOTH"
);
}
);
width = 280;
},
{
background = {
paths = (
{
closed = 1;
nodes = (
"149 193 LINE",
"199 460 LINE",
"243 712 LINE",
"205 712 LINE",
"161 460 LINE",
"139 193 LINE"
);
},
{
closed = 1;
nodes = (
"134 -14 OFFCURVE",
"149 1 OFFCURVE",
"149 19 CURVE SMOOTH",
"149 34 OFFCURVE",
"139 46 OFFCURVE",
"124 46 CURVE SMOOTH",
"106 46 OFFCURVE",
"90 30 OFFCURVE",
"90 12 CURVE SMOOTH",
"90 -3 OFFCURVE",
"101 -14 OFFCURVE",
"115 -14 CURVE SMOOTH"
);
}
);
};
hints = (
{
horizontal = 1;
origin = "{0, 2}";
target = down;
type = TopGhost;
},
{
horizontal = 1;
origin = "{1, 0}";
target = "{1, 6}";
}
);
layerId = "42555ED7-786B-4551-A9FC-B380F510FD49";
paths = (
{
closed = 1;
nodes = (
"157 193 LINE",
"208 460 LINE",
"252 712 LINE",
"213 712 LINE",
"169 460 LINE",
"147 193 LINE"
);
},
{
closed = 1;
nodes = (
"142 -14 OFFCURVE",
"157 1 OFFCURVE",
"157 19 CURVE SMOOTH",
"157 34 OFFCURVE",
"147 46 OFFCURVE",
"132 46 CURVE SMOOTH",
"114 46 OFFCURVE",
"98 30 OFFCURVE",
"98 12 CURVE SMOOTH",
"98 -3 OFFCURVE",
"109 -14 OFFCURVE",
"123 -14 CURVE SMOOTH"
);
}
);
width = 246;
},
{
hints = (
{
origin = "{1, 9}";
target = "{1, 3}";
},
{
horizontal = 1;
origin = "{0, 2}";
target = down;
type = TopGhost;
},
{
horizontal = 1;
origin = "{1, 0}";
target = "{1, 6}";
}
);
layerId = "B410913A-4682-469F-9A16-EAAC4E2E8870";
paths = (
{
closed = 1;
nodes = (
"213 193 LINE",
"291 486 LINE",
"331 712 LINE",
"207 712 LINE",
"167 486 LINE",
"142 193 LINE"
);
},
{
closed = 1;
nodes = (
"199 -12 OFFCURVE",
"238 28 OFFCURVE",
"238 84 CURVE SMOOTH",
"238 122 OFFCURVE",
"211 153 OFFCURVE",
"165 153 CURVE SMOOTH",
"117 153 OFFCURVE",
"76 113 OFFCURVE",
"76 57 CURVE SMOOTH",
"76 19 OFFCURVE",
"104 -12 OFFCURVE",
"146 -12 CURVE SMOOTH"
);
}
);
width = 288;
},
{
hints = (
{
origin = "{0, 3}";
target = "{0, 2}";
},
{
horizontal = 1;
origin = "{0, 2}";
target = down;
type = TopGhost;
},
{
horizontal = 1;
origin = "{1, 0}";
target = "{1, 6}";
}
);
layerId = "DEEEE81F-2F80-4306-8755-EEA92C96C68A";
paths = (
{
closed = 1;
nodes = (
"228 193 LINE",
"304 484 LINE",
"345 712 LINE",
"207 712 LINE",
"167 484 LINE",
"142 193 LINE"
);
},
{
closed = 1;
nodes = (
"211 -12 OFFCURVE",
"251 30 OFFCURVE",
"251 91 CURVE SMOOTH",
"251 131 OFFCURVE",
"223 164 OFFCURVE",
"173 164 CURVE SMOOTH",
"122 164 OFFCURVE",
"80 123 OFFCURVE",
"80 62 CURVE SMOOTH",
"80 21 OFFCURVE",
"110 -12 OFFCURVE",
"155 -12 CURVE SMOOTH"
);
}
);
width = 303;
}
);
unicode = 0021;
},
{
glyphname = quotedbl;
lastChange = "2016-11-19 05:50:03 +0000";
layers = (
{
background = {
paths = (
{
closed = 1;
nodes = (
"138 409 LINE",
"242 409 LINE",
"316 700 LINE",
"166 700 LINE"
);
},
{
closed = 1;
nodes = (
"332 409 LINE",
"436 409 LINE",
"510 700 LINE",
"360 700 LINE"
);
}
);
};
hints = (
{
place = "{0, 0}";
},
{
origin = "{1, 0}";
target = "{1, 2}";
},
{
horizontal = 1;
place = "{0, 21}";
target = up;
type = BottomGhost;
},
{
horizontal = 1;
origin = "{0, 1}";
target = down;
type = TopGhost;
}
);
layerId = UUID0;
paths = (
{
closed = 1;
nodes = (
"396 421 LINE",
"465 700 LINE",
"348 700 LINE",
"318 421 LINE"
);
},
{
closed = 1;
nodes = (
"213 421 LINE",
"283 700 LINE",
"166 700 LINE",
"136 421 LINE"
);
}
);
width = 385;
},
{
background = {
paths = (
{
closed = 1;
nodes = (
"138 409 LINE",
"242 409 LINE",
"316 700 LINE",
"166 700 LINE"
);
},
{
closed = 1;
nodes = (
"332 409 LINE",
"436 409 LINE",
"510 700 LINE",
"360 700 LINE"
);
}
);
};
hints = (
{
place = "{0, 0}";
},
{
origin = "{1, 0}";
target = "{1, 2}";
},
{
horizontal = 1;
place = "{0, 21}";
target = up;
type = BottomGhost;
},
{
horizontal = 1;
origin = "{0, 1}";
target = down;
type = TopGhost;
}
);
layerId = "03594D1A-E940-4CFB-8F8F-75A73B5E45C4";
paths = (
{
closed = 1;
nodes = (
"381 433 LINE",
"446 700 LINE",
"361 700 LINE",
"330 433 LINE"
);
},
{
closed = 1;
nodes = (
"210 433 LINE",
"275 700 LINE",
"191 700 LINE",
"160 433 LINE"
);
}
);
width = 391;
},
{
background = {
paths = (
{
closed = 1;
nodes = (
"121 433 LINE",
"159 433 LINE",
"197 700 LINE",
"159 700 LINE"
);
},
{
closed = 1;
nodes = (
"289 433 LINE",
"327 433 LINE",
"365 700 LINE",
"327 700 LINE"
);
}
);
};
hints = (
{
horizontal = 1;
origin = "{0, 0}";
target = up;
type = BottomGhost;
},
{
horizontal = 1;
origin = "{0, 2}";
target = down;
type = TopGhost;
}
);
layerId = "42555ED7-786B-4551-A9FC-B380F510FD49";
paths = (
{
closed = 1;
nodes = (
"330 433 LINE",
"377 700 LINE",
"339 700 LINE",
"292 433 LINE"
);
},
{
closed = 1;
nodes = (
"162 433 LINE",
"209 700 LINE",
"171 700 LINE",
"124 433 LINE"
);
}
);
width = 342;
},
{
background = {
paths = (
{
closed = 1;
nodes = (
"87 420 LINE",
"175 420 LINE",
"196 700 LINE",
"66 700 LINE"
);
},
{
closed = 1;
nodes = (
"287 420 LINE",
"375 420 LINE",
"396 700 LINE",
"266 700 LINE"
);
}
);
};
hints = (
{
place = "{0, 0}";
},
{
origin = "{1, 0}";
target = "{1, 2}";
},
{
horizontal = 1;
place = "{0, 21}";
target = up;
type = BottomGhost;
},
{
horizontal = 1;
origin = "{0, 1}";
target = down;
type = TopGhost;
}
);
layerId = "B410913A-4682-469F-9A16-EAAC4E2E8870";
paths = (
{
closed = 1;
nodes = (
"436 409 LINE",
"510 700 LINE",
"360 700 LINE",
"332 409 LINE"
);
},
{
closed = 1;
nodes = (
"242 409 LINE",
"316 700 LINE",
"166 700 LINE",
"138 409 LINE"
);
}
);
width = 430;
},
{
hints = (
{
place = "{0, 0}";
},
{
origin = "{1, 0}";
target = "{1, 2}";
},
{
horizontal = 1;
place = "{0, 21}";
target = up;
type = BottomGhost;
},
{
horizontal = 1;
origin = "{0, 1}";
target = down;
type = TopGhost;
}
);
layerId = "DEEEE81F-2F80-4306-8755-EEA92C96C68A";
paths = (
{
closed = 1;
nodes = (
"456 403 LINE",
"533 700 LINE",
"366 700 LINE",
"339 403 LINE"
);
},
{
closed = 1;
nodes = (
"257 403 LINE",
"333 700 LINE",
"166 700 LINE",
"139 403 LINE"
);
}
);
width = 453;
}
);
leftKerningGroup = quotedbl;
rightKerningGroup = quotedbl;
unicode = 0022;
},
{
glyphname = numbersign;
lastChange = "2016-11-19 05:50:03 +0000";
layers = (
{
background = {
paths = (
{
closed = 1;
nodes = (
"226 0 LINE",
"283 176 LINE",
"399 176 LINE",
"342 0 LINE",
"451 0 LINE",
"508 176 LINE",
"610 176 LINE",
"646 288 LINE",
"544 288 LINE",
"590 429 LINE",
"692 429 LINE",
"727 541 LINE",
"625 541 LINE",
"676 700 LINE",
"567 700 LINE",
"515 541 LINE",
"399 541 LINE",
"450 700 LINE",
"341 700 LINE",
"291 541 LINE",
"187 541 LINE",
"153 429 LINE",
"255 429 LINE",
"209 288 LINE",
"107 288 LINE",
"71 176 LINE",
"173 176 LINE",
"116 0 LINE"
);
},
{
closed = 1;
nodes = (
"364 429 LINE",
"480 429 LINE",
"435 288 LINE",
"319 288 LINE"
);
}
);
};
hints = (
{
horizontal = 1;
origin = "{0, 1}";
target = "{1, 3}";
},
{
horizontal = 1;
origin = "{0, 9}";
target = "{0, 12}";
},
{
horizontal = 1;
origin = "{0, 0}";
target = up;
type = BottomGhost;
},
{
horizontal = 1;
origin = "{0, 13}";
target = down;
type = TopGhost;
}
);
layerId = UUID0;
paths = (
{
closed = 1;
nodes = (
"209 0 LINE",
"271 190 LINE",
"397 190 LINE",
"335 0 LINE",
"423 0 LINE",
"484 190 LINE",
"591 190 LINE",
"619 277 LINE",
"512 277 LINE",
"565 437 LINE",
"674 437 LINE",
"702 523 LINE",
"591 523 LINE",
"648 700 LINE",
"561 700 LINE",
"503 523 LINE",
"378 523 LINE",
"435 700 LINE",
"353 700 LINE",
"291 523 LINE",
"184 523 LINE",
"157 437 LINE",
"264 437 LINE",
"211 277 LINE",
"103 277 LINE",
"73 190 LINE",
"184 190 LINE",
"122 0 LINE"
);
},
{
closed = 1;
nodes = (
"351 437 LINE",
"477 437 LINE",
"424 277 LINE",
"298 277 LINE"
);
}
);
width = 650;
},
{
background = {
paths = (
{
closed = 1;
nodes = (
"226 0 LINE",
"283 176 LINE",
"399 176 LINE",
"342 0 LINE",
"451 0 LINE",
"508 176 LINE",
"610 176 LINE",
"646 288 LINE",
"544 288 LINE",
"590 429 LINE",
"692 429 LINE",
"727 541 LINE",
"625 541 LINE",
"676 700 LINE",
"567 700 LINE",
"515 541 LINE",
"399 541 LINE",
"450 700 LINE",
"341 700 LINE",
"291 541 LINE",
"187 541 LINE",
"153 429 LINE",
"255 429 LINE",
"209 288 LINE",
"107 288 LINE",
"71 176 LINE",
"173 176 LINE",
"116 0 LINE"
);
},
{
closed = 1;
nodes = (
"364 429 LINE",
"480 429 LINE",
"435 288 LINE",
"319 288 LINE"
);
}
);
};
hints = (
{
horizontal = 1;
origin = "{0, 1}";
target = "{1, 3}";
},
{
horizontal = 1;
origin = "{0, 9}";
target = "{0, 12}";
},
{
horizontal = 1;
origin = "{0, 0}";
target = up;
type = BottomGhost;
},
{
horizontal = 1;
origin = "{0, 13}";
target = down;
type = TopGhost;
}
);
layerId = "03594D1A-E940-4CFB-8F8F-75A73B5E45C4";
paths = (
{
closed = 1;
nodes = (
"218 0 LINE",
"285 204 LINE",
"420 204 LINE",
"354 0 LINE",
"420 0 LINE",
"486 204 LINE",
"598 204 LINE",
"618 267 LINE",
"505 267 LINE",
"565 445 LINE",
"682 445 LINE",
"702 506 LINE",
"583 506 LINE",
"646 700 LINE",
"580 700 LINE",
"517 506 LINE",
"382 506 LINE",
"446 700 LINE",
"390 700 LINE",
"316 506 LINE",
"206 506 LINE",
"186 445 LINE",
"299 445 LINE",
"239 267 LINE",
"124 267 LINE",
"101 204 LINE",
"220 204 LINE",
"154 0 LINE"
);
},
{
closed = 1;
nodes = (
"363 445 LINE",
"499 445 LINE",
"439 267 LINE",
"303 267 LINE"
);
}
);
width = 679;
},
{
background = {
paths = (
{
closed = 1;
nodes = (
"173 0 LINE",
"238 218 LINE",
"425 218 LINE",
"360 0 LINE",
"402 0 LINE",
"467 218 LINE",
"585 218 LINE",
"596 254 LINE",
"477 254 LINE",
"539 457 LINE",
"657 457 LINE",
"667 493 LINE",
"549 493 LINE",
"611 700 LINE",
"569 700 LINE",
"507 493 LINE",
"320 493 LINE",
"382 700 LINE",
"344 700 LINE",
"282 493 LINE",
"162 493 LINE",
"151 457 LINE",
"272 457 LINE",
"210 254 LINE",
"90 254 LINE",
"79 218 LINE",
"200 218 LINE",
"134 0 LINE"
);
},
{
closed = 1;
nodes = (
"310 457 LINE",
"497 457 LINE",
"435 254 LINE",
"248 254 LINE"
);
}
);
};
hints = (
{
horizontal = 1;
origin = "{0, 1}";
target = "{1, 3}";
},
{
horizontal = 1;
origin = "{0, 9}";
target = "{0, 12}";
},
{
horizontal = 1;
origin = "{0, 0}";
target = up;
type = BottomGhost;
},
{
horizontal = 1;
origin = "{0, 13}";
target = down;
type = TopGhost;
}
);
layerId = "42555ED7-786B-4551-A9FC-B380F510FD49";
paths = (
{
closed = 1;
nodes = (
"181 0 LINE",
"246 218 LINE",
"433 218 LINE",
"368 0 LINE",
"410 0 LINE",
"475 218 LINE",
"593 218 LINE",
"604 254 LINE",
"485 254 LINE",
"547 457 LINE",
"665 457 LINE",
"675 493 LINE",
"557 493 LINE",
"619 700 LINE",
"577 700 LINE",
"515 493 LINE",
"328 493 LINE",
"390 700 LINE",
"352 700 LINE",
"290 493 LINE",
"170 493 LINE",
"159 457 LINE",
"280 457 LINE",
"218 254 LINE",
"98 254 LINE",
"87 218 LINE",
"208 218 LINE",
"142 0 LINE"
);
},
{
closed = 1;
nodes = (
"318 457 LINE",
"505 457 LINE",
"443 254 LINE",
"256 254 LINE"
);
}
);
width = 661;
},
{
background = {
paths = (
{
closed = 1;
nodes = (
"234 0 LINE",
"341 700 LINE",
"228 700 LINE",
"121 0 LINE"
);
},
{
closed = 1;
nodes = (
"642 429 LINE",
"658 541 LINE",
"96 541 LINE",
"80 429 LINE"
);
},
{
closed = 1;
nodes = (
"469 0 LINE",
"576 700 LINE",
"463 700 LINE",
"356 0 LINE"
);
},
{
closed = 1;
nodes = (
"604 176 LINE",
"620 288 LINE",
"58 288 LINE",
"42 176 LINE"
);
}
);
};
hints = (
{
horizontal = 1;
origin = "{0, 1}";
target = "{1, 3}";
},
{
horizontal = 1;
origin = "{0, 9}";
target = "{0, 12}";
},
{
horizontal = 1;
origin = "{0, 0}";
target = up;
type = BottomGhost;
},
{
horizontal = 1;
origin = "{0, 13}";
target = down;
type = TopGhost;
}
);
layerId = "B410913A-4682-469F-9A16-EAAC4E2E8870";
paths = (
{
closed = 1;
nodes = (
"226 0 LINE",
"283 176 LINE",
"399 176 LINE",
"342 0 LINE",
"451 0 LINE",
"508 176 LINE",
"610 176 LINE",
"646 288 LINE",
"544 288 LINE",
"590 429 LINE",
"692 429 LINE",
"727 541 LINE",
"625 541 LINE",
"676 700 LINE",
"567 700 LINE",
"515 541 LINE",
"399 541 LINE",
"450 700 LINE",
"341 700 LINE",
"291 541 LINE",
"187 541 LINE",
"153 429 LINE",
"255 429 LINE",
"209 288 LINE",
"107 288 LINE",
"71 176 LINE",
"173 176 LINE",
"116 0 LINE"
);
},
{
closed = 1;
nodes = (
"364 429 LINE",
"480 429 LINE",
"435 288 LINE",
"319 288 LINE"
);
}
);
width = 672;
},
{
hints = (
{
horizontal = 1;
origin = "{0, 1}";
target = "{1, 3}";
},
{
horizontal = 1;
origin = "{0, 9}";
target = "{0, 12}";
},
{
horizontal = 1;
origin = "{0, 0}";
target = up;
type = BottomGhost;
},
{
horizontal = 1;
origin = "{0, 13}";
target = down;
type = TopGhost;
}
);
layerId = "DEEEE81F-2F80-4306-8755-EEA92C96C68A";
paths = (
{
closed = 1;
nodes = (
"235 0 LINE",
"289 169 LINE",
"400 169 LINE",
"346 0 LINE",
"465 0 LINE",
"520 169 LINE",
"620 169 LINE",
"660 294 LINE",
"560 294 LINE",
"603 425 LINE",
"701 425 LINE",
"740 550 LINE",
"642 550 LINE",
"690 700 LINE",
"570 700 LINE",
"521 550 LINE",
"410 550 LINE",
"458 700 LINE",
"335 700 LINE",
"291 550 LINE",
"189 550 LINE",
"151 425 LINE",
"251 425 LINE",
"208 294 LINE",
"109 294 LINE",
"70 169 LINE",
"168 169 LINE",
"113 0 LINE"
);
},
{
closed = 1;
nodes = (
"371 425 LINE",
"482 425 LINE",
"441 294 LINE",
"330 294 LINE"
);
}
);
width = 683;
}
);
unicode = 0023;
},
{
glyphname = dollar;
lastChange = "2016-11-19 05:50:03 +0000";
layers = (
{
background = {
paths = (
{
closed = 1;
nodes = (
"595 552 LINE",
"585 606 OFFCURVE",
"553 676 OFFCURVE",
"474 702 CURVE",
"488 785 LINE",
"363 785 LINE",
"350 710 LINE",
"220 690 OFFCURVE",
"161 589 OFFCURVE",
"161 513 CURVE SMOOTH",
"161 300 OFFCURVE",
"424 330 OFFCURVE",
"424 205 CURVE SMOOTH",
"424 150 OFFCURVE",
"381 116 OFFCURVE",
"316 116 CURVE SMOOTH",
"252 116 OFFCURVE",
"218 159 OFFCURVE",
"203 222 CURVE",
"83 179 LINE",
"95 103 OFFCURVE",
"133 25 OFFCURVE",
"225 -2 CURVE",
"209 -92 LINE",
"344 -92 LINE",
"358 -9 LINE",
"499 16 OFFCURVE",
"562 112 OFFCURVE",
"562 220 CURVE SMOOTH",
"562 442 OFFCURVE",
"300 418 OFFCURVE",
"300 522 CURVE SMOOTH",
"300 557 OFFCURVE",
"331 586 OFFCURVE",
"379 586 CURVE SMOOTH",
"437 586 OFFCURVE",
"459 551 OFFCURVE",
"471 511 CURVE"
);
},
{
closed = 1;
nodes = (
"557 601 LINE",
"551 656 OFFCURVE",
"503 699 OFFCURVE",
"427 709 CURVE",
"441 789 LINE",
"373 789 LINE",
"359 710 LINE",
"239 698 OFFCURVE",
"160 618 OFFCURVE",
"160 522 CURVE SMOOTH",
"160 424 OFFCURVE",
"244 376 OFFCURVE",
"323 343 CURVE SMOOTH",
"390 315 OFFCURVE",
"448 271 OFFCURVE",
"448 200 CURVE SMOOTH",
"448 106 OFFCURVE",
"383 53 OFFCURVE",
"282 53 CURVE SMOOTH",
"205 53 OFFCURVE",
"154 93 OFFCURVE",
"138 154 CURVE",
"71 130 LINE",
"83 62 OFFCURVE",
"141 3 OFFCURVE",
"232 -9 CURVE",
"217 -98 LINE",
"285 -98 LINE",
"300 -10 LINE",
"426 1 OFFCURVE",
"520 83 OFFCURVE",
"520 216 CURVE SMOOTH",
"520 324 OFFCURVE",
"438 377 OFFCURVE",
"362 410 CURVE SMOOTH",
"294 439 OFFCURVE",
"231 474 OFFCURVE",
"231 536 CURVE SMOOTH",
"231 603 OFFCURVE",
"286 647 OFFCURVE",
"375 647 CURVE SMOOTH",
"442 647 OFFCURVE",
"481 616 OFFCURVE",
"491 579 CURVE"
);
}
);
};
hints = (
{
origin = "{0, 9}";
target = "{0, 31}";
},
{
origin = "{0, 5}";
target = "{0, 4}";
},
{
origin = "{0, 12}";
target = "{0, 28}";
},
{
horizontal = 1;
origin = "{0, 25}";
target = "{0, 15}";
},
{
horizontal = 1;
origin = "{0, 34}";
target = "{0, 6}";
},
{
horizontal = 1;
origin = "{0, 4}";
target = down;
type = TopGhost;
},
{
horizontal = 1;
origin = "{0, 23}";
target = up;
type = BottomGhost;
}
);
layerId = UUID0;
paths = (
{
closed = 1;
nodes = (
"314 -95 LINE",
"329 -10 LINE",
"462 8 OFFCURVE",
"541 97 OFFCURVE",
"541 218 CURVE SMOOTH",
"541 434 OFFCURVE",
"265 407 OFFCURVE",
"265 529 CURVE SMOOTH",
"265 580 OFFCURVE",
"308 616 OFFCURVE",
"377 616 CURVE SMOOTH",
"439 616 OFFCURVE",
"470 583 OFFCURVE",
"481 545 CURVE",
"576 576 LINE",
"568 631 OFFCURVE",
"528 687 OFFCURVE",
"450 705 CURVE",
"464 787 LINE",
"368 787 LINE",
"354 710 LINE",
"229 694 OFFCURVE",
"160 603 OFFCURVE",
"160 517 CURVE SMOOTH",
"160 314 OFFCURVE",
"436 349 OFFCURVE",
"436 202 CURVE SMOOTH",
"436 128 OFFCURVE",
"382 84 OFFCURVE",
"299 84 CURVE SMOOTH",
"228 84 OFFCURVE",
"186 126 OFFCURVE",
"170 188 CURVE",
"77 154 LINE",
"89 82 OFFCURVE",
"137 14 OFFCURVE",
"228 -6 CURVE",
"213 -95 LINE"
);
}
);
width = 558;
},
{
background = {
paths = (
{
closed = 1;
nodes = (
"595 552 LINE",
"585 606 OFFCURVE",
"553 676 OFFCURVE",
"474 702 CURVE",
"488 785 LINE",
"363 785 LINE",
"350 710 LINE",
"220 690 OFFCURVE",
"161 589 OFFCURVE",
"161 513 CURVE SMOOTH",
"161 300 OFFCURVE",
"424 330 OFFCURVE",
"424 205 CURVE SMOOTH",
"424 150 OFFCURVE",
"381 116 OFFCURVE",
"316 116 CURVE SMOOTH",
"252 116 OFFCURVE",
"218 159 OFFCURVE",
"203 222 CURVE",
"83 179 LINE",
"95 103 OFFCURVE",
"133 25 OFFCURVE",
"225 -2 CURVE",
"209 -92 LINE",
"344 -92 LINE",
"358 -9 LINE",
"499 16 OFFCURVE",
"562 112 OFFCURVE",
"562 220 CURVE SMOOTH",
"562 442 OFFCURVE",
"300 418 OFFCURVE",
"300 522 CURVE SMOOTH",
"300 557 OFFCURVE",
"331 586 OFFCURVE",
"379 586 CURVE SMOOTH",
"437 586 OFFCURVE",
"459 551 OFFCURVE",
"471 511 CURVE"
);
},
{
closed = 1;
nodes = (
"557 601 LINE",
"551 656 OFFCURVE",
"503 699 OFFCURVE",
"427 709 CURVE",
"441 789 LINE",
"373 789 LINE",
"359 710 LINE",
"239 698 OFFCURVE",
"160 618 OFFCURVE",
"160 522 CURVE SMOOTH",
"160 424 OFFCURVE",
"244 376 OFFCURVE",
"323 343 CURVE SMOOTH",
"390 315 OFFCURVE",
"448 271 OFFCURVE",
"448 200 CURVE SMOOTH",
"448 106 OFFCURVE",
"383 53 OFFCURVE",
"282 53 CURVE SMOOTH",
"205 53 OFFCURVE",
"154 93 OFFCURVE",
"138 154 CURVE",
"71 130 LINE",
"83 62 OFFCURVE",
"141 3 OFFCURVE",
"232 -9 CURVE",
"217 -98 LINE",
"285 -98 LINE",
"300 -10 LINE",
"426 1 OFFCURVE",
"520 83 OFFCURVE",
"520 216 CURVE SMOOTH",
"520 324 OFFCURVE",
"438 377 OFFCURVE",
"362 410 CURVE SMOOTH",
"294 439 OFFCURVE",
"231 474 OFFCURVE",
"231 536 CURVE SMOOTH",
"231 603 OFFCURVE",
"286 647 OFFCURVE",
"375 647 CURVE SMOOTH",
"442 647 OFFCURVE",
"481 616 OFFCURVE",
"491 579 CURVE"
);
}
);
};
hints = (
{
origin = "{0, 9}";
target = "{0, 31}";
},
{
origin = "{0, 5}";
target = "{0, 4}";
},
{
origin = "{0, 12}";
target = "{0, 28}";
},
{
horizontal = 1;
origin = "{0, 25}";
target = "{0, 15}";
},
{
horizontal = 1;
origin = "{0, 34}";
target = "{0, 6}";
},
{
horizontal = 1;
origin = "{0, 4}";
target = down;
type = TopGhost;
},
{
horizontal = 1;
origin = "{0, 24}";
target = up;
type = BottomGhost;
}
);
layerId = "03594D1A-E940-4CFB-8F8F-75A73B5E45C4";
paths = (
{
closed = 1;
nodes = (
"310 -98 LINE",
"325 -10 LINE",
"451 1 OFFCURVE",
"545 83 OFFCURVE",
"545 216 CURVE SMOOTH",
"545 427 OFFCURVE",
"256 396 OFFCURVE",
"256 536 CURVE SMOOTH",
"256 603 OFFCURVE",
"311 647 OFFCURVE",
"400 647 CURVE SMOOTH",
"467 647 OFFCURVE",
"506 616 OFFCURVE",
"516 579 CURVE",
"582 601 LINE",
"576 656 OFFCURVE",
"528 699 OFFCURVE",
"452 709 CURVE",
"466 789 LINE",
"398 789 LINE",
"384 710 LINE",
"264 698 OFFCURVE",
"185 618 OFFCURVE",
"185 522 CURVE SMOOTH",
"185 329 OFFCURVE",
"473 369 OFFCURVE",
"473 200 CURVE SMOOTH",
"473 106 OFFCURVE",
"408 53 OFFCURVE",
"307 53 CURVE SMOOTH",
"230 53 OFFCURVE",
"179 93 OFFCURVE",
"163 154 CURVE",
"96 130 LINE",
"108 62 OFFCURVE",
"166 3 OFFCURVE",
"257 -9 CURVE",
"242 -98 LINE"
);
}
);
width = 590;
},
{
background = {
paths = (
{
closed = 1;
nodes = (
"274 -98 LINE",
"289 -11 LINE",
"421 -7 OFFCURVE",
"514 74 OFFCURVE",
"514 204 CURVE SMOOTH",
"514 310 OFFCURVE",
"431 362 OFFCURVE",
"358 394 CURVE SMOOTH",
"285 426 OFFCURVE",
"213 462 OFFCURVE",
"213 538 CURVE SMOOTH",
"213 622 OFFCURVE",
"284 677 OFFCURVE",
"389 677 CURVE SMOOTH",
"464 677 OFFCURVE",
"503 643 OFFCURVE",
"517 585 CURVE",
"553 596 LINE",
"539 661 OFFCURVE",
"491 703 OFFCURVE",
"416 710 CURVE",
"430 789 LINE",
"394 789 LINE",
"380 712 LINE",
"250 707 OFFCURVE",
"175 631 OFFCURVE",
"175 533 CURVE SMOOTH",
"175 437 OFFCURVE",
"258 392 OFFCURVE",
"337 359 CURVE SMOOTH",
"410 328 OFFCURVE",
"475 278 OFFCURVE",
"475 197 CURVE SMOOTH",
"475 86 OFFCURVE",
"387 24 OFFCURVE",
"282 24 CURVE SMOOTH",
"191 24 OFFCURVE",
"142 68 OFFCURVE",
"120 148 CURVE",
"83 136 LINE",
"101 62 OFFCURVE",
"158 -3 OFFCURVE",
"253 -11 CURVE",
"238 -98 LINE"
);
}
);
};
hints = (
{
origin = "{0, 23}";
},
{
place = "{0, 0}";
},
{
origin = "{0, 12}";
},
{
horizontal = 1;
origin = "{0, 22}";
target = "{0, 15}";
},
{
horizontal = 1;
origin = "{0, 34}";
}
);
layerId = "42555ED7-786B-4551-A9FC-B380F510FD49";
paths = (
{
closed = 1;
nodes = (
"274 -98 LINE",
"289 -11 LINE",
"421 -7 OFFCURVE",
"514 74 OFFCURVE",
"514 204 CURVE SMOOTH",
"514 415 OFFCURVE",
"213 377 OFFCURVE",
"213 538 CURVE SMOOTH",
"213 622 OFFCURVE",
"284 677 OFFCURVE",
"389 677 CURVE SMOOTH",
"464 677 OFFCURVE",
"503 643 OFFCURVE",
"517 585 CURVE",
"553 596 LINE",
"539 661 OFFCURVE",
"491 703 OFFCURVE",
"416 710 CURVE",
"430 789 LINE",
"394 789 LINE",
"380 712 LINE",
"250 707 OFFCURVE",
"175 631 OFFCURVE",
"175 533 CURVE SMOOTH",
"175 343 OFFCURVE",
"475 382 OFFCURVE",
"475 197 CURVE SMOOTH",
"475 86 OFFCURVE",
"387 24 OFFCURVE",
"282 24 CURVE SMOOTH",
"191 24 OFFCURVE",
"142 68 OFFCURVE",
"120 148 CURVE",
"83 136 LINE",
"101 62 OFFCURVE",
"158 -3 OFFCURVE",
"253 -11 CURVE",
"238 -98 LINE"
);
}
);
width = 568;
},
{
background = {
paths = (
{
closed = 1;
nodes = (
"591 551 LINE",
"581 620 OFFCURVE",
"542 714 OFFCURVE",
"399 714 CURVE SMOOTH",
"234 714 OFFCURVE",
"163 591 OFFCURVE",
"163 509 CURVE SMOOTH",
"163 296 OFFCURVE",
"424 330 OFFCURVE",
"424 214 CURVE SMOOTH",
"424 153 OFFCURVE",
"378 116 OFFCURVE",
"316 116 CURVE SMOOTH",
"258 116 OFFCURVE",
"220 160 OFFCURVE",
"205 223 CURVE",
"79 178 LINE",
"92 85 OFFCURVE",
"145 -14 OFFCURVE",
"296 -14 CURVE SMOOTH",
"476 -14 OFFCURVE",
"559 100 OFFCURVE",
"559 228 CURVE SMOOTH",
"559 444 OFFCURVE",
"298 418 OFFCURVE",
"298 522 CURVE SMOOTH",
"298 557 OFFCURVE",
"332 584 OFFCURVE",
"384 584 CURVE SMOOTH",
"436 584 OFFCURVE",
"460 551 OFFCURVE",
"468 511 CURVE"
);
},
{
closed = 1;
nodes = (
"343 671 LINE",
"469 675 LINE",
"488 785 LINE",
"363 785 LINE"
);
},
{
closed = 1;
nodes = (
"233 43 LINE",
"209 -92 LINE",
"344 -92 LINE",
"366 40 LINE"
);
}
);
};
hints = (
{
origin = "{0, 9}";
target = "{0, 31}";
},
{
origin = "{0, 12}";
target = "{0, 28}";
},
{
origin = "{0, 5}";
target = "{0, 4}";
},
{
horizontal = 1;
origin = "{0, 25}";
target = "{0, 15}";
},
{
horizontal = 1;
origin = "{0, 34}";
target = "{0, 6}";
},
{
horizontal = 1;
origin = "{0, 4}";
target = down;
type = TopGhost;
},
{
horizontal = 1;
origin = "{0, 23}";
target = up;
type = BottomGhost;
}
);
layerId = "B410913A-4682-469F-9A16-EAAC4E2E8870";
paths = (
{
closed = 1;
nodes = (
"344 -92 LINE",
"358 -9 LINE",
"499 16 OFFCURVE",
"562 112 OFFCURVE",
"562 220 CURVE SMOOTH",
"562 442 OFFCURVE",
"300 418 OFFCURVE",
"300 522 CURVE SMOOTH",
"300 557 OFFCURVE",
"331 586 OFFCURVE",
"379 586 CURVE SMOOTH",
"437 586 OFFCURVE",
"459 551 OFFCURVE",
"471 511 CURVE",
"595 552 LINE",
"585 606 OFFCURVE",
"553 676 OFFCURVE",
"474 702 CURVE",
"488 785 LINE",
"363 785 LINE",
"350 710 LINE",
"220 690 OFFCURVE",
"161 589 OFFCURVE",
"161 513 CURVE SMOOTH",
"161 300 OFFCURVE",
"424 330 OFFCURVE",
"424 205 CURVE SMOOTH",
"424 150 OFFCURVE",
"381 116 OFFCURVE",
"316 116 CURVE SMOOTH",
"252 116 OFFCURVE",
"218 159 OFFCURVE",
"203 222 CURVE",
"83 179 LINE",
"95 103 OFFCURVE",
"133 25 OFFCURVE",
"225 -2 CURVE",
"209 -92 LINE"
);
}
);
width = 577;
},
{
hints = (
{
origin = "{0, 9}";
target = "{0, 31}";
},
{
origin = "{0, 5}";
target = "{0, 4}";
},
{
origin = "{0, 12}";
target = "{0, 28}";
},
{
horizontal = 1;
origin = "{0, 25}";
target = "{0, 15}";
},
{
horizontal = 1;
origin = "{0, 34}";
target = "{0, 6}";
},
{
horizontal = 1;
origin = "{0, 4}";
target = down;
type = TopGhost;
},
{
horizontal = 1;
origin = "{0, 23}";
target = up;
type = BottomGhost;
}
);
layerId = "DEEEE81F-2F80-4306-8755-EEA92C96C68A";
paths = (
{
closed = 1;
nodes = (
"359 -91 LINE",
"373 -9 LINE",
"518 20 OFFCURVE",
"573 120 OFFCURVE",
"573 221 CURVE SMOOTH",
"573 446 OFFCURVE",
"318 424 OFFCURVE",
"318 519 CURVE SMOOTH",
"318 546 OFFCURVE",
"343 571 OFFCURVE",
"380 571 CURVE SMOOTH",
"436 571 OFFCURVE",
"454 535 OFFCURVE",
"466 494 CURVE",
"605 540 LINE",
"594 594 OFFCURVE",
"566 671 OFFCURVE",
"486 701 CURVE",
"500 784 LINE",
"361 784 LINE",
"348 710 LINE",
"216 688 OFFCURVE",
"162 582 OFFCURVE",
"162 511 CURVE SMOOTH",
"162 293 OFFCURVE",
"418 321 OFFCURVE",
"418 207 CURVE SMOOTH",
"418 161 OFFCURVE",
"381 132 OFFCURVE",
"325 132 CURVE SMOOTH",
"264 132 OFFCURVE",
"234 176 OFFCURVE",
"220 239 CURVE",
"86 192 LINE",
"98 114 OFFCURVE",
"131 31 OFFCURVE",
"224 0 CURVE",
"207 -91 LINE"
);
}
);
width = 587;
}
);
unicode = 0024;
},
{
glyphname = percent;
lastChange = "2016-11-19 05:50:03 +0000";
layers = (
{
background = {
paths = (
{
closed = 1;
nodes = (
"386 346 OFFCURVE",
"463 439 OFFCURVE",
"463 558 CURVE SMOOTH",
"463 628 OFFCURVE",
"421 712 OFFCURVE",
"321 712 CURVE SMOOTH",
"195 712 OFFCURVE",
"133 597 OFFCURVE",
"133 500 CURVE SMOOTH",
"133 429 OFFCURVE",
"176 346 OFFCURVE",
"275 346 CURVE SMOOTH"
);
},
{
closed = 1;
nodes = (
"251 450 OFFCURVE",
"240 480 OFFCURVE",
"240 508 CURVE SMOOTH",
"240 557 OFFCURVE",
"266 608 OFFCURVE",
"310 608 CURVE SMOOTH",
"340 608 OFFCURVE",
"356 584 OFFCURVE",
"356 550 CURVE SMOOTH",
"356 502 OFFCURVE",
"329 450 OFFCURVE",
"285 450 CURVE SMOOTH"
);
},
{
closed = 1;
nodes = (
"826 712 LINE",
"694 712 LINE",
"108 -12 LINE",
"240 -12 LINE"
);
},
{
closed = 1;
nodes = (
"729 -12 OFFCURVE",
"806 81 OFFCURVE",
"806 200 CURVE SMOOTH",
"806 270 OFFCURVE",
"764 354 OFFCURVE",
"664 354 CURVE SMOOTH",
"538 354 OFFCURVE",
"476 239 OFFCURVE",
"476 142 CURVE SMOOTH",
"476 71 OFFCURVE",
"519 -12 OFFCURVE",
"618 -12 CURVE SMOOTH"
);
},
{
closed = 1;
nodes = (
"594 92 OFFCURVE",
"583 122 OFFCURVE",
"583 150 CURVE SMOOTH",
"583 199 OFFCURVE",
"609 250 OFFCURVE",
"653 250 CURVE SMOOTH",
"683 250 OFFCURVE",
"699 226 OFFCURVE",
"699 192 CURVE SMOOTH",
"699 144 OFFCURVE",
"672 92 OFFCURVE",
"628 92 CURVE SMOOTH"
);
}
);
};
hints = (
{
origin = "{0, 9}";
target = "{1, 3}";
},
{
origin = "{1, 9}";
target = "{0, 3}";
},
{
origin = "{3, 9}";
target = "{4, 3}";
},
{
origin = "{4, 9}";
target = "{3, 3}";
},
{
horizontal = 1;
origin = "{3, 0}";
target = "{4, 0}";
},
{
horizontal = 1;
origin = "{4, 6}";
target = "{3, 6}";
},
{
horizontal = 1;
origin = "{0, 0}";
target = "{1, 0}";
},
{
horizontal = 1;
origin = "{1, 6}";
target = "{0, 6}";
}
);
layerId = UUID0;
paths = (
{
closed = 1;
nodes = (
"386 351 OFFCURVE",
"452 460 OFFCURVE",
"452 564 CURVE SMOOTH",
"452 633 OFFCURVE",
"415 712 OFFCURVE",
"320 712 CURVE SMOOTH",
"193 712 OFFCURVE",
"132 591 OFFCURVE",
"132 498 CURVE SMOOTH",
"132 429 OFFCURVE",
"170 351 OFFCURVE",
"265 351 CURVE SMOOTH"
);
},
{
closed = 1;
nodes = (
"234 432 OFFCURVE",
"218 466 OFFCURVE",
"218 505 CURVE SMOOTH",
"218 568 OFFCURVE",
"250 631 OFFCURVE",
"309 631 CURVE SMOOTH",
"348 631 OFFCURVE",
"367 600 OFFCURVE",
"367 558 CURVE SMOOTH",
"367 494 OFFCURVE",
"333 432 OFFCURVE",
"275 432 CURVE SMOOTH"
);
},
{
closed = 1;
nodes = (
"814 712 LINE",
"713 712 LINE",
"127 -12 LINE",
"227 -12 LINE"
);
},
{
closed = 1;
nodes = (
"745 -12 OFFCURVE",
"810 98 OFFCURVE",
"810 202 CURVE SMOOTH",
"810 271 OFFCURVE",
"773 349 OFFCURVE",
"678 349 CURVE SMOOTH",
"550 349 OFFCURVE",
"490 228 OFFCURVE",
"490 135 CURVE SMOOTH",
"490 66 OFFCURVE",
"528 -12 OFFCURVE",
"623 -12 CURVE SMOOTH"
);
},
{
closed = 1;
nodes = (
"592 69 OFFCURVE",
"575 103 OFFCURVE",
"575 142 CURVE SMOOTH",
"575 205 OFFCURVE",
"607 268 OFFCURVE",
"667 268 CURVE SMOOTH",
"706 268 OFFCURVE",
"725 237 OFFCURVE",
"725 194 CURVE SMOOTH",
"725 131 OFFCURVE",
"691 69 OFFCURVE",
"633 69 CURVE SMOOTH"
);
}
);
width = 817;
},
{
background = {
paths = (
{
closed = 1;
nodes = (
"386 346 OFFCURVE",
"463 439 OFFCURVE",
"463 558 CURVE SMOOTH",
"463 628 OFFCURVE",
"421 712 OFFCURVE",
"321 712 CURVE SMOOTH",
"195 712 OFFCURVE",
"133 597 OFFCURVE",
"133 500 CURVE SMOOTH",
"133 429 OFFCURVE",
"176 346 OFFCURVE",
"275 346 CURVE SMOOTH"
);
},
{
closed = 1;
nodes = (
"251 450 OFFCURVE",
"240 480 OFFCURVE",
"240 508 CURVE SMOOTH",
"240 557 OFFCURVE",
"266 608 OFFCURVE",
"310 608 CURVE SMOOTH",
"340 608 OFFCURVE",
"356 584 OFFCURVE",
"356 550 CURVE SMOOTH",
"356 502 OFFCURVE",
"329 450 OFFCURVE",
"285 450 CURVE SMOOTH"
);
},
{
closed = 1;
nodes = (
"826 712 LINE",
"694 712 LINE",
"108 -12 LINE",
"240 -12 LINE"
);
},
{
closed = 1;
nodes = (
"729 -12 OFFCURVE",
"806 81 OFFCURVE",
"806 200 CURVE SMOOTH",
"806 270 OFFCURVE",
"764 354 OFFCURVE",
"664 354 CURVE SMOOTH",
"538 354 OFFCURVE",
"476 239 OFFCURVE",
"476 142 CURVE SMOOTH",
"476 71 OFFCURVE",
"519 -12 OFFCURVE",
"618 -12 CURVE SMOOTH"
);
},
{
closed = 1;
nodes = (
"594 92 OFFCURVE",
"583 122 OFFCURVE",
"583 150 CURVE SMOOTH",
"583 199 OFFCURVE",
"609 250 OFFCURVE",
"653 250 CURVE SMOOTH",
"683 250 OFFCURVE",
"699 226 OFFCURVE",
"699 192 CURVE SMOOTH",
"699 144 OFFCURVE",
"672 92 OFFCURVE",
"628 92 CURVE SMOOTH"
);
}
);
};
hints = (
{
origin = "{0, 9}";
target = "{1, 3}";
},
{
origin = "{1, 9}";
target = "{0, 3}";
},
{
origin = "{3, 9}";
target = "{4, 3}";
},
{
origin = "{4, 9}";
target = "{3, 3}";
},
{
horizontal = 1;
origin = "{3, 0}";
target = "{4, 0}";
},
{
horizontal = 1;
origin = "{4, 6}";
target = "{3, 6}";
},
{
horizontal = 1;
origin = "{0, 0}";
target = "{1, 0}";
},
{
horizontal = 1;
origin = "{1, 6}";
target = "{0, 6}";
}
);
layerId = "03594D1A-E940-4CFB-8F8F-75A73B5E45C4";
paths = (
{
closed = 1;
nodes = (
"412 356 OFFCURVE",
"467 482 OFFCURVE",
"467 571 CURVE SMOOTH",
"467 639 OFFCURVE",
"435 712 OFFCURVE",
"344 712 CURVE SMOOTH",
"216 712 OFFCURVE",
"157 586 OFFCURVE",
"157 497 CURVE SMOOTH",
"157 429 OFFCURVE",
"190 356 OFFCURVE",
"281 356 CURVE SMOOTH"
);
},
{
closed = 1;
nodes = (
"242 414 OFFCURVE",
"221 453 OFFCURVE",
"221 502 CURVE SMOOTH",
"221 580 OFFCURVE",
"259 654 OFFCURVE",
"333 654 CURVE SMOOTH",
"381 654 OFFCURVE",
"404 617 OFFCURVE",
"404 566 CURVE SMOOTH",
"404 487 OFFCURVE",
"362 414 OFFCURVE",
"291 414 CURVE SMOOTH"
);
},
{
closed = 1;
nodes = (
"827 712 LINE",
"758 712 LINE",
"171 -12 LINE",
"240 -12 LINE"
);
},
{
closed = 1;
nodes = (
"786 -12 OFFCURVE",
"839 115 OFFCURVE",
"839 204 CURVE SMOOTH",
"839 272 OFFCURVE",
"807 344 OFFCURVE",
"717 344 CURVE SMOOTH",
"587 344 OFFCURVE",
"530 217 OFFCURVE",
"530 128 CURVE SMOOTH",
"530 61 OFFCURVE",
"562 -12 OFFCURVE",
"654 -12 CURVE SMOOTH"
);
},
{
closed = 1;
nodes = (
"615 46 OFFCURVE",
"593 85 OFFCURVE",
"593 135 CURVE SMOOTH",
"593 212 OFFCURVE",
"630 286 OFFCURVE",
"706 286 CURVE SMOOTH",
"754 286 OFFCURVE",
"777 248 OFFCURVE",
"777 197 CURVE SMOOTH",
"777 119 OFFCURVE",
"735 46 OFFCURVE",
"664 46 CURVE SMOOTH"
);
}
);
width = 875;
},
{
background = {
paths = (
{
closed = 1;
nodes = (
"379 356 OFFCURVE",
"431 471 OFFCURVE",
"431 561 CURVE SMOOTH",
"431 631 OFFCURVE",
"400 712 OFFCURVE",
"302 712 CURVE SMOOTH",
"173 712 OFFCURVE",
"122 589 OFFCURVE",
"122 505 CURVE SMOOTH",
"122 431 OFFCURVE",
"156 356 OFFCURVE",
"252 356 CURVE SMOOTH"
);
},
{
closed = 1;
nodes = (
"186 392 OFFCURVE",
"160 451 OFFCURVE",
"160 509 CURVE SMOOTH",
"160 577 OFFCURVE",
"200 676 OFFCURVE",
"297 676 CURVE SMOOTH",
"369 676 OFFCURVE",
"393 612 OFFCURVE",
"393 557 CURVE SMOOTH",
"393 485 OFFCURVE",
"353 392 OFFCURVE",
"257 392 CURVE SMOOTH"
);
},
{
closed = 1;
nodes = (
"785 712 LINE",
"742 712 LINE",
"162 -12 LINE",
"205 -12 LINE"
);
},
{
closed = 1;
nodes = (
"772 -12 OFFCURVE",
"824 103 OFFCURVE",
"824 193 CURVE SMOOTH",
"824 263 OFFCURVE",
"793 344 OFFCURVE",
"695 344 CURVE SMOOTH",
"565 344 OFFCURVE",
"515 221 OFFCURVE",
"515 137 CURVE SMOOTH",
"515 63 OFFCURVE",
"549 -12 OFFCURVE",
"645 -12 CURVE SMOOTH"
);
},
{
closed = 1;
nodes = (
"579 24 OFFCURVE",
"554 83 OFFCURVE",
"554 141 CURVE SMOOTH",
"554 209 OFFCURVE",
"593 308 OFFCURVE",
"690 308 CURVE SMOOTH",
"762 308 OFFCURVE",
"786 244 OFFCURVE",
"786 189 CURVE SMOOTH",
"786 117 OFFCURVE",
"746 24 OFFCURVE",
"650 24 CURVE SMOOTH"
);
}
);
};
hints = (
{
origin = "{0, 9}";
target = "{1, 3}";
},
{
origin = "{1, 9}";
target = "{0, 3}";
},
{
origin = "{3, 9}";
target = "{4, 3}";
},
{
origin = "{4, 9}";
target = "{3, 3}";
},
{
horizontal = 1;
origin = "{0, 0}";
target = "{1, 0}";
},
{
horizontal = 1;
origin = "{1, 6}";
target = "{0, 6}";
},
{
horizontal = 1;
origin = "{3, 0}";
target = "{4, 0}";
},
{
horizontal = 1;
origin = "{4, 6}";
target = "{3, 6}";
}
);
layerId = "42555ED7-786B-4551-A9FC-B380F510FD49";
paths = (
{
closed = 1;
nodes = (
"397 356 OFFCURVE",
"449 476 OFFCURVE",
"449 568 CURVE SMOOTH",
"449 635 OFFCURVE",
"416 712 OFFCURVE",
"322 712 CURVE SMOOTH",
"192 712 OFFCURVE",
"137 584 OFFCURVE",
"137 498 CURVE SMOOTH",
"137 427 OFFCURVE",
"174 356 OFFCURVE",
"266 356 CURVE SMOOTH"
);
},
{
closed = 1;
nodes = (
"200 392 OFFCURVE",
"176 448 OFFCURVE",
"176 503 CURVE SMOOTH",
"176 573 OFFCURVE",
"219 676 OFFCURVE",
"319 676 CURVE SMOOTH",
"388 676 OFFCURVE",
"411 615 OFFCURVE",
"411 563 CURVE SMOOTH",
"411 489 OFFCURVE",
"368 392 OFFCURVE",
"269 392 CURVE SMOOTH"
);
},
{
closed = 1;
nodes = (
"808 712 LINE",
"765 712 LINE",
"160 -12 LINE",
"203 -12 LINE"
);
},
{
closed = 1;
nodes = (
"777 -12 OFFCURVE",
"829 108 OFFCURVE",
"829 200 CURVE SMOOTH",
"829 267 OFFCURVE",
"796 344 OFFCURVE",
"702 344 CURVE SMOOTH",
"571 344 OFFCURVE",
"518 216 OFFCURVE",
"518 130 CURVE SMOOTH",
"518 59 OFFCURVE",
"554 -12 OFFCURVE",
"647 -12 CURVE SMOOTH"
);
},
{
closed = 1;
nodes = (
"581 24 OFFCURVE",
"557 80 OFFCURVE",
"557 135 CURVE SMOOTH",
"557 205 OFFCURVE",
"599 308 OFFCURVE",
"699 308 CURVE SMOOTH",
"768 308 OFFCURVE",
"791 247 OFFCURVE",
"791 195 CURVE SMOOTH",
"791 121 OFFCURVE",
"748 24 OFFCURVE",
"649 24 CURVE SMOOTH"
);
}
);
width = 865;
},
{
background = {
paths = (
{
closed = 1;
nodes = (
"408 346 OFFCURVE",
"467 473 OFFCURVE",
"467 565 CURVE SMOOTH",
"467 635 OFFCURVE",
"431 712 OFFCURVE",
"332 712 CURVE SMOOTH",
"193 712 OFFCURVE",
"132 585 OFFCURVE",
"132 493 CURVE SMOOTH",
"132 423 OFFCURVE",
"168 346 OFFCURVE",
"267 346 CURVE SMOOTH"
);
},
{
closed = 1;
nodes = (
"256 454 OFFCURVE",
"242 478 OFFCURVE",
"242 509 CURVE SMOOTH",
"242 558 OFFCURVE",
"266 604 OFFCURVE",
"313 604 CURVE SMOOTH",
"343 604 OFFCURVE",
"357 580 OFFCURVE",
"357 549 CURVE SMOOTH",
"357 501 OFFCURVE",
"334 454 OFFCURVE",
"286 454 CURVE SMOOTH"
);
},
{
closed = 1;
nodes = (
"822 712 LINE",
"698 712 LINE",
"112 -12 LINE",
"236 -12 LINE"
);
},
{
closed = 1;
nodes = (
"744 -12 OFFCURVE",
"801 116 OFFCURVE",
"801 207 CURVE SMOOTH",
"801 277 OFFCURVE",
"766 354 OFFCURVE",
"666 354 CURVE SMOOTH",
"528 354 OFFCURVE",
"467 227 OFFCURVE",
"467 134 CURVE SMOOTH",
"467 64 OFFCURVE",
"502 -12 OFFCURVE",
"602 -12 CURVE SMOOTH"
);
},
{
closed = 1;
nodes = (
"589 96 OFFCURVE",
"576 119 OFFCURVE",
"576 151 CURVE SMOOTH",
"576 200 OFFCURVE",
"599 246 OFFCURVE",
"647 246 CURVE SMOOTH",
"678 246 OFFCURVE",
"692 222 OFFCURVE",
"692 190 CURVE SMOOTH",
"692 142 OFFCURVE",
"667 96 OFFCURVE",
"621 96 CURVE SMOOTH"
);
}
);
};
hints = (
{
origin = "{0, 9}";
target = "{1, 3}";
},
{
origin = "{1, 9}";
target = "{0, 3}";
},
{
origin = "{3, 9}";
target = "{4, 3}";
},
{
origin = "{4, 9}";
target = "{3, 3}";
},
{
horizontal = 1;
origin = "{3, 0}";
target = "{4, 0}";
},
{
horizontal = 1;
origin = "{4, 6}";
target = "{3, 6}";
},
{
horizontal = 1;
origin = "{0, 0}";
target = "{1, 0}";
},
{
horizontal = 1;
origin = "{1, 6}";
target = "{0, 6}";
}
);
layerId = "B410913A-4682-469F-9A16-EAAC4E2E8870";
paths = (
{
closed = 1;
nodes = (
"386 346 OFFCURVE",
"463 439 OFFCURVE",
"463 558 CURVE SMOOTH",
"463 628 OFFCURVE",
"421 712 OFFCURVE",
"321 712 CURVE SMOOTH",
"195 712 OFFCURVE",
"133 597 OFFCURVE",
"133 500 CURVE SMOOTH",
"133 429 OFFCURVE",
"176 346 OFFCURVE",
"275 346 CURVE SMOOTH"
);
},
{
closed = 1;
nodes = (
"251 450 OFFCURVE",
"240 480 OFFCURVE",
"240 508 CURVE SMOOTH",
"240 557 OFFCURVE",
"266 608 OFFCURVE",
"310 608 CURVE SMOOTH",
"340 608 OFFCURVE",
"356 584 OFFCURVE",
"356 550 CURVE SMOOTH",
"356 502 OFFCURVE",
"329 450 OFFCURVE",
"285 450 CURVE SMOOTH"
);
},
{
closed = 1;
nodes = (
"826 712 LINE",
"694 712 LINE",
"108 -12 LINE",
"240 -12 LINE"
);
},
{
closed = 1;
nodes = (
"729 -12 OFFCURVE",
"806 81 OFFCURVE",
"806 200 CURVE SMOOTH",
"806 270 OFFCURVE",
"764 354 OFFCURVE",
"664 354 CURVE SMOOTH",
"538 354 OFFCURVE",
"476 239 OFFCURVE",
"476 142 CURVE SMOOTH",
"476 71 OFFCURVE",
"519 -12 OFFCURVE",
"618 -12 CURVE SMOOTH"
);
},
{
closed = 1;
nodes = (
"594 92 OFFCURVE",
"583 122 OFFCURVE",
"583 150 CURVE SMOOTH",
"583 199 OFFCURVE",
"609 250 OFFCURVE",
"653 250 CURVE SMOOTH",
"683 250 OFFCURVE",
"699 226 OFFCURVE",
"699 192 CURVE SMOOTH",
"699 144 OFFCURVE",
"672 92 OFFCURVE",
"628 92 CURVE SMOOTH"
);
}
);
width = 810;
},
{
hints = (
{
origin = "{0, 9}";
target = "{1, 3}";
},
{
origin = "{1, 9}";
target = "{0, 3}";
},
{
origin = "{3, 9}";
target = "{4, 3}";
},
{
origin = "{4, 9}";
target = "{3, 3}";
},
{
horizontal = 1;
origin = "{3, 0}";
target = "{4, 0}";
},
{
horizontal = 1;
origin = "{4, 6}";
target = "{3, 6}";
},
{
horizontal = 1;
origin = "{0, 0}";
target = "{1, 0}";
},
{
horizontal = 1;
origin = "{1, 6}";
target = "{0, 6}";
}
);
layerId = "DEEEE81F-2F80-4306-8755-EEA92C96C68A";
paths = (
{
closed = 1;
nodes = (
"386 344 OFFCURVE",
"469 429 OFFCURVE",
"469 555 CURVE SMOOTH",
"469 626 OFFCURVE",
"424 712 OFFCURVE",
"322 712 CURVE SMOOTH",
"196 712 OFFCURVE",
"134 600 OFFCURVE",
"134 501 CURVE SMOOTH",
"134 429 OFFCURVE",
"179 344 OFFCURVE",
"280 344 CURVE SMOOTH"
);
},
{
closed = 1;
nodes = (
"260 459 OFFCURVE",
"251 487 OFFCURVE",
"251 510 CURVE SMOOTH",
"251 552 OFFCURVE",
"274 597 OFFCURVE",
"311 597 CURVE SMOOTH",
"336 597 OFFCURVE",
"351 576 OFFCURVE",
"351 546 CURVE SMOOTH",
"351 506 OFFCURVE",
"327 459 OFFCURVE",
"290 459 CURVE SMOOTH"
);
},
{
closed = 1;
nodes = (
"832 712 LINE",
"685 712 LINE",
"99 -12 LINE",
"247 -12 LINE"
);
},
{
closed = 1;
nodes = (
"721 -12 OFFCURVE",
"804 73 OFFCURVE",
"804 199 CURVE SMOOTH",
"804 270 OFFCURVE",
"760 357 OFFCURVE",
"657 357 CURVE SMOOTH",
"532 357 OFFCURVE",
"469 245 OFFCURVE",
"469 146 CURVE SMOOTH",
"469 74 OFFCURVE",
"515 -12 OFFCURVE",
"616 -12 CURVE SMOOTH"
);
},
{
closed = 1;
nodes = (
"595 104 OFFCURVE",
"587 132 OFFCURVE",
"587 154 CURVE SMOOTH",
"587 196 OFFCURVE",
"610 241 OFFCURVE",
"646 241 CURVE SMOOTH",
"672 241 OFFCURVE",
"686 221 OFFCURVE",
"686 191 CURVE SMOOTH",
"686 151 OFFCURVE",
"663 104 OFFCURVE",
"626 104 CURVE SMOOTH"
);
}
);
width = 807;
}
);
unicode = 0025;
},
{
glyphname = ampersand;
lastChange = "2016-11-19 05:50:03 +0000";
layers = (
{
background = {
paths = (
{
closed = 1;
nodes = (
"668 0 LINE",
"563 170 LINE",
"594 217 OFFCURVE",
"622 286 OFFCURVE",
"635 350 CURVE",
"512 350 LINE",
"508 327 OFFCURVE",
"500 303 OFFCURVE",
"493 282 CURVE",
"436 372 LINE",
"512 416 OFFCURVE",
"576 478 OFFCURVE",
"576 567 CURVE SMOOTH",
"576 653 OFFCURVE",
"519 712 OFFCURVE",
"418 712 CURVE SMOOTH",
"325 712 OFFCURVE",
"230 644 OFFCURVE",
"230 526 CURVE SMOOTH",
"230 479 OFFCURVE",
"240 441 OFFCURVE",
"268 397 CURVE",
"166 349 OFFCURVE",
"86 282 OFFCURVE",
"86 160 CURVE SMOOTH",
"86 60 OFFCURVE",
"151 -12 OFFCURVE",
"260 -12 CURVE SMOOTH",
"341 -12 OFFCURVE",
"409 16 OFFCURVE",
"467 66 CURVE",
"506 0 LINE"
);
},
{
closed = 1;
nodes = (
"247 113 OFFCURVE",
"220 142 OFFCURVE",
"220 186 CURVE SMOOTH",
"220 232 OFFCURVE",
"255 271 OFFCURVE",
"322 306 CURVE",
"411 158 LINE",
"381 131 OFFCURVE",
"337 113 OFFCURVE",
"297 113 CURVE SMOOTH"
);
},
{
closed = 1;
nodes = (
"351 586 OFFCURVE",
"378 612 OFFCURVE",
"409 612 CURVE SMOOTH",
"435 612 OFFCURVE",
"456 595 OFFCURVE",
"456 561 CURVE SMOOTH",
"456 514 OFFCURVE",
"425 483 OFFCURVE",
"383 457 CURVE",
"363 487 OFFCURVE",
"351 516 OFFCURVE",
"351 543 CURVE SMOOTH"
);
}
);
};
hints = (
{
origin = "{0, 24}";
target = "{1, 3}";
},
{
origin = "{0, 18}";
target = "{2, 0}";
},
{
origin = "{2, 6}";
target = "{0, 12}";
},
{
horizontal = 1;
origin = "{0, 27}";
target = "{1, 0}";
},
{
horizontal = 1;
origin = "{2, 3}";
target = "{0, 15}";
}
);
layerId = UUID0;
paths = (
{
closed = 1;
nodes = (
"630 0 LINE",
"532 158 LINE",
"573 215 OFFCURVE",
"597 279 OFFCURVE",
"610 334 CURVE",
"517 334 LINE",
"511 310 OFFCURVE",
"498 275 OFFCURVE",
"479 241 CURVE",
"394 377 LINE",
"484 429 OFFCURVE",
"548 488 OFFCURVE",
"548 577 CURVE SMOOTH",
"548 656 OFFCURVE",
"494 712 OFFCURVE",
"405 712 CURVE SMOOTH",
"309 712 OFFCURVE",
"217 645 OFFCURVE",
"217 534 CURVE SMOOTH",
"217 490 OFFCURVE",
"232 448 OFFCURVE",
"264 395 CURVE",
"153 339 OFFCURVE",
"72 273 OFFCURVE",
"72 150 CURVE SMOOTH",
"72 55 OFFCURVE",
"134 -12 OFFCURVE",
"238 -12 CURVE SMOOTH",
"317 -12 OFFCURVE",
"394 19 OFFCURVE",
"459 78 CURVE",
"508 0 LINE"
);
},
{
closed = 1;
nodes = (
"208 82 OFFCURVE",
"172 118 OFFCURVE",
"172 173 CURVE SMOOTH",
"172 235 OFFCURVE",
"217 278 OFFCURVE",
"305 327 CURVE",
"415 150 LINE",
"372 108 OFFCURVE",
"316 82 OFFCURVE",
"268 82 CURVE SMOOTH"
);
},
{
closed = 1;
nodes = (
"310 597 OFFCURVE",
"346 631 OFFCURVE",
"393 631 CURVE SMOOTH",
"428 631 OFFCURVE",
"455 607 OFFCURVE",
"455 567 CURVE SMOOTH",
"455 516 OFFCURVE",
"417 478 OFFCURVE",
"354 442 CURVE",
"327 484 OFFCURVE",
"310 519 OFFCURVE",
"310 548 CURVE SMOOTH"
);
}
);
width = 644;
},
{
background = {
paths = (
{
closed = 1;
nodes = (
"668 0 LINE",
"563 170 LINE",
"594 217 OFFCURVE",
"622 286 OFFCURVE",
"635 350 CURVE",
"512 350 LINE",
"508 327 OFFCURVE",
"500 303 OFFCURVE",
"493 282 CURVE",
"436 372 LINE",
"512 416 OFFCURVE",
"576 478 OFFCURVE",
"576 567 CURVE SMOOTH",
"576 653 OFFCURVE",
"519 712 OFFCURVE",
"418 712 CURVE SMOOTH",
"325 712 OFFCURVE",
"230 644 OFFCURVE",
"230 526 CURVE SMOOTH",
"230 479 OFFCURVE",
"240 441 OFFCURVE",
"268 397 CURVE",
"166 349 OFFCURVE",
"86 282 OFFCURVE",
"86 160 CURVE SMOOTH",
"86 60 OFFCURVE",
"151 -12 OFFCURVE",
"260 -12 CURVE SMOOTH",
"341 -12 OFFCURVE",
"409 16 OFFCURVE",
"467 66 CURVE",
"506 0 LINE"
);
},
{
closed = 1;
nodes = (
"247 113 OFFCURVE",
"220 142 OFFCURVE",
"220 186 CURVE SMOOTH",
"220 232 OFFCURVE",
"255 271 OFFCURVE",
"322 306 CURVE",
"411 158 LINE",
"381 131 OFFCURVE",
"337 113 OFFCURVE",
"297 113 CURVE SMOOTH"
);
},
{
closed = 1;
nodes = (
"351 586 OFFCURVE",
"378 612 OFFCURVE",
"409 612 CURVE SMOOTH",
"435 612 OFFCURVE",
"456 595 OFFCURVE",
"456 561 CURVE SMOOTH",
"456 514 OFFCURVE",
"425 483 OFFCURVE",
"383 457 CURVE",
"363 487 OFFCURVE",
"351 516 OFFCURVE",
"351 543 CURVE SMOOTH"
);
}
);
};
hints = (
{
origin = "{0, 24}";
target = "{1, 3}";
},
{
origin = "{0, 18}";
target = "{2, 0}";
},
{
origin = "{2, 6}";
target = "{0, 12}";
},
{
horizontal = 1;
origin = "{0, 27}";
target = "{1, 0}";
},
{
horizontal = 1;
origin = "{2, 3}";
target = "{0, 15}";
}
);
layerId = "03594D1A-E940-4CFB-8F8F-75A73B5E45C4";
paths = (
{
closed = 1;
nodes = (
"618 0 LINE",
"526 147 LINE",
"577 213 OFFCURVE",
"598 273 OFFCURVE",
"610 319 CURVE",
"547 319 LINE",
"540 294 OFFCURVE",
"522 247 OFFCURVE",
"491 201 CURVE",
"378 383 LINE",
"481 442 OFFCURVE",
"545 499 OFFCURVE",
"545 587 CURVE SMOOTH",
"545 659 OFFCURVE",
"494 712 OFFCURVE",
"417 712 CURVE SMOOTH",
"318 712 OFFCURVE",
"230 647 OFFCURVE",
"230 542 CURVE SMOOTH",
"230 501 OFFCURVE",
"249 456 OFFCURVE",
"286 394 CURVE",
"165 329 OFFCURVE",
"83 264 OFFCURVE",
"83 141 CURVE SMOOTH",
"83 50 OFFCURVE",
"143 -12 OFFCURVE",
"241 -12 CURVE SMOOTH",
"318 -12 OFFCURVE",
"405 23 OFFCURVE",
"477 91 CURVE",
"535 0 LINE"
);
},
{
closed = 1;
nodes = (
"195 51 OFFCURVE",
"149 95 OFFCURVE",
"149 160 CURVE SMOOTH",
"149 238 OFFCURVE",
"204 285 OFFCURVE",
"314 348 CURVE",
"444 143 LINE",
"388 85 OFFCURVE",
"320 51 OFFCURVE",
"265 51 CURVE SMOOTH"
);
},
{
closed = 1;
nodes = (
"294 609 OFFCURVE",
"339 650 OFFCURVE",
"402 650 CURVE SMOOTH",
"447 650 OFFCURVE",
"479 620 OFFCURVE",
"479 573 CURVE SMOOTH",
"479 518 OFFCURVE",
"434 474 OFFCURVE",
"350 427 CURVE",
"316 482 OFFCURVE",
"294 522 OFFCURVE",
"294 553 CURVE SMOOTH"
);
}
);
width = 648;
},
{
background = {
paths = (
{
closed = 1;
nodes = (
"595 0 LINE",
"496 140 LINE",
"540 198 OFFCURVE",
"569 263 OFFCURVE",
"582 319 CURVE",
"544 319 LINE",
"530 270 OFFCURVE",
"507 217 OFFCURVE",
"474 170 CURVE",
"324 383 LINE",
"438 445 OFFCURVE",
"497 505 OFFCURVE",
"497 588 CURVE SMOOTH",
"497 661 OFFCURVE",
"446 712 OFFCURVE",
"371 712 CURVE SMOOTH",
"279 712 OFFCURVE",
"199 652 OFFCURVE",
"199 556 CURVE SMOOTH",
"199 513 OFFCURVE",
"220 465 OFFCURVE",
"270 391 CURVE",
"153 329 OFFCURVE",
"62 260 OFFCURVE",
"62 145 CURVE SMOOTH",
"62 48 OFFCURVE",
"126 -12 OFFCURVE",
"227 -12 CURVE SMOOTH",
"324 -12 OFFCURVE",
"407 39 OFFCURVE",
"468 107 CURVE",
"543 0 LINE"
);
},
{
closed = 1;
nodes = (
"155 24 OFFCURVE",
"100 70 OFFCURVE",
"100 150 CURVE SMOOTH",
"100 241 OFFCURVE",
"171 302 OFFCURVE",
"288 364 CURVE",
"448 136 LINE",
"393 71 OFFCURVE",
"320 24 OFFCURVE",
"232 24 CURVE SMOOTH"
);
},
{
closed = 1;
nodes = (
"238 628 OFFCURVE",
"290 676 OFFCURVE",
"362 676 CURVE SMOOTH",
"417 676 OFFCURVE",
"458 639 OFFCURVE",
"458 580 CURVE SMOOTH",
"458 517 OFFCURVE",
"404 462 OFFCURVE",
"306 409 CURVE",
"265 469 OFFCURVE",
"238 518 OFFCURVE",
"238 561 CURVE SMOOTH"
);
}
);
};
hints = (
{
origin = "{0, 24}";
target = "{1, 3}";
},
{
origin = "{0, 18}";
target = "{2, 0}";
},
{
origin = "{2, 6}";
target = "{0, 12}";
},
{
horizontal = 1;
origin = "{0, 27}";
target = "{1, 0}";
},
{
horizontal = 1;
origin = "{2, 3}";
target = "{0, 15}";
}
);
layerId = "42555ED7-786B-4551-A9FC-B380F510FD49";
paths = (
{
closed = 1;
nodes = (
"593 0 LINE",
"499 140 LINE",
"545 198 OFFCURVE",
"576 263 OFFCURVE",
"591 319 CURVE",
"553 319 LINE",
"537 270 OFFCURVE",
"513 217 OFFCURVE",
"478 170 CURVE",
"335 383 LINE",
"454 445 OFFCURVE",
"516 504 OFFCURVE",
"516 588 CURVE SMOOTH",
"516 663 OFFCURVE",
"458 712 OFFCURVE",
"385 712 CURVE SMOOTH",
"291 712 OFFCURVE",
"216 650 OFFCURVE",
"216 552 CURVE SMOOTH",
"216 511 OFFCURVE",
"236 462 OFFCURVE",
"282 391 CURVE",
"160 328 OFFCURVE",
"65 258 OFFCURVE",
"65 139 CURVE SMOOTH",
"65 46 OFFCURVE",
"126 -12 OFFCURVE",
"225 -12 CURVE SMOOTH",
"322 -12 OFFCURVE",
"406 39 OFFCURVE",
"470 107 CURVE",
"541 0 LINE"
);
},
{
closed = 1;
nodes = (
"156 24 OFFCURVE",
"103 68 OFFCURVE",
"103 145 CURVE SMOOTH",
"103 239 OFFCURVE",
"177 301 OFFCURVE",
"299 364 CURVE",
"451 136 LINE",
"393 71 OFFCURVE",
"319 24 OFFCURVE",
"231 24 CURVE SMOOTH"
);
},
{
closed = 1;
nodes = (
"256 626 OFFCURVE",
"307 676 OFFCURVE",
"382 676 CURVE SMOOTH",
"437 676 OFFCURVE",
"476 640 OFFCURVE",
"476 584 CURVE SMOOTH",
"476 510 OFFCURVE",
"420 461 OFFCURVE",
"318 409 CURVE",
"280 467 OFFCURVE",
"256 516 OFFCURVE",
"256 558 CURVE SMOOTH"
);
}
);
width = 626;
},
{
background = {
paths = (
{
closed = 1;
nodes = (
"668 0 LINE",
"561 173 LINE",
"595 218 OFFCURVE",
"622 286 OFFCURVE",
"635 350 CURVE",
"512 350 LINE",
"508 327 OFFCURVE",
"500 303 OFFCURVE",
"493 282 CURVE",
"435 374 LINE",
"510 419 OFFCURVE",
"575 478 OFFCURVE",
"575 578 CURVE SMOOTH",
"575 659 OFFCURVE",
"519 712 OFFCURVE",
"434 712 CURVE SMOOTH",
"325 712 OFFCURVE",
"230 644 OFFCURVE",
"230 516 CURVE SMOOTH",
"230 479 OFFCURVE",
"242 438 OFFCURVE",
"270 394 CURVE",
"174 347 OFFCURVE",
"87 279 OFFCURVE",
"87 153 CURVE SMOOTH",
"87 55 OFFCURVE",
"151 -12 OFFCURVE",
"260 -12 CURVE SMOOTH",
"341 -12 OFFCURVE",
"408 17 OFFCURVE",
"466 67 CURVE",
"506 0 LINE"
);
},
{
closed = 1;
nodes = (
"247 113 OFFCURVE",
"220 142 OFFCURVE",
"220 180 CURVE SMOOTH",
"220 232 OFFCURVE",
"255 271 OFFCURVE",
"322 306 CURVE",
"411 158 LINE",
"375 130 OFFCURVE",
"337 113 OFFCURVE",
"296 113 CURVE SMOOTH"
);
},
{
closed = 1;
nodes = (
"351 585 OFFCURVE",
"380 612 OFFCURVE",
"413 612 CURVE SMOOTH",
"437 612 OFFCURVE",
"456 596 OFFCURVE",
"456 563 CURVE SMOOTH",
"456 514 OFFCURVE",
"425 481 OFFCURVE",
"383 457 CURVE",
"363 487 OFFCURVE",
"351 516 OFFCURVE",
"351 543 CURVE SMOOTH"
);
}
);
};
hints = (
{
origin = "{0, 24}";
target = "{1, 3}";
},
{
origin = "{0, 18}";
target = "{2, 0}";
},
{
origin = "{2, 6}";
target = "{0, 12}";
},
{
horizontal = 1;
origin = "{0, 27}";
target = "{1, 0}";
},
{
horizontal = 1;
origin = "{2, 3}";
target = "{0, 15}";
}
);
layerId = "B410913A-4682-469F-9A16-EAAC4E2E8870";
paths = (
{
closed = 1;
nodes = (
"668 0 LINE",
"563 170 LINE",
"594 217 OFFCURVE",
"622 286 OFFCURVE",
"635 350 CURVE",
"512 350 LINE",
"508 327 OFFCURVE",
"500 303 OFFCURVE",
"493 282 CURVE",
"436 372 LINE",
"512 416 OFFCURVE",
"576 478 OFFCURVE",
"576 567 CURVE SMOOTH",
"576 653 OFFCURVE",
"519 712 OFFCURVE",
"418 712 CURVE SMOOTH",
"325 712 OFFCURVE",
"230 644 OFFCURVE",
"230 526 CURVE SMOOTH",
"230 479 OFFCURVE",
"240 441 OFFCURVE",
"268 397 CURVE",
"166 349 OFFCURVE",
"86 282 OFFCURVE",
"86 160 CURVE SMOOTH",
"86 60 OFFCURVE",
"151 -12 OFFCURVE",
"260 -12 CURVE SMOOTH",
"341 -12 OFFCURVE",
"409 16 OFFCURVE",
"467 66 CURVE",
"506 0 LINE"
);
},
{
closed = 1;
nodes = (
"247 113 OFFCURVE",
"220 142 OFFCURVE",
"220 186 CURVE SMOOTH",
"220 232 OFFCURVE",
"255 271 OFFCURVE",
"322 306 CURVE",
"411 158 LINE",
"381 131 OFFCURVE",
"337 113 OFFCURVE",
"297 113 CURVE SMOOTH"
);
},
{
closed = 1;
nodes = (
"351 586 OFFCURVE",
"378 612 OFFCURVE",
"409 612 CURVE SMOOTH",
"435 612 OFFCURVE",
"456 595 OFFCURVE",
"456 561 CURVE SMOOTH",
"456 514 OFFCURVE",
"425 483 OFFCURVE",
"383 457 CURVE",
"363 487 OFFCURVE",
"351 516 OFFCURVE",
"351 543 CURVE SMOOTH"
);
}
);
width = 690;
},
{
hints = (
{
origin = "{0, 24}";
target = "{1, 3}";
},
{
origin = "{0, 18}";
target = "{2, 0}";
},
{
origin = "{2, 6}";
target = "{0, 12}";
},
{
horizontal = 1;
origin = "{0, 27}";
target = "{1, 0}";
},
{
horizontal = 1;
origin = "{2, 3}";
target = "{0, 15}";
}
);
layerId = "DEEEE81F-2F80-4306-8755-EEA92C96C68A";
paths = (
{
closed = 1;
nodes = (
"687 0 LINE",
"579 176 LINE",
"605 218 OFFCURVE",
"635 290 OFFCURVE",
"648 358 CURVE",
"510 358 LINE",
"507 336 OFFCURVE",
"501 317 OFFCURVE",
"500 303 CURVE",
"457 370 LINE",
"526 410 OFFCURVE",
"590 473 OFFCURVE",
"590 562 CURVE SMOOTH",
"590 652 OFFCURVE",
"532 712 OFFCURVE",
"425 712 CURVE SMOOTH",
"333 712 OFFCURVE",
"237 644 OFFCURVE",
"237 522 CURVE SMOOTH",
"237 474 OFFCURVE",
"244 438 OFFCURVE",
"270 398 CURVE",
"173 354 OFFCURVE",
"93 287 OFFCURVE",
"93 165 CURVE SMOOTH",
"93 63 OFFCURVE",
"160 -12 OFFCURVE",
"271 -12 CURVE SMOOTH",
"353 -12 OFFCURVE",
"417 15 OFFCURVE",
"471 60 CURVE",
"505 0 LINE"
);
},
{
closed = 1;
nodes = (
"267 129 OFFCURVE",
"244 154 OFFCURVE",
"244 193 CURVE SMOOTH",
"244 231 OFFCURVE",
"274 268 OFFCURVE",
"331 296 CURVE",
"409 162 LINE",
"386 143 OFFCURVE",
"348 129 OFFCURVE",
"312 129 CURVE SMOOTH"
);
},
{
closed = 1;
nodes = (
"372 581 OFFCURVE",
"394 603 OFFCURVE",
"417 603 CURVE SMOOTH",
"439 603 OFFCURVE",
"457 589 OFFCURVE",
"457 558 CURVE SMOOTH",
"457 513 OFFCURVE",
"429 486 OFFCURVE",
"398 465 CURVE",
"381 489 OFFCURVE",
"372 515 OFFCURVE",
"372 541 CURVE SMOOTH"
);
}
);
width = 713;
}
);
unicode = 0026;
},
{
glyphname = quotesingle;
lastChange = "2016-11-19 05:50:03 +0000";
layers = (
{
background = {
paths = (
{
closed = 1;
nodes = (
"138 409 LINE",
"242 409 LINE",
"316 700 LINE",
"166 700 LINE"
);
}
);
};
hints = (
{
origin = "{0, 0}";
target = "{0, 1}";
}
);
layerId = UUID0;
paths = (
{
closed = 1;
nodes = (
"136 421 LINE",
"213 421 LINE",
"283 700 LINE",
"166 700 LINE"
);
}
);
width = 203;
},
{
background = {
paths = (
{
closed = 1;
nodes = (
"138 409 LINE",
"242 409 LINE",
"316 700 LINE",
"166 700 LINE"
);
}
);
};
hints = (
{
origin = "{0, 0}";
target = "{0, 1}";
}
);
layerId = "03594D1A-E940-4CFB-8F8F-75A73B5E45C4";
paths = (
{
closed = 1;
nodes = (
"160 433 LINE",
"210 433 LINE",
"275 700 LINE",
"191 700 LINE"
);
}
);
width = 220;
},
{
background = {
paths = (
{
closed = 1;
nodes = (
"121 433 LINE",
"159 433 LINE",
"197 700 LINE",
"159 700 LINE"
);
}
);
};
hints = (
{
horizontal = 1;
origin = "{0, 0}";
target = up;
type = BottomGhost;
},
{
horizontal = 1;
origin = "{0, 2}";
target = down;
type = TopGhost;
}
);
layerId = "42555ED7-786B-4551-A9FC-B380F510FD49";
paths = (
{
closed = 1;
nodes = (
"124 433 LINE",
"162 433 LINE",
"209 700 LINE",
"171 700 LINE"
);
}
);
width = 174;
},
{
background = {
paths = (
{
closed = 1;
nodes = (
"82 420 LINE",
"170 420 LINE",
"191 700 LINE",
"61 700 LINE"
);
}
);
};
hints = (
{
origin = "{0, 0}";
target = "{0, 1}";
}
);
layerId = "B410913A-4682-469F-9A16-EAAC4E2E8870";
paths = (
{
closed = 1;
nodes = (
"138 409 LINE",
"242 409 LINE",
"316 700 LINE",
"166 700 LINE"
);
}
);
width = 236;
},
{
hints = (
{
origin = "{0, 0}";
target = "{0, 1}";
}
);
layerId = "DEEEE81F-2F80-4306-8755-EEA92C96C68A";
paths = (
{
closed = 1;
nodes = (
"139 403 LINE",
"257 403 LINE",
"333 700 LINE",
"166 700 LINE"
);
}
);
width = 253;
}
);
leftKerningGroup = quotedbl;
rightKerningGroup = quotedbl;
unicode = 0027;
},
{
glyphname = parenleft;
lastChange = "2016-11-19 05:50:03 +0000";
layers = (
{
background = {
paths = (
{
closed = 1;
nodes = (
"284 -130 LINE",
"264 -91 OFFCURVE",
"229 39 OFFCURVE",
"229 167 CURVE SMOOTH",
"229 454 OFFCURVE",
"383 646 OFFCURVE",
"445 712 CURVE",
"314 712 LINE",
"217 610 OFFCURVE",
"103 428 OFFCURVE",
"103 164 CURVE SMOOTH",
"103 48 OFFCURVE",
"132 -73 OFFCURVE",
"163 -130 CURVE"
);
}
);
};
hints = (
{
origin = "{0, 10}";
target = "{0, 3}";
},
{
horizontal = 1;
origin = "{0, 0}";
target = up;
type = BottomGhost;
},
{
horizontal = 1;
origin = "{0, 6}";
target = down;
type = TopGhost;
}
);
layerId = UUID0;
paths = (
{
closed = 1;
nodes = (
"255 -130 LINE",
"237 -94 OFFCURVE",
"199 26 OFFCURVE",
"199 163 CURVE SMOOTH",
"199 456 OFFCURVE",
"359 653 OFFCURVE",
"415 712 CURVE",
"317 712 LINE",
"217 608 OFFCURVE",
"102 430 OFFCURVE",
"102 155 CURVE SMOOTH",
"102 36 OFFCURVE",
"131 -73 OFFCURVE",
"162 -130 CURVE"
);
}
);
width = 327;
},
{
background = {
paths = (
{
closed = 1;
nodes = (
"284 -130 LINE",
"264 -91 OFFCURVE",
"229 39 OFFCURVE",
"229 167 CURVE SMOOTH",
"229 454 OFFCURVE",
"383 646 OFFCURVE",
"445 712 CURVE",
"314 712 LINE",
"217 610 OFFCURVE",
"103 428 OFFCURVE",
"103 164 CURVE SMOOTH",
"103 48 OFFCURVE",
"132 -73 OFFCURVE",
"163 -130 CURVE"
);
}
);
};
hints = (
{
origin = "{0, 10}";
target = "{0, 3}";
},
{
horizontal = 1;
origin = "{0, 0}";
target = up;
type = BottomGhost;
},
{
horizontal = 1;
origin = "{0, 6}";
target = down;
type = TopGhost;
}
);
layerId = "03594D1A-E940-4CFB-8F8F-75A73B5E45C4";
paths = (
{
closed = 1;
nodes = (
"251 -130 LINE",
"235 -97 OFFCURVE",
"195 13 OFFCURVE",
"195 160 CURVE SMOOTH",
"195 459 OFFCURVE",
"361 660 OFFCURVE",
"410 712 CURVE",
"346 712 LINE",
"243 607 OFFCURVE",
"127 433 OFFCURVE",
"127 147 CURVE SMOOTH",
"127 25 OFFCURVE",
"155 -73 OFFCURVE",
"186 -130 CURVE"
);
}
);
width = 348;
},
{
background = {
paths = (
{
closed = 1;
nodes = (
"226 -130 LINE",
"207 -95 OFFCURVE",
"156 19 OFFCURVE",
"156 190 CURVE SMOOTH",
"156 467 OFFCURVE",
"307 662 OFFCURVE",
"355 712 CURVE",
"319 712 LINE",
"222 613 OFFCURVE",
"116 444 OFFCURVE",
"116 177 CURVE SMOOTH",
"116 32 OFFCURVE",
"151 -68 OFFCURVE",
"190 -130 CURVE"
);
}
);
};
hints = (
{
origin = "{0, 10}";
target = "{0, 3}";
},
{
horizontal = 1;
origin = "{0, 0}";
target = up;
type = BottomGhost;
},
{
horizontal = 1;
origin = "{0, 6}";
target = down;
type = TopGhost;
}
);
layerId = "42555ED7-786B-4551-A9FC-B380F510FD49";
paths = (
{
closed = 1;
nodes = (
"219 -130 LINE",
"203 -97 OFFCURVE",
"160 10 OFFCURVE",
"160 172 CURVE SMOOTH",
"160 461 OFFCURVE",
"327 660 OFFCURVE",
"378 712 CURVE",
"342 712 LINE",
"237 609 OFFCURVE",
"120 421 OFFCURVE",
"120 165 CURVE SMOOTH",
"120 31 OFFCURVE",
"149 -68 OFFCURVE",
"183 -130 CURVE"
);
}
);
width = 316;
},
{
background = {
paths = (
{
closed = 1;
nodes = (
"285 -130 LINE",
"265 -91 OFFCURVE",
"230 26 OFFCURVE",
"230 162 CURVE SMOOTH",
"230 444 OFFCURVE",
"383 648 OFFCURVE",
"445 712 CURVE",
"321 712 LINE",
"222 610 OFFCURVE",
"103 418 OFFCURVE",
"103 154 CURVE SMOOTH",
"103 38 OFFCURVE",
"130 -73 OFFCURVE",
"161 -130 CURVE"
);
}
);
};
hints = (
{
origin = "{0, 10}";
target = "{0, 3}";
},
{
horizontal = 1;
origin = "{0, 0}";
target = up;
type = BottomGhost;
},
{
horizontal = 1;
origin = "{0, 6}";
target = down;
type = TopGhost;
}
);
layerId = "B410913A-4682-469F-9A16-EAAC4E2E8870";
paths = (
{
closed = 1;
nodes = (
"284 -130 LINE",
"264 -91 OFFCURVE",
"229 39 OFFCURVE",
"229 167 CURVE SMOOTH",
"229 454 OFFCURVE",
"383 646 OFFCURVE",
"445 712 CURVE",
"314 712 LINE",
"217 610 OFFCURVE",
"103 428 OFFCURVE",
"103 164 CURVE SMOOTH",
"103 48 OFFCURVE",
"132 -73 OFFCURVE",
"163 -130 CURVE"
);
}
);
width = 357;
},
{
hints = (
{
origin = "{0, 10}";
target = "{0, 3}";
},
{
horizontal = 1;
origin = "{0, 0}";
target = up;
type = BottomGhost;
},
{
horizontal = 1;
origin = "{0, 6}";
target = down;
type = TopGhost;
}
);
layerId = "DEEEE81F-2F80-4306-8755-EEA92C96C68A";
paths = (
{
closed = 1;
nodes = (
"299 -130 LINE",
"278 -90 OFFCURVE",
"244 46 OFFCURVE",
"244 169 CURVE SMOOTH",
"244 453 OFFCURVE",
"395 643 OFFCURVE",
"460 712 CURVE",
"313 712 LINE",
"217 611 OFFCURVE",
"104 427 OFFCURVE",
"104 169 CURVE SMOOTH",
"104 54 OFFCURVE",
"133 -73 OFFCURVE",
"164 -130 CURVE"
);
}
);
width = 372;
}
);
unicode = 0028;
},
{
glyphname = parenright;
lastChange = "2016-11-19 05:50:03 +0000";
layers = (
{
background = {
paths = (
{
closed = 1;
nodes = (
"175 712 LINE",
"195 673 OFFCURVE",
"230 543 OFFCURVE",
"230 415 CURVE SMOOTH",
"230 134 OFFCURVE",
"76 -64 OFFCURVE",
"14 -130 CURVE",
"145 -130 LINE",
"242 -28 OFFCURVE",
"356 154 OFFCURVE",
"356 418 CURVE SMOOTH",
"356 534 OFFCURVE",
"327 655 OFFCURVE",
"296 712 CURVE"
);
}
);
};
hints = (
{
origin = "{0, 10}";
target = "{0, 3}";
},
{
horizontal = 1;
origin = "{0, 13}";
target = up;
type = BottomGhost;
},
{
horizontal = 1;
origin = "{0, 7}";
target = down;
type = TopGhost;
}
);
layerId = UUID0;
paths = (
{
closed = 1;
nodes = (
"117 -130 LINE",
"216 -25 OFFCURVE",
"325 146 OFFCURVE",
"325 419 CURVE SMOOTH",
"325 540 OFFCURVE",
"296 654 OFFCURVE",
"262 712 CURVE",
"169 712 LINE",
"189 676 OFFCURVE",
"228 549 OFFCURVE",
"228 410 CURVE SMOOTH",
"228 119 OFFCURVE",
"73 -71 OFFCURVE",
"20 -130 CURVE"
);
}
);
width = 327;
},
{
background = {
paths = (
{
closed = 1;
nodes = (
"175 712 LINE",
"195 673 OFFCURVE",
"230 543 OFFCURVE",
"230 415 CURVE SMOOTH",
"230 134 OFFCURVE",
"76 -64 OFFCURVE",
"14 -130 CURVE",
"145 -130 LINE",
"242 -28 OFFCURVE",
"356 154 OFFCURVE",
"356 418 CURVE SMOOTH",
"356 534 OFFCURVE",
"327 655 OFFCURVE",
"296 712 CURVE"
);
}
);
};
hints = (
{
origin = "{0, 10}";
target = "{0, 3}";
},
{
horizontal = 1;
origin = "{0, 13}";
target = up;
type = BottomGhost;
},
{
horizontal = 1;
origin = "{0, 7}";
target = down;
type = TopGhost;
}
);
layerId = "03594D1A-E940-4CFB-8F8F-75A73B5E45C4";
paths = (
{
closed = 1;
nodes = (
"115 -130 LINE",
"215 -21 OFFCURVE",
"320 139 OFFCURVE",
"320 420 CURVE SMOOTH",
"320 546 OFFCURVE",
"290 654 OFFCURVE",
"254 712 CURVE",
"189 712 LINE",
"209 679 OFFCURVE",
"252 555 OFFCURVE",
"252 405 CURVE SMOOTH",
"252 105 OFFCURVE",
"95 -77 OFFCURVE",
"51 -130 CURVE"
);
}
);
width = 348;
},
{
background = {
paths = (
{
closed = 1;
nodes = (
"74 -130 LINE",
"166 -29 OFFCURVE",
"263 124 OFFCURVE",
"263 387 CURVE SMOOTH",
"263 538 OFFCURVE",
"225 649 OFFCURVE",
"181 712 CURVE",
"145 712 LINE",
"169 676 OFFCURVE",
"224 547 OFFCURVE",
"224 373 CURVE SMOOTH",
"224 96 OFFCURVE",
"79 -80 OFFCURVE",
"38 -130 CURVE"
);
}
);
};
hints = (
{
origin = "{0, 10}";
target = "{0, 3}";
},
{
horizontal = 1;
origin = "{0, 0}";
target = up;
type = BottomGhost;
},
{
horizontal = 1;
origin = "{0, 6}";
target = down;
type = TopGhost;
}
);
layerId = "42555ED7-786B-4551-A9FC-B380F510FD49";
paths = (
{
closed = 1;
nodes = (
"67 -130 LINE",
"168 -24 OFFCURVE",
"275 140 OFFCURVE",
"275 402 CURVE SMOOTH",
"275 537 OFFCURVE",
"243 645 OFFCURVE",
"204 712 CURVE",
"168 712 LINE",
"189 678 OFFCURVE",
"236 557 OFFCURVE",
"236 397 CURVE SMOOTH",
"236 98 OFFCURVE",
"76 -78 OFFCURVE",
"31 -130 CURVE"
);
}
);
width = 316;
},
{
background = {
paths = (
{
closed = 1;
nodes = (
"150 -130 LINE",
"243 -27 OFFCURVE",
"353 151 OFFCURVE",
"353 410 CURVE SMOOTH",
"353 532 OFFCURVE",
"324 653 OFFCURVE",
"288 712 CURVE",
"164 712 LINE",
"185 676 OFFCURVE",
"226 569 OFFCURVE",
"226 412 CURVE SMOOTH",
"226 149 OFFCURVE",
"86 -62 OFFCURVE",
"26 -130 CURVE"
);
}
);
};
hints = (
{
origin = "{0, 10}";
target = "{0, 3}";
},
{
horizontal = 1;
origin = "{0, 13}";
target = up;
type = BottomGhost;
},
{
horizontal = 1;
origin = "{0, 7}";
target = down;
type = TopGhost;
}
);
layerId = "B410913A-4682-469F-9A16-EAAC4E2E8870";
paths = (
{
closed = 1;
nodes = (
"145 -130 LINE",
"242 -28 OFFCURVE",
"356 154 OFFCURVE",
"356 418 CURVE SMOOTH",
"356 534 OFFCURVE",
"327 655 OFFCURVE",
"296 712 CURVE",
"175 712 LINE",
"195 673 OFFCURVE",
"230 543 OFFCURVE",
"230 415 CURVE SMOOTH",
"230 134 OFFCURVE",
"76 -64 OFFCURVE",
"14 -130 CURVE"
);
}
);
width = 357;
},
{
hints = (
{
origin = "{0, 10}";
target = "{0, 3}";
},
{
horizontal = 1;
origin = "{0, 13}";
target = up;
type = BottomGhost;
},
{
horizontal = 1;
origin = "{0, 7}";
target = down;
type = TopGhost;
}
);
layerId = "DEEEE81F-2F80-4306-8755-EEA92C96C68A";
paths = (
{
closed = 1;
nodes = (
"159 -130 LINE",
"255 -30 OFFCURVE",
"372 158 OFFCURVE",
"372 418 CURVE SMOOTH",
"372 531 OFFCURVE",
"343 656 OFFCURVE",
"313 712 CURVE",
"178 712 LINE",
"198 672 OFFCURVE",
"231 540 OFFCURVE",
"231 418 CURVE SMOOTH",
"231 142 OFFCURVE",
"78 -61 OFFCURVE",
"11 -130 CURVE"
);
}
);
width = 372;
}
);
unicode = 0029;
},
{
glyphname = asterisk;
lastChange = "2016-11-19 05:50:03 +0000";
layers = (
{
background = {
paths = (
{
closed = 1;
nodes = (
"403 275 LINE",
"504 340 LINE",
"442 449 LINE",
"408 469 LINE",
"459 470 LINE",
"576 507 LINE",
"553 617 LINE",
"442 583 LINE",
"404 556 LINE",
"429 601 LINE",
"451 721 LINE",
"333 721 LINE",
"310 597 LINE",
"320 556 LINE",
"289 578 LINE",
"178 618 LINE",
"134 511 LINE",
"244 470 LINE",
"283 469 LINE",
"233 447 LINE",
"148 352 LINE",
"235 277 LINE",
"320 379 LINE",
"339 426 LINE",
"346 379 LINE"
);
}
);
};
hints = (
{
origin = "{0, 11}";
target = "{0, 10}";
},
{
horizontal = 1;
origin = "{0, 10}";
target = down;
type = TopGhost;
},
{
horizontal = 1;
origin = "{0, 0}";
target = up;
type = BottomGhost;
}
);
layerId = UUID0;
paths = (
{
closed = 1;
nodes = (
"396 288 LINE",
"477 342 LINE",
"423 440 LINE",
"382 478 LINE",
"445 481 LINE",
"556 517 LINE",
"539 605 LINE",
"433 572 LINE",
"376 534 LINE",
"405 598 LINE",
"426 714 LINE",
"333 714 LINE",
"312 596 LINE",
"317 534 LINE",
"272 569 LINE",
"173 605 LINE",
"134 519 LINE",
"235 481 LINE",
"290 478 LINE",
"232 439 LINE",
"151 348 LINE",
"218 289 LINE",
"300 386 LINE",
"331 449 LINE",
"343 386 LINE"
);
}
);
width = 506;
},
{
background = {
paths = (
{
closed = 1;
nodes = (
"403 275 LINE",
"504 340 LINE",
"442 449 LINE",
"408 469 LINE",
"459 470 LINE",
"576 507 LINE",
"553 617 LINE",
"442 583 LINE",
"404 556 LINE",
"429 601 LINE",
"451 721 LINE",
"333 721 LINE",
"310 597 LINE",
"320 556 LINE",
"289 578 LINE",
"178 618 LINE",
"134 511 LINE",
"244 470 LINE",
"283 469 LINE",
"233 447 LINE",
"148 352 LINE",
"235 277 LINE",
"320 379 LINE",
"339 426 LINE",
"346 379 LINE"
);
}
);
};
hints = (
{
origin = "{0, 11}";
target = "{0, 10}";
},
{
horizontal = 1;
origin = "{0, 10}";
target = down;
type = TopGhost;
},
{
horizontal = 1;
origin = "{0, 0}";
target = up;
type = BottomGhost;
}
);
layerId = "03594D1A-E940-4CFB-8F8F-75A73B5E45C4";
paths = (
{
closed = 1;
nodes = (
"415 301 LINE",
"476 344 LINE",
"430 432 LINE",
"381 488 LINE",
"456 493 LINE",
"562 527 LINE",
"551 593 LINE",
"450 561 LINE",
"373 512 LINE",
"406 595 LINE",
"426 707 LINE",
"359 707 LINE",
"339 595 LINE",
"340 512 LINE",
"280 561 LINE",
"193 593 LINE",
"159 527 LINE",
"251 493 LINE",
"322 488 LINE",
"257 432 LINE",
"180 344 LINE",
"226 301 LINE",
"305 393 LINE",
"349 473 LINE",
"366 393 LINE"
);
}
);
width = 535;
},
{
background = {
paths = (
{
closed = 1;
nodes = (
"398 310 LINE",
"433 334 LINE",
"384 417 LINE",
"322 490 LINE",
"424 511 LINE",
"524 543 LINE",
"516 579 LINE",
"415 547 LINE",
"321 502 LINE",
"347 595 LINE",
"362 700 LINE",
"322 700 LINE",
"307 595 LINE",
"307 502 LINE",
"227 547 LINE",
"134 579 LINE",
"116 543 LINE",
"208 511 LINE",
"304 490 LINE",
"220 417 LINE",
"149 334 LINE",
"176 310 LINE",
"248 393 LINE",
"312 483 LINE",
"350 393 LINE"
);
}
);
};
hints = (
{
origin = "{0, 11}";
target = "{0, 10}";
},
{
horizontal = 1;
origin = "{0, 10}";
target = down;
type = TopGhost;
},
{
horizontal = 1;
origin = "{0, 0}";
target = up;
type = BottomGhost;
}
);
layerId = "42555ED7-786B-4551-A9FC-B380F510FD49";
paths = (
{
closed = 1;
nodes = (
"401 308 LINE",
"437 332 LINE",
"388 417 LINE",
"329 490 LINE",
"432 510 LINE",
"533 542 LINE",
"526 580 LINE",
"424 548 LINE",
"328 502 LINE",
"358 595 LINE",
"376 700 LINE",
"336 700 LINE",
"318 595 LINE",
"314 502 LINE",
"236 547 LINE",
"144 579 LINE",
"125 544 LINE",
"216 512 LINE",
"311 490 LINE",
"223 417 LINE",
"150 334 LINE",
"178 310 LINE",
"253 393 LINE",
"319 483 LINE",
"354 393 LINE"
);
}
);
width = 504;
},
{
background = {
paths = (
{
closed = 1;
nodes = (
"396 280 LINE",
"502 350 LINE",
"448 450 LINE",
"414 469 LINE",
"459 470 LINE",
"569 506 LINE",
"554 622 LINE",
"442 586 LINE",
"406 561 LINE",
"429 601 LINE",
"450 720 LINE",
"332 720 LINE",
"311 601 LINE",
"320 561 LINE",
"292 586 LINE",
"194 622 LINE",
"137 506 LINE",
"235 470 LINE",
"280 469 LINE",
"238 450 LINE",
"150 350 LINE",
"230 280 LINE",
"319 379 LINE",
"339 426 LINE",
"343 379 LINE"
);
}
);
};
hints = (
{
origin = "{0, 11}";
target = "{0, 10}";
},
{
horizontal = 1;
origin = "{0, 10}";
target = down;
type = TopGhost;
},
{
horizontal = 1;
origin = "{0, 0}";
target = up;
type = BottomGhost;
}
);
layerId = "B410913A-4682-469F-9A16-EAAC4E2E8870";
paths = (
{
closed = 1;
nodes = (
"403 275 LINE",
"504 340 LINE",
"442 449 LINE",
"408 469 LINE",
"459 470 LINE",
"576 507 LINE",
"553 617 LINE",
"442 583 LINE",
"404 556 LINE",
"429 601 LINE",
"451 721 LINE",
"333 721 LINE",
"310 597 LINE",
"320 556 LINE",
"289 578 LINE",
"178 618 LINE",
"134 511 LINE",
"244 470 LINE",
"283 469 LINE",
"233 447 LINE",
"148 352 LINE",
"235 277 LINE",
"320 379 LINE",
"339 426 LINE",
"346 379 LINE"
);
}
);
width = 528;
},
{
associatedMasterId = "B410913A-4682-469F-9A16-EAAC4E2E8870";
background = {
paths = (
{
closed = 1;
nodes = (
"403 275 LINE",
"504 340 LINE",
"442 449 LINE",
"408 469 LINE",
"459 470 LINE",
"576 507 LINE",
"553 617 LINE",
"442 583 LINE",
"404 556 LINE",
"429 601 LINE",
"451 721 LINE",
"333 721 LINE",
"310 597 LINE",
"320 556 LINE",
"289 578 LINE",
"178 618 LINE",
"134 511 LINE",
"244 470 LINE",
"283 469 LINE",
"233 447 LINE",
"148 352 LINE",
"235 277 LINE",
"320 379 LINE",
"339 426 LINE",
"346 379 LINE"
);
}
);
};
hints = (
{
origin = "{0, 11}";
target = "{0, 10}";
},
{
horizontal = 1;
origin = "{0, 10}";
target = down;
type = TopGhost;
},
{
horizontal = 1;
origin = "{0, 0}";
target = up;
type = BottomGhost;
}
);
layerId = "7A4CD2D0-22F9-4343-8E31-734D410B45BA";
name = "Bold Italic [701]";
paths = (
{
closed = 1;
nodes = (
"403 275 LINE",
"504 340 LINE",
"444 446 LINE",
"403 470 LINE",
"465 472 LINE",
"576 507 LINE",
"553 617 LINE",
"448 585 LINE",
"400 552 LINE",
"430 606 LINE",
"451 721 LINE",
"333 721 LINE",
"311 602 LINE",
"322 553 LINE",
"283 580 LINE",
"178 618 LINE",
"134 511 LINE",
"239 472 LINE",
"289 470 LINE",
"230 444 LINE",
"148 352 LINE",
"235 277 LINE",
"316 374 LINE",
"340 431 LINE",
"349 374 LINE"
);
}
);
width = 528;
},
{
hints = (
{
origin = "{0, 11}";
target = "{0, 10}";
},
{
horizontal = 1;
origin = "{0, 10}";
target = down;
type = TopGhost;
},
{
horizontal = 1;
origin = "{0, 0}";
target = up;
type = BottomGhost;
}
);
layerId = "DEEEE81F-2F80-4306-8755-EEA92C96C68A";
paths = (
{
closed = 1;
nodes = (
"407 269 LINE",
"518 339 LINE",
"455 449 LINE",
"414 466 LINE",
"475 468 LINE",
"586 502 LINE",
"560 623 LINE",
"456 592 LINE",
"412 561 LINE",
"443 610 LINE",
"464 725 LINE",
"333 725 LINE",
"311 605 LINE",
"325 563 LINE",
"289 586 LINE",
"181 625 LINE",
"134 507 LINE",
"241 468 LINE",
"289 466 LINE",
"229 447 LINE",
"147 354 LINE",
"244 271 LINE",
"324 368 LINE",
"345 422 LINE",
"352 368 LINE"
);
}
);
width = 539;
}
);
unicode = 002A;
},
{
glyphname = plus;
lastChange = "2016-11-19 05:50:03 +0000";
layers = (
{
background = {
paths = (
{
closed = 1;
nodes = (
"583 280 LINE",
"583 406 LINE",
"425 406 LINE",
"425 578 LINE",
"295 578 LINE",
"295 406 LINE",
"137 406 LINE",
"137 280 LINE",
"295 280 LINE",
"295 108 LINE",
"425 108 LINE",
"425 280 LINE"
);
}
);
};
hints = (
{
place = "{369, 69}";
},
{
horizontal = 1;
origin = "{0, 0}";
target = "{0, 1}";
},
{
horizontal = 1;
origin = "{0, 3}";
target = down;
type = TopGhost;
},
{
horizontal = 1;
origin = "{0, 9}";
target = up;
type = BottomGhost;
}
);
layerId = UUID0;
paths = (
{
closed = 1;
nodes = (
"589 294 LINE",
"589 391 LINE",
"410 391 LINE",
"410 578 LINE",
"309 578 LINE",
"309 391 LINE",
"131 391 LINE",
"131 294 LINE",
"309 294 LINE",
"309 108 LINE",
"410 108 LINE",
"410 294 LINE"
);
}
);
width = 605;
},
{
background = {
paths = (
{
closed = 1;
nodes = (
"583 280 LINE",
"583 406 LINE",
"425 406 LINE",
"425 578 LINE",
"295 578 LINE",
"295 406 LINE",
"137 406 LINE",
"137 280 LINE",
"295 280 LINE",
"295 108 LINE",
"425 108 LINE",
"425 280 LINE"
);
}
);
};
hints = (
{
place = "{394, 69}";
},
{
horizontal = 1;
origin = "{0, 0}";
target = "{0, 1}";
},
{
horizontal = 1;
origin = "{0, 3}";
target = down;
type = TopGhost;
},
{
horizontal = 1;
origin = "{0, 9}";
target = up;
type = BottomGhost;
}
);
layerId = "03594D1A-E940-4CFB-8F8F-75A73B5E45C4";
paths = (
{
closed = 1;
nodes = (
"620 308 LINE",
"620 376 LINE",
"420 376 LINE",
"420 578 LINE",
"348 578 LINE",
"348 376 LINE",
"150 376 LINE",
"150 308 LINE",
"348 308 LINE",
"348 108 LINE",
"420 108 LINE",
"420 308 LINE"
);
}
);
width = 655;
},
{
background = {
paths = (
{
closed = 1;
nodes = (
"591 324 LINE",
"596 360 LINE",
"379 360 LINE",
"410 578 LINE",
"372 578 LINE",
"341 360 LINE",
"126 360 LINE",
"121 324 LINE",
"336 324 LINE",
"306 108 LINE",
"344 108 LINE",
"374 324 LINE"
);
}
);
};
hints = (
{
origin = "{0, 4}";
target = "{0, 3}";
},
{
horizontal = 1;
origin = "{0, 0}";
target = "{0, 1}";
},
{
horizontal = 1;
origin = "{0, 3}";
target = down;
type = TopGhost;
},
{
horizontal = 1;
origin = "{0, 9}";
target = up;
type = BottomGhost;
}
);
layerId = "42555ED7-786B-4551-A9FC-B380F510FD49";
paths = (
{
closed = 1;
nodes = (
"603 324 LINE",
"603 360 LINE",
"386 360 LINE",
"386 578 LINE",
"348 578 LINE",
"348 360 LINE",
"133 360 LINE",
"133 324 LINE",
"348 324 LINE",
"348 108 LINE",
"386 108 LINE",
"386 324 LINE"
);
}
);
width = 636;
},
{
background = {
paths = (
{
closed = 1;
nodes = (
"595 280 LINE",
"595 406 LINE",
"425 406 LINE",
"425 578 LINE",
"295 578 LINE",
"295 406 LINE",
"125 406 LINE",
"125 280 LINE",
"295 280 LINE",
"295 108 LINE",
"425 108 LINE",
"425 280 LINE"
);
}
);
};
hints = (
{
origin = "{0, 9}";
target = "{0, 10}";
},
{
horizontal = 1;
origin = "{0, 0}";
target = "{0, 1}";
},
{
horizontal = 1;
origin = "{0, 3}";
target = down;
type = TopGhost;
},
{
horizontal = 1;
origin = "{0, 9}";
target = up;
type = BottomGhost;
}
);
layerId = "B410913A-4682-469F-9A16-EAAC4E2E8870";
paths = (
{
closed = 1;
nodes = (
"583 280 LINE",
"583 406 LINE",
"425 406 LINE",
"425 578 LINE",
"295 578 LINE",
"295 406 LINE",
"137 406 LINE",
"137 280 LINE",
"295 280 LINE",
"295 108 LINE",
"425 108 LINE",
"425 280 LINE"
);
}
);
width = 605;
},
{
hints = (
{
place = "{235.5, 154.5}";
},
{
horizontal = 1;
origin = "{0, 0}";
target = "{0, 1}";
},
{
horizontal = 1;
origin = "{0, 3}";
target = down;
type = TopGhost;
},
{
horizontal = 1;
origin = "{0, 9}";
target = up;
type = BottomGhost;
}
);
layerId = "DEEEE81F-2F80-4306-8755-EEA92C96C68A";
paths = (
{
closed = 1;
nodes = (
"580 273 LINE",
"580 414 LINE",
"433 414 LINE",
"433 578 LINE",
"288 578 LINE",
"288 414 LINE",
"140 414 LINE",
"140 273 LINE",
"288 273 LINE",
"288 108 LINE",
"433 108 LINE",
"433 273 LINE"
);
}
);
width = 605;
}
);
unicode = 002B;
},
{
glyphname = comma;
lastChange = "2016-11-19 05:50:03 +0000";
layers = (
{
background = {
paths = (
{
closed = 1;
nodes = (
"61 -141 LINE",
"140 -95 OFFCURVE",
"216 -8 OFFCURVE",
"216 77 CURVE SMOOTH",
"216 125 OFFCURVE",
"185 153 OFFCURVE",
"141 153 CURVE SMOOTH",
"96 153 OFFCURVE",
"52 115 OFFCURVE",
"52 57 CURVE SMOOTH",
"52 25 OFFCURVE",
"70 2 OFFCURVE",
"95 -7 CURVE",
"78 -39 OFFCURVE",
"36 -84 OFFCURVE",
"16 -100 CURVE"
);
}
);
};
hints = (
{
origin = "{0, 9}";
target = "{0, 3}";
},
{
horizontal = 1;
origin = "{0, 0}";
target = up;
type = BottomGhost;
},
{
horizontal = 1;
origin = "{0, 6}";
target = down;
type = TopGhost;
}
);
layerId = UUID0;
paths = (
{
closed = 1;
nodes = (
"127 -99 OFFCURVE",
"191 -22 OFFCURVE",
"191 60 CURVE SMOOTH",
"191 106 OFFCURVE",
"163 131 OFFCURVE",
"126 131 CURVE SMOOTH",
"85 131 OFFCURVE",
"46 97 OFFCURVE",
"46 45 CURVE SMOOTH",
"46 14 OFFCURVE",
"67 -9 OFFCURVE",
"98 -13 CURVE",
"84 -59 OFFCURVE",
"44 -102 OFFCURVE",
"24 -118 CURVE",
"55 -141 LINE"
);
}
);
width = 212;
},
{
background = {
paths = (
{
closed = 1;
nodes = (
"61 -141 LINE",
"140 -95 OFFCURVE",
"216 -8 OFFCURVE",
"216 77 CURVE SMOOTH",
"216 125 OFFCURVE",
"185 153 OFFCURVE",
"141 153 CURVE SMOOTH",
"96 153 OFFCURVE",
"52 115 OFFCURVE",
"52 57 CURVE SMOOTH",
"52 25 OFFCURVE",
"70 2 OFFCURVE",
"95 -7 CURVE",
"78 -39 OFFCURVE",
"36 -84 OFFCURVE",
"16 -100 CURVE"
);
}
);
};
hints = (
{
origin = "{0, 9}";
target = "{0, 3}";
},
{
horizontal = 1;
origin = "{0, 0}";
target = up;
type = BottomGhost;
},
{
horizontal = 1;
origin = "{0, 6}";
target = down;
type = TopGhost;
}
);
layerId = "03594D1A-E940-4CFB-8F8F-75A73B5E45C4";
paths = (
{
closed = 1;
nodes = (
"140 -103 OFFCURVE",
"192 -35 OFFCURVE",
"192 44 CURVE SMOOTH",
"192 88 OFFCURVE",
"166 109 OFFCURVE",
"136 109 CURVE SMOOTH",
"100 109 OFFCURVE",
"66 79 OFFCURVE",
"66 34 CURVE SMOOTH",
"66 3 OFFCURVE",
"89 -19 OFFCURVE",
"126 -19 CURVE",
"115 -78 OFFCURVE",
"77 -120 OFFCURVE",
"57 -136 CURVE",
"74 -141 LINE"
);
}
);
width = 238;
},
{
background = {
paths = (
{
closed = 1;
nodes = (
"81 -113 OFFCURVE",
"127 -45 OFFCURVE",
"127 11 CURVE SMOOTH",
"127 36 OFFCURVE",
"114 46 OFFCURVE",
"99 46 CURVE SMOOTH",
"79 46 OFFCURVE",
"66 31 OFFCURVE",
"66 12 CURVE SMOOTH",
"66 -4 OFFCURVE",
"78 -14 OFFCURVE",
"93 -14 CURVE",
"93 -18 OFFCURVE",
"93 -22 OFFCURVE",
"92 -27 CURVE SMOOTH",
"86 -64 OFFCURVE",
"63 -111 OFFCURVE",
"39 -138 CURVE",
"48 -141 LINE"
);
}
);
};
hints = (
{
origin = "{0, 9}";
target = "{0, 3}";
},
{
horizontal = 1;
origin = "{0, 0}";
target = up;
type = BottomGhost;
},
{
horizontal = 1;
place = "{0, 0}";
}
);
layerId = "42555ED7-786B-4551-A9FC-B380F510FD49";
paths = (
{
closed = 1;
nodes = (
"81 -113 OFFCURVE",
"127 -45 OFFCURVE",
"127 11 CURVE SMOOTH",
"127 36 OFFCURVE",
"114 46 OFFCURVE",
"99 46 CURVE SMOOTH",
"79 46 OFFCURVE",
"66 31 OFFCURVE",
"66 12 CURVE SMOOTH",
"66 -4 OFFCURVE",
"78 -14 OFFCURVE",
"93 -14 CURVE",
"93 -49 OFFCURVE",
"64 -110 OFFCURVE",
"39 -138 CURVE",
"48 -141 LINE"
);
}
);
width = 182;
},
{
background = {
paths = (
{
closed = 1;
nodes = (
"61 -141 LINE",
"140 -95 OFFCURVE",
"216 -8 OFFCURVE",
"216 77 CURVE SMOOTH",
"216 125 OFFCURVE",
"185 153 OFFCURVE",
"147 153 CURVE SMOOTH",
"96 153 OFFCURVE",
"52 111 OFFCURVE",
"52 56 CURVE SMOOTH",
"52 24 OFFCURVE",
"70 1 OFFCURVE",
"95 -8 CURVE",
"78 -40 OFFCURVE",
"36 -84 OFFCURVE",
"16 -100 CURVE"
);
}
);
};
hints = (
{
origin = "{0, 9}";
target = "{0, 3}";
},
{
horizontal = 1;
origin = "{0, 0}";
target = up;
type = BottomGhost;
},
{
horizontal = 1;
origin = "{0, 6}";
target = down;
type = TopGhost;
}
);
layerId = "B410913A-4682-469F-9A16-EAAC4E2E8870";
paths = (
{
closed = 1;
nodes = (
"140 -95 OFFCURVE",
"216 -8 OFFCURVE",
"216 77 CURVE SMOOTH",
"216 125 OFFCURVE",
"185 153 OFFCURVE",
"141 153 CURVE SMOOTH",
"96 153 OFFCURVE",
"52 115 OFFCURVE",
"52 57 CURVE SMOOTH",
"52 25 OFFCURVE",
"70 2 OFFCURVE",
"95 -7 CURVE",
"78 -39 OFFCURVE",
"36 -84 OFFCURVE",
"16 -100 CURVE",
"61 -141 LINE"
);
}
);
width = 237;
},
{
hints = (
{
origin = "{0, 9}";
target = "{0, 3}";
},
{
horizontal = 1;
origin = "{0, 0}";
target = up;
type = BottomGhost;
},
{
horizontal = 1;
origin = "{0, 6}";
target = down;
type = TopGhost;
}
);
layerId = "DEEEE81F-2F80-4306-8755-EEA92C96C68A";
paths = (
{
closed = 1;
nodes = (
"147 -93 OFFCURVE",
"229 -1 OFFCURVE",
"229 86 CURVE SMOOTH",
"229 135 OFFCURVE",
"196 164 OFFCURVE",
"149 164 CURVE SMOOTH",
"102 164 OFFCURVE",
"55 124 OFFCURVE",
"55 63 CURVE SMOOTH",
"55 31 OFFCURVE",
"72 8 OFFCURVE",
"94 -4 CURVE",
"75 -29 OFFCURVE",
"32 -75 OFFCURVE",
"12 -91 CURVE",
"64 -141 LINE"
);
}
);
width = 250;
}
);
leftKerningGroup = comma;
rightKerningGroup = comma;
unicode = 002C;
},
{
glyphname = hyphen;
lastChange = "2016-11-19 05:50:03 +0000";
layers = (
{
background = {
paths = (
{
closed = 1;
nodes = (
"365 233 LINE",
"387 358 LINE",
"135 358 LINE",
"113 233 LINE"
);
}
);
};
hints = (
{
horizontal = 1;
origin = "{0, 0}";
target = "{0, 1}";
}
);
layerId = UUID0;
paths = (
{
closed = 1;
nodes = (
"349 248 LINE",
"366 345 LINE",
"133 345 LINE",
"116 248 LINE"
);
}
);
width = 377;
},
{
background = {
paths = (
{
closed = 1;
nodes = (
"365 233 LINE",
"387 358 LINE",
"135 358 LINE",
"113 233 LINE"
);
}
);
};
hints = (
{
horizontal = 1;
origin = "{0, 0}";
target = "{0, 1}";
}
);
layerId = "03594D1A-E940-4CFB-8F8F-75A73B5E45C4";
paths = (
{
closed = 1;
nodes = (
"358 264 LINE",
"370 332 LINE",
"156 332 LINE",
"144 264 LINE"
);
}
);
width = 408;
},
{
background = {
paths = (
{
closed = 1;
nodes = (
"332 280 LINE",
"337 316 LINE",
"114 316 LINE",
"109 280 LINE"
);
}
);
};
hints = (
{
horizontal = 1;
origin = "{0, 0}";
target = "{0, 1}";
}
);
layerId = "42555ED7-786B-4551-A9FC-B380F510FD49";
paths = (
{
closed = 1;
nodes = (
"339 280 LINE",
"345 316 LINE",
"122 316 LINE",
"116 280 LINE"
);
}
);
width = 379;
},
{
background = {
paths = (
{
closed = 1;
nodes = (
"335 247 LINE",
"335 347 LINE",
"90 347 LINE",
"90 247 LINE"
);
}
);
};
hints = (
{
horizontal = 1;
origin = "{0, 0}";
target = "{0, 1}";
}
);
layerId = "B410913A-4682-469F-9A16-EAAC4E2E8870";
paths = (
{
closed = 1;
nodes = (
"365 233 LINE",
"387 358 LINE",
"135 358 LINE",
"113 233 LINE"
);
}
);
width = 396;
},
{
hints = (
{
horizontal = 1;
origin = "{0, 0}";
target = "{0, 1}";
}
);
layerId = "DEEEE81F-2F80-4306-8755-EEA92C96C68A";
paths = (
{
closed = 1;
nodes = (
"373 226 LINE",
"398 365 LINE",
"136 365 LINE",
"112 226 LINE"
);
}
);
width = 406;
}
);
leftKerningGroup = hyphen;
rightKerningGroup = hyphen;
unicode = 002D;
},
